<?xml version="1.0" encoding="UTF-8" standalone="no"?>
<!DOCTYPE svg PUBLIC "-//W3C//DTD SVG 1.1//EN"
 "http://www.w3.org/Graphics/SVG/1.1/DTD/svg11.dtd">
<!-- Generated by graphviz version 2.40.1 (0)
 -->
<!-- Title: G Pages: 1 -->
<svg width="847pt" height="687pt"
 viewBox="0.00 0.00 847.00 687.00" xmlns="http://www.w3.org/2000/svg" xmlns:xlink="http://www.w3.org/1999/xlink">
<g id="graph0" class="graph" transform="scale(1 1) rotate(0) translate(4 683)">
<title>G</title>
<polygon fill="#eeeeee" stroke="transparent" points="-4,4 -4,-683 843,-683 843,4 -4,4"/>
<g id="clust1" class="cluster">
<title>cluster_inputs</title>
<polygon fill="#eeeeee" stroke="#000000" stroke-dasharray="5,2" points="8,-595 8,-671 831,-671 831,-595 8,-595"/>
<text text-anchor="middle" x="777" y="-602.8" font-family="Times,serif" font-size="14.00" fill="#000000">Workflow Inputs</text>
</g>
<g id="clust2" class="cluster">
<title>cluster_outputs</title>
<polygon fill="#eeeeee" stroke="#000000" stroke-dasharray="5,2" points="403,-8 403,-84 520,-84 520,-8 403,-8"/>
<text text-anchor="middle" x="461.5" y="-15.8" font-family="Times,serif" font-size="14.00" fill="#000000">Workflow Outputs</text>
</g>
<!-- generate_hhm -->
<g id="node1" class="node">
<title>generate_hhm</title>
<polygon fill="#f3cea1" stroke="#000000" points="141.5,-258.5 141.5,-294.5 234.5,-294.5 234.5,-258.5 141.5,-258.5"/>
<text text-anchor="middle" x="188" y="-272.8" font-family="Times,serif" font-size="14.00" fill="#000000">generate_hhm</text>
</g>
<!-- combine_features -->
<g id="node2" class="node">
<title>combine_features</title>
<polygon fill="#fafad2" stroke="#000000" points="339,-185.5 339,-221.5 483,-221.5 483,-185.5 339,-185.5"/>
<text text-anchor="middle" x="411" y="-199.8" font-family="Times,serif" font-size="14.00" fill="#000000">Combine input features</text>
</g>
<!-- generate_hhm&#45;&gt;combine_features -->
<g id="edge1" class="edge">
<title>generate_hhm&#45;&gt;combine_features</title>
<path fill="none" stroke="#000000" d="M234.7481,-261.1968C266.9685,-250.6493 310.2287,-236.4879 345.8265,-224.8348"/>
<polygon fill="#000000" stroke="#000000" points="347.2333,-228.0571 355.6481,-221.6197 345.0555,-221.4045 347.2333,-228.0571"/>
</g>
<!-- train_epitope_prediction_model -->
<g id="node13" class="node">
<title>train_epitope_prediction_model</title>
<polygon fill="#fafad2" stroke="#000000" points="365.5,-112.5 365.5,-148.5 556.5,-148.5 556.5,-112.5 365.5,-112.5"/>
<text text-anchor="middle" x="461" y="-126.8" font-family="Times,serif" font-size="14.00" fill="#000000">train_epitope_prediction_model</text>
</g>
<!-- combine_features&#45;&gt;train_epitope_prediction_model -->
<g id="edge18" class="edge">
<title>combine_features&#45;&gt;train_epitope_prediction_model</title>
<path fill="none" stroke="#000000" d="M423.3596,-185.4551C429.2491,-176.8564 436.4087,-166.4034 442.8961,-156.9316"/>
<polygon fill="#000000" stroke="#000000" points="445.846,-158.8185 448.6093,-148.5904 440.0708,-154.8628 445.846,-158.8185"/>
</g>
<!-- generate_pc7 -->
<g id="node3" class="node">
<title>generate_pc7</title>
<polygon fill="#fafad2" stroke="#000000" points="254,-258.5 254,-294.5 342,-294.5 342,-258.5 254,-258.5"/>
<text text-anchor="middle" x="298" y="-272.8" font-family="Times,serif" font-size="14.00" fill="#000000">generate_pc7</text>
</g>
<!-- generate_pc7&#45;&gt;combine_features -->
<g id="edge2" class="edge">
<title>generate_pc7&#45;&gt;combine_features</title>
<path fill="none" stroke="#000000" d="M325.9326,-258.4551C340.601,-248.979 358.7556,-237.2508 374.5214,-227.0658"/>
<polygon fill="#000000" stroke="#000000" points="376.4966,-229.9566 382.9971,-221.5904 372.6982,-224.0769 376.4966,-229.9566"/>
</g>
<!-- generate_psp19 -->
<g id="node4" class="node">
<title>generate_psp19</title>
<polygon fill="#fafad2" stroke="#000000" points="360.5,-258.5 360.5,-294.5 461.5,-294.5 461.5,-258.5 360.5,-258.5"/>
<text text-anchor="middle" x="411" y="-272.8" font-family="Times,serif" font-size="14.00" fill="#000000">generate_psp19</text>
</g>
<!-- generate_psp19&#45;&gt;combine_features -->
<g id="edge3" class="edge">
<title>generate_psp19&#45;&gt;combine_features</title>
<path fill="none" stroke="#000000" d="M411,-258.4551C411,-250.3828 411,-240.6764 411,-231.6817"/>
<polygon fill="#000000" stroke="#000000" points="414.5001,-231.5903 411,-221.5904 407.5001,-231.5904 414.5001,-231.5903"/>
</g>
<!-- generate_ppi_labels -->
<g id="node5" class="node">
<title>generate_ppi_labels</title>
<polygon fill="#fafad2" stroke="#000000" points="349,-331.5 349,-367.5 473,-367.5 473,-331.5 349,-331.5"/>
<text text-anchor="middle" x="411" y="-345.8" font-family="Times,serif" font-size="14.00" fill="#000000">generate_ppi_labels</text>
</g>
<!-- generate_ppi_labels&#45;&gt;generate_hhm -->
<g id="edge13" class="edge">
<title>generate_ppi_labels&#45;&gt;generate_hhm</title>
<path fill="none" stroke="#000000" d="M355.8764,-331.4551C321.9507,-320.3493 278.5755,-306.1503 244.414,-294.9674"/>
<polygon fill="#000000" stroke="#000000" points="245.1774,-291.5346 234.5848,-291.7497 242.9996,-298.1872 245.1774,-291.5346"/>
</g>
<!-- generate_ppi_labels&#45;&gt;combine_features -->
<g id="edge4" class="edge">
<title>generate_ppi_labels&#45;&gt;combine_features</title>
<path fill="none" stroke="#000000" d="M439.9089,-331.3379C451.8985,-322.0818 464.5069,-309.6698 471,-295 477.6558,-279.9627 477.6558,-273.0373 471,-258 465.9273,-246.5392 457.122,-236.4565 447.7954,-228.1801"/>
<polygon fill="#000000" stroke="#000000" points="449.8468,-225.3348 439.9089,-221.6621 445.3874,-230.7306 449.8468,-225.3348"/>
</g>
<!-- generate_ppi_labels&#45;&gt;generate_pc7 -->
<g id="edge14" class="edge">
<title>generate_ppi_labels&#45;&gt;generate_pc7</title>
<path fill="none" stroke="#000000" d="M383.0674,-331.4551C368.399,-321.979 350.2444,-310.2508 334.4786,-300.0658"/>
<polygon fill="#000000" stroke="#000000" points="336.3018,-297.0769 326.0029,-294.5904 332.5034,-302.9566 336.3018,-297.0769"/>
</g>
<!-- generate_ppi_labels&#45;&gt;generate_psp19 -->
<g id="edge16" class="edge">
<title>generate_ppi_labels&#45;&gt;generate_psp19</title>
<path fill="none" stroke="#000000" d="M411,-331.4551C411,-323.3828 411,-313.6764 411,-304.6817"/>
<polygon fill="#000000" stroke="#000000" points="414.5001,-304.5903 411,-294.5904 407.5001,-304.5904 414.5001,-304.5903"/>
</g>
<!-- combine_labels -->
<g id="node7" class="node">
<title>combine_labels</title>
<polygon fill="#fafad2" stroke="#000000" points="518,-258.5 518,-294.5 620,-294.5 620,-258.5 518,-258.5"/>
<text text-anchor="middle" x="569" y="-272.8" font-family="Times,serif" font-size="14.00" fill="#000000">combine_labels</text>
</g>
<!-- generate_ppi_labels&#45;&gt;combine_labels -->
<g id="edge6" class="edge">
<title>generate_ppi_labels&#45;&gt;combine_labels</title>
<path fill="none" stroke="#000000" d="M450.0562,-331.4551C471.4206,-321.5841 498.0742,-309.2695 520.7321,-298.801"/>
<polygon fill="#000000" stroke="#000000" points="522.2356,-301.9619 529.8455,-294.5904 519.2996,-295.6074 522.2356,-301.9619"/>
</g>
<!-- generate_dssp_labels -->
<g id="node6" class="node">
<title>generate_dssp_labels</title>
<polygon fill="#fafad2" stroke="#000000" points="503.5,-331.5 503.5,-367.5 634.5,-367.5 634.5,-331.5 503.5,-331.5"/>
<text text-anchor="middle" x="569" y="-345.8" font-family="Times,serif" font-size="14.00" fill="#000000">generate_dssp_labels</text>
</g>
<!-- generate_dssp_labels&#45;&gt;combine_labels -->
<g id="edge5" class="edge">
<title>generate_dssp_labels&#45;&gt;combine_labels</title>
<path fill="none" stroke="#000000" d="M569,-331.4551C569,-323.3828 569,-313.6764 569,-304.6817"/>
<polygon fill="#000000" stroke="#000000" points="572.5001,-304.5903 569,-294.5904 565.5001,-304.5904 572.5001,-304.5903"/>
</g>
<!-- combine_labels&#45;&gt;train_epitope_prediction_model -->
<g id="edge17" class="edge">
<title>combine_labels&#45;&gt;train_epitope_prediction_model</title>
<path fill="none" stroke="#000000" d="M555.5401,-258.3042C536.7038,-232.8403 502.3587,-186.4108 480.6589,-157.0759"/>
<polygon fill="#000000" stroke="#000000" points="483.3904,-154.8831 474.6295,-148.9251 477.7628,-159.0461 483.3904,-154.8831"/>
</g>
<!-- generate_epitope_labels -->
<g id="node8" class="node">
<title>generate_epitope_labels</title>
<polygon fill="#fafad2" stroke="#000000" points="653,-331.5 653,-367.5 799,-367.5 799,-331.5 653,-331.5"/>
<text text-anchor="middle" x="726" y="-345.8" font-family="Times,serif" font-size="14.00" fill="#000000">generate_epitope_labels</text>
</g>
<!-- generate_epitope_labels&#45;&gt;combine_labels -->
<g id="edge7" class="edge">
<title>generate_epitope_labels&#45;&gt;combine_labels</title>
<path fill="none" stroke="#000000" d="M687.191,-331.4551C666.0561,-321.628 639.7122,-309.3789 617.2629,-298.9407"/>
<polygon fill="#000000" stroke="#000000" points="618.4501,-295.6329 607.9067,-294.5904 615.4987,-301.9803 618.4501,-295.6329"/>
</g>
<!-- download_pdb_files -->
<g id="node9" class="node">
<title>download_pdb_files</title>
<polygon fill="#fafad2" stroke="#000000" points="524.5,-477.5 524.5,-513.5 649.5,-513.5 649.5,-477.5 524.5,-477.5"/>
<text text-anchor="middle" x="587" y="-491.8" font-family="Times,serif" font-size="14.00" fill="#000000">download_pdb_files</text>
</g>
<!-- decompress_pdb_files -->
<g id="node10" class="node">
<title>decompress_pdb_files</title>
<polygon fill="#fafad2" stroke="#000000" points="514.5,-404.5 514.5,-440.5 651.5,-440.5 651.5,-404.5 514.5,-404.5"/>
<text text-anchor="middle" x="583" y="-418.8" font-family="Times,serif" font-size="14.00" fill="#000000">decompress_pdb_files</text>
</g>
<!-- download_pdb_files&#45;&gt;decompress_pdb_files -->
<g id="edge8" class="edge">
<title>download_pdb_files&#45;&gt;decompress_pdb_files</title>
<path fill="none" stroke="#000000" d="M586.0112,-477.4551C585.5689,-469.3828 585.0371,-459.6764 584.5442,-450.6817"/>
<polygon fill="#000000" stroke="#000000" points="588.0332,-450.3839 583.9913,-440.5904 581.0437,-450.7669 588.0332,-450.3839"/>
</g>
<!-- decompress_pdb_files&#45;&gt;generate_ppi_labels -->
<g id="edge15" class="edge">
<title>decompress_pdb_files&#45;&gt;generate_ppi_labels</title>
<path fill="none" stroke="#000000" d="M540.4831,-404.4551C517.0189,-394.4964 487.6941,-382.0504 462.8881,-371.5223"/>
<polygon fill="#000000" stroke="#000000" points="464.1965,-368.2755 453.6239,-367.5904 461.4617,-374.7191 464.1965,-368.2755"/>
</g>
<!-- decompress_pdb_files&#45;&gt;generate_dssp_labels -->
<g id="edge10" class="edge">
<title>decompress_pdb_files&#45;&gt;generate_dssp_labels</title>
<path fill="none" stroke="#000000" d="M579.5393,-404.4551C577.9912,-396.3828 576.1297,-386.6764 574.4047,-377.6817"/>
<polygon fill="#000000" stroke="#000000" points="577.7903,-376.7521 572.4694,-367.5904 570.9156,-378.0706 577.7903,-376.7521"/>
</g>
<!-- decompress_pdb_files&#45;&gt;generate_epitope_labels -->
<g id="edge12" class="edge">
<title>decompress_pdb_files&#45;&gt;generate_epitope_labels</title>
<path fill="none" stroke="#000000" d="M618.3483,-404.4551C637.4267,-394.7157 661.1652,-382.5975 681.4923,-372.2207"/>
<polygon fill="#000000" stroke="#000000" points="683.2475,-375.2544 690.5627,-367.5904 680.0647,-369.0198 683.2475,-375.2544"/>
</g>
<!-- run_pdb_query -->
<g id="node11" class="node">
<title>run_pdb_query</title>
<polygon fill="#fafad2" stroke="#000000" points="544.5,-550.5 544.5,-586.5 643.5,-586.5 643.5,-550.5 544.5,-550.5"/>
<text text-anchor="middle" x="594" y="-564.8" font-family="Times,serif" font-size="14.00" fill="#000000">run_pdb_query</text>
</g>
<!-- run_pdb_query&#45;&gt;download_pdb_files -->
<g id="edge9" class="edge">
<title>run_pdb_query&#45;&gt;download_pdb_files</title>
<path fill="none" stroke="#000000" d="M592.2697,-550.4551C591.4956,-542.3828 590.5649,-532.6764 589.7024,-523.6817"/>
<polygon fill="#000000" stroke="#000000" points="593.1733,-523.2106 588.7347,-513.5904 586.2053,-523.8788 593.1733,-523.2106"/>
</g>
<!-- preprocess_sabdab_data -->
<g id="node12" class="node">
<title>preprocess_sabdab_data</title>
<polygon fill="#fafad2" stroke="#000000" points="673,-550.5 673,-586.5 821,-586.5 821,-550.5 673,-550.5"/>
<text text-anchor="middle" x="747" y="-564.8" font-family="Times,serif" font-size="14.00" fill="#000000">preprocess_sabdab_data</text>
</g>
<!-- preprocess_sabdab_data&#45;&gt;generate_epitope_labels -->
<g id="edge11" class="edge">
<title>preprocess_sabdab_data&#45;&gt;generate_epitope_labels</title>
<path fill="none" stroke="#000000" d="M745.2457,-550.2049C741.577,-511.9458 733.0731,-423.2623 728.7016,-377.6742"/>
<polygon fill="#000000" stroke="#000000" points="732.1732,-377.2093 727.7346,-367.589 725.2052,-377.8775 732.1732,-377.2093"/>
</g>
<!-- model_output -->
<g id="node20" class="node">
<title>model_output</title>
<polygon fill="#94ddf4" stroke="#000000" points="415,-39.5 415,-75.5 507,-75.5 507,-39.5 415,-39.5"/>
<text text-anchor="middle" x="461" y="-53.8" font-family="Times,serif" font-size="14.00" fill="#000000">model_output</text>
</g>
<!-- train_epitope_prediction_model&#45;&gt;model_output -->
<g id="edge25" class="edge">
<title>train_epitope_prediction_model&#45;&gt;model_output</title>
<path fill="none" stroke="#000000" d="M461,-112.4551C461,-104.3828 461,-94.6764 461,-85.6817"/>
<polygon fill="#000000" stroke="#000000" points="464.5001,-85.5903 461,-75.5904 457.5001,-85.5904 464.5001,-85.5903"/>
</g>
<!-- hhblits_db_dir -->
<g id="node14" class="node">
<title>hhblits_db_dir</title>
<polygon fill="#94ddf4" stroke="#000000" points="16.5,-626.5 16.5,-662.5 111.5,-662.5 111.5,-626.5 16.5,-626.5"/>
<text text-anchor="middle" x="64" y="-640.8" font-family="Times,serif" font-size="14.00" fill="#000000">hhblits_db_dir</text>
</g>
<!-- hhblits_db_dir&#45;&gt;generate_hhm -->
<g id="edge19" class="edge">
<title>hhblits_db_dir&#45;&gt;generate_hhm</title>
<path fill="none" stroke="#000000" d="M72.4952,-626.1313C84.5044,-598.438 105,-544.0614 105,-495.5 105,-495.5 105,-495.5 105,-422.5 105,-375.529 137.8683,-329.8581 162.2376,-302.4517"/>
<polygon fill="#000000" stroke="#000000" points="164.9936,-304.6245 169.166,-294.8859 159.8312,-299.897 164.9936,-304.6245"/>
</g>
<!-- hhblits_db_name -->
<g id="node15" class="node">
<title>hhblits_db_name</title>
<polygon fill="#94ddf4" stroke="#000000" points="130,-626.5 130,-662.5 240,-662.5 240,-626.5 130,-626.5"/>
<text text-anchor="middle" x="185" y="-640.8" font-family="Times,serif" font-size="14.00" fill="#000000">hhblits_db_name</text>
</g>
<!-- hhblits_db_name&#45;&gt;generate_hhm -->
<g id="edge20" class="edge">
<title>hhblits_db_name&#45;&gt;generate_hhm</title>
<path fill="none" stroke="#000000" d="M185.2024,-626.1495C185.4946,-598.028 186,-542.5809 186,-495.5 186,-495.5 186,-495.5 186,-422.5 186,-381.8149 186.7861,-334.7584 187.3726,-305.3108"/>
<polygon fill="#000000" stroke="#000000" points="190.8795,-305.0066 187.5856,-294.9368 183.881,-304.8629 190.8795,-305.0066"/>
</g>
<!-- biodl_test_dataset -->
<g id="node16" class="node">
<title>biodl_test_dataset</title>
<polygon fill="#94ddf4" stroke="#000000" points="258,-626.5 258,-662.5 372,-662.5 372,-626.5 258,-626.5"/>
<text text-anchor="middle" x="315" y="-640.8" font-family="Times,serif" font-size="14.00" fill="#000000">biodl_test_dataset</text>
</g>
<!-- biodl_test_dataset&#45;&gt;generate_ppi_labels -->
<g id="edge21" class="edge">
<title>biodl_test_dataset&#45;&gt;generate_ppi_labels</title>
<path fill="none" stroke="#000000" d="M320.8607,-626.4905C337.062,-576.7055 382.5383,-436.9606 401.9901,-377.1868"/>
<polygon fill="#000000" stroke="#000000" points="405.3276,-378.2409 405.094,-367.6486 398.6712,-376.0747 405.3276,-378.2409"/>
</g>
<!-- biodl_train_dataset -->
<g id="node17" class="node">
<title>biodl_train_dataset</title>
<polygon fill="#94ddf4" stroke="#000000" points="390,-626.5 390,-662.5 510,-662.5 510,-626.5 390,-626.5"/>
<text text-anchor="middle" x="450" y="-640.8" font-family="Times,serif" font-size="14.00" fill="#000000">biodl_train_dataset</text>
</g>
<!-- biodl_train_dataset&#45;&gt;generate_ppi_labels -->
<g id="edge22" class="edge">
<title>biodl_train_dataset&#45;&gt;generate_ppi_labels</title>
<path fill="none" stroke="#000000" d="M447.6191,-626.4905C441.0645,-576.9112 422.7151,-438.1139 414.7588,-377.9318"/>
<polygon fill="#000000" stroke="#000000" points="418.1798,-377.1036 413.3993,-367.6486 411.2402,-378.0211 418.1798,-377.1036"/>
</g>
<!-- sabdab_summary_file -->
<g id="node18" class="node">
<title>sabdab_summary_file</title>
<polygon fill="#94ddf4" stroke="#000000" points="685.5,-626.5 685.5,-662.5 822.5,-662.5 822.5,-626.5 685.5,-626.5"/>
<text text-anchor="middle" x="754" y="-640.8" font-family="Times,serif" font-size="14.00" fill="#000000">sabdab_summary_file</text>
</g>
<!-- sabdab_summary_file&#45;&gt;preprocess_sabdab_data -->
<g id="edge23" class="edge">
<title>sabdab_summary_file&#45;&gt;preprocess_sabdab_data</title>
<path fill="none" stroke="#000000" d="M752.3411,-626.4891C751.5276,-617.6566 750.5285,-606.8099 749.6155,-596.8965"/>
<polygon fill="#000000" stroke="#000000" points="753.0738,-596.2818 748.6713,-586.645 746.1033,-596.9239 753.0738,-596.2818"/>
</g>
<!-- pdb_search_api_query -->
<g id="node19" class="node">
<title>pdb_search_api_query</title>
<polygon fill="#94ddf4" stroke="#000000" points="528.5,-626.5 528.5,-662.5 667.5,-662.5 667.5,-626.5 528.5,-626.5"/>
<text text-anchor="middle" x="598" y="-640.8" font-family="Times,serif" font-size="14.00" fill="#000000">pdb_search_api_query</text>
</g>
<!-- pdb_search_api_query&#45;&gt;run_pdb_query -->
<g id="edge24" class="edge">
<title>pdb_search_api_query&#45;&gt;run_pdb_query</title>
<path fill="none" stroke="#000000" d="M597.0521,-626.4891C596.5872,-617.6566 596.0163,-606.8099 595.4946,-596.8965"/>
<polygon fill="#000000" stroke="#000000" points="598.9758,-596.4472 594.955,-586.645 591.9855,-596.8152 598.9758,-596.4472"/>
</g>
</g>
</svg>
