<?xml version="1.0" encoding="UTF-8" standalone="no"?>
<!DOCTYPE svg PUBLIC "-//W3C//DTD SVG 1.1//EN"
 "http://www.w3.org/Graphics/SVG/1.1/DTD/svg11.dtd">
<!-- Generated by graphviz version 3.0.0 (20220226.1711)
 -->
<!-- Title: G Pages: 1 -->
<svg width="554pt" height="760pt"
 viewBox="0.00 0.00 554.00 760.00" xmlns="http://www.w3.org/2000/svg" xmlns:xlink="http://www.w3.org/1999/xlink">
<g id="graph0" class="graph" transform="scale(1 1) rotate(0) translate(4 756)">
<title>G</title>
<polygon fill="#eeeeee" stroke="transparent" points="-4,4 -4,-756 550,-756 550,4 -4,4"/>
<g id="clust1" class="cluster">
<title>cluster_inputs</title>
<polygon fill="#eeeeee" stroke="black" stroke-dasharray="5,2" points="22,-668 22,-744 538,-744 538,-668 22,-668"/>
<text text-anchor="middle" x="483.5" y="-675.8" font-family="Times,serif" font-size="14.00">Workflow Inputs</text>
</g>
<g id="clust2" class="cluster">
<title>cluster_outputs</title>
<polygon fill="#eeeeee" stroke="black" stroke-dasharray="5,2" points="338,-8 338,-84 456,-84 456,-8 338,-8"/>
<text text-anchor="middle" x="397" y="-15.8" font-family="Times,serif" font-size="14.00">Workflow Outputs</text>
</g>
<!-- generate_psp19 -->
<g id="node1" class="node">
<title>generate_psp19</title>
<polygon fill="none" stroke="black" stroke-dasharray="5,2" points="365.5,-258.5 365.5,-294.5 466.5,-294.5 466.5,-258.5 365.5,-258.5"/>
<text text-anchor="middle" x="416" y="-272.8" font-family="Times,serif" font-size="14.00">generate_psp19</text>
</g>
<!-- combine_features -->
<g id="node2" class="node">
<title>combine_features</title>
<polygon fill="none" stroke="black" stroke-dasharray="5,2" points="243.5,-185.5 243.5,-221.5 356.5,-221.5 356.5,-185.5 243.5,-185.5"/>
<text text-anchor="middle" x="300" y="-199.8" font-family="Times,serif" font-size="14.00">combine_features</text>
</g>
<!-- generate_psp19&#45;&gt;combine_features -->
<g id="edge1" class="edge">
<title>generate_psp19&#45;&gt;combine_features</title>
<path fill="none" stroke="black" d="M388.22,-258.49C372.83,-249.08 353.52,-237.26 336.88,-227.07"/>
<polygon fill="black" stroke="black" points="338.32,-223.85 327.96,-221.61 334.66,-229.82 338.32,-223.85"/>
</g>
<!-- train_epitope_prediction_model -->
<g id="node14" class="node">
<title>train_epitope_prediction_model</title>
<polygon fill="none" stroke="black" stroke-dasharray="5,2" points="301.5,-112.5 301.5,-148.5 492.5,-148.5 492.5,-112.5 301.5,-112.5"/>
<text text-anchor="middle" x="397" y="-126.8" font-family="Times,serif" font-size="14.00">train_epitope_prediction_model</text>
</g>
<!-- combine_features&#45;&gt;train_epitope_prediction_model -->
<g id="edge18" class="edge">
<title>combine_features&#45;&gt;train_epitope_prediction_model</title>
<path fill="none" stroke="black" d="M323.48,-185.31C336.11,-176.07 351.86,-164.54 365.53,-154.53"/>
<polygon fill="black" stroke="black" points="367.73,-157.26 373.74,-148.53 363.6,-151.61 367.73,-157.26"/>
</g>
<!-- combine_labels -->
<g id="node3" class="node">
<title>combine_labels</title>
<polygon fill="none" stroke="black" stroke-dasharray="5,2" points="249,-331.5 249,-367.5 351,-367.5 351,-331.5 249,-331.5"/>
<text text-anchor="middle" x="300" y="-345.8" font-family="Times,serif" font-size="14.00">combine_labels</text>
</g>
<!-- combine_labels&#45;&gt;generate_psp19 -->
<g id="edge17" class="edge">
<title>combine_labels&#45;&gt;generate_psp19</title>
<path fill="none" stroke="black" d="M327.78,-331.49C343.17,-322.08 362.48,-310.26 379.12,-300.07"/>
<polygon fill="black" stroke="black" points="381.34,-302.82 388.04,-294.61 377.68,-296.85 381.34,-302.82"/>
</g>
<!-- combine_labels&#45;&gt;combine_features -->
<g id="edge2" class="edge">
<title>combine_labels&#45;&gt;combine_features</title>
<path fill="none" stroke="black" d="M248.62,-346.87C210.73,-342.64 161.5,-330.15 136,-295 105.76,-253.32 175.67,-228.58 233.41,-215.77"/>
<polygon fill="black" stroke="black" points="234.23,-219.17 243.28,-213.66 232.77,-212.32 234.23,-219.17"/>
</g>
<!-- generate_pc7 -->
<g id="node4" class="node">
<title>generate_pc7</title>
<polygon fill="none" stroke="black" stroke-dasharray="5,2" points="145.5,-258.5 145.5,-294.5 234.5,-294.5 234.5,-258.5 145.5,-258.5"/>
<text text-anchor="middle" x="190" y="-272.8" font-family="Times,serif" font-size="14.00">generate_pc7</text>
</g>
<!-- combine_labels&#45;&gt;generate_pc7 -->
<g id="edge15" class="edge">
<title>combine_labels&#45;&gt;generate_pc7</title>
<path fill="none" stroke="black" d="M273.65,-331.49C259.07,-322.08 240.75,-310.26 224.98,-300.07"/>
<polygon fill="black" stroke="black" points="226.81,-297.1 216.51,-294.61 223.02,-302.98 226.81,-297.1"/>
</g>
<!-- generate_hhm -->
<g id="node5" class="node">
<title>generate_hhm</title>
<polygon fill="none" stroke="black" stroke-dasharray="5,2" points="253,-258.5 253,-294.5 347,-294.5 347,-258.5 253,-258.5"/>
<text text-anchor="middle" x="300" y="-272.8" font-family="Times,serif" font-size="14.00">generate_hhm</text>
</g>
<!-- combine_labels&#45;&gt;generate_hhm -->
<g id="edge14" class="edge">
<title>combine_labels&#45;&gt;generate_hhm</title>
<path fill="none" stroke="black" d="M300,-331.31C300,-323.29 300,-313.55 300,-304.57"/>
<polygon fill="black" stroke="black" points="303.5,-304.53 300,-294.53 296.5,-304.53 303.5,-304.53"/>
</g>
<!-- combine_labels&#45;&gt;train_epitope_prediction_model -->
<g id="edge19" class="edge">
<title>combine_labels&#45;&gt;train_epitope_prediction_model</title>
<path fill="none" stroke="black" d="M351.28,-348.34C392.32,-345.16 447.57,-333.36 476,-295 509.25,-250.14 458.68,-189.1 424.36,-155.73"/>
<polygon fill="black" stroke="black" points="426.56,-153 416.89,-148.66 421.74,-158.08 426.56,-153"/>
</g>
<!-- generate_pc7&#45;&gt;combine_features -->
<g id="edge3" class="edge">
<title>generate_pc7&#45;&gt;combine_features</title>
<path fill="none" stroke="black" d="M216.35,-258.49C230.93,-249.08 249.25,-237.26 265.02,-227.07"/>
<polygon fill="black" stroke="black" points="266.98,-229.98 273.49,-221.61 263.19,-224.1 266.98,-229.98"/>
</g>
<!-- generate_hhm&#45;&gt;combine_features -->
<g id="edge4" class="edge">
<title>generate_hhm&#45;&gt;combine_features</title>
<path fill="none" stroke="black" d="M300,-258.31C300,-250.29 300,-240.55 300,-231.57"/>
<polygon fill="black" stroke="black" points="303.5,-231.53 300,-221.53 296.5,-231.53 303.5,-231.53"/>
</g>
<!-- generate_dssp_labels -->
<g id="node6" class="node">
<title>generate_dssp_labels</title>
<polygon fill="none" stroke="black" stroke-dasharray="5,2" points="77.5,-404.5 77.5,-440.5 208.5,-440.5 208.5,-404.5 77.5,-404.5"/>
<text text-anchor="middle" x="143" y="-418.8" font-family="Times,serif" font-size="14.00">generate_dssp_labels</text>
</g>
<!-- generate_dssp_labels&#45;&gt;combine_labels -->
<g id="edge5" class="edge">
<title>generate_dssp_labels&#45;&gt;combine_labels</title>
<path fill="none" stroke="black" d="M180.61,-404.49C202.29,-394.69 229.76,-382.27 252.88,-371.81"/>
<polygon fill="black" stroke="black" points="254.49,-374.92 262.16,-367.61 251.6,-368.55 254.49,-374.92"/>
</g>
<!-- generate_epitope_labels -->
<g id="node7" class="node">
<title>generate_epitope_labels</title>
<polygon fill="none" stroke="black" stroke-dasharray="5,2" points="226.5,-404.5 226.5,-440.5 373.5,-440.5 373.5,-404.5 226.5,-404.5"/>
<text text-anchor="middle" x="300" y="-418.8" font-family="Times,serif" font-size="14.00">generate_epitope_labels</text>
</g>
<!-- generate_epitope_labels&#45;&gt;combine_labels -->
<g id="edge6" class="edge">
<title>generate_epitope_labels&#45;&gt;combine_labels</title>
<path fill="none" stroke="black" d="M300,-404.31C300,-396.29 300,-386.55 300,-377.57"/>
<polygon fill="black" stroke="black" points="303.5,-377.53 300,-367.53 296.5,-377.53 303.5,-377.53"/>
</g>
<!-- generate_ppi_labels -->
<g id="node8" class="node">
<title>generate_ppi_labels</title>
<polygon fill="none" stroke="black" stroke-dasharray="5,2" points="391.5,-404.5 391.5,-440.5 516.5,-440.5 516.5,-404.5 391.5,-404.5"/>
<text text-anchor="middle" x="454" y="-418.8" font-family="Times,serif" font-size="14.00">generate_ppi_labels</text>
</g>
<!-- generate_ppi_labels&#45;&gt;combine_labels -->
<g id="edge7" class="edge">
<title>generate_ppi_labels&#45;&gt;combine_labels</title>
<path fill="none" stroke="black" d="M417.11,-404.49C395.84,-394.69 368.9,-382.27 346.22,-371.81"/>
<polygon fill="black" stroke="black" points="347.67,-368.62 337.12,-367.61 344.74,-374.98 347.67,-368.62"/>
</g>
<!-- download_pdb_files -->
<g id="node9" class="node">
<title>download_pdb_files</title>
<polygon fill="lightgoldenrodyellow" stroke="black" points="159.5,-550.5 159.5,-586.5 286.5,-586.5 286.5,-550.5 159.5,-550.5"/>
<text text-anchor="middle" x="223" y="-564.8" font-family="Times,serif" font-size="14.00">download_pdb_files</text>
</g>
<!-- decompress_mmcif_files -->
<g id="node10" class="node">
<title>decompress_mmcif_files</title>
<polygon fill="none" stroke="black" stroke-dasharray="5,2" points="251.5,-477.5 251.5,-513.5 406.5,-513.5 406.5,-477.5 251.5,-477.5"/>
<text text-anchor="middle" x="329" y="-491.8" font-family="Times,serif" font-size="14.00">decompress_mmcif_files</text>
</g>
<!-- download_pdb_files&#45;&gt;decompress_mmcif_files -->
<g id="edge8" class="edge">
<title>download_pdb_files&#45;&gt;decompress_mmcif_files</title>
<path fill="none" stroke="black" d="M248.39,-550.49C262.32,-541.17 279.77,-529.47 294.87,-519.36"/>
<polygon fill="black" stroke="black" points="297.09,-522.09 303.45,-513.61 293.19,-516.27 297.09,-522.09"/>
</g>
<!-- decompress_pdb_files -->
<g id="node11" class="node">
<title>decompress_pdb_files</title>
<polygon fill="none" stroke="black" stroke-dasharray="5,2" points="95,-477.5 95,-513.5 233,-513.5 233,-477.5 95,-477.5"/>
<text text-anchor="middle" x="164" y="-491.8" font-family="Times,serif" font-size="14.00">decompress_pdb_files</text>
</g>
<!-- download_pdb_files&#45;&gt;decompress_pdb_files -->
<g id="edge9" class="edge">
<title>download_pdb_files&#45;&gt;decompress_pdb_files</title>
<path fill="none" stroke="black" d="M208.72,-550.31C201.47,-541.59 192.54,-530.84 184.56,-521.25"/>
<polygon fill="black" stroke="black" points="187.23,-518.98 178.15,-513.53 181.85,-523.46 187.23,-518.98"/>
</g>
<!-- decompress_mmcif_files&#45;&gt;generate_epitope_labels -->
<g id="edge13" class="edge">
<title>decompress_mmcif_files&#45;&gt;generate_epitope_labels</title>
<path fill="none" stroke="black" d="M321.98,-477.31C318.63,-469.12 314.55,-459.12 310.82,-449.98"/>
<polygon fill="black" stroke="black" points="313.98,-448.46 306.96,-440.53 307.5,-451.11 313.98,-448.46"/>
</g>
<!-- decompress_mmcif_files&#45;&gt;generate_ppi_labels -->
<g id="edge16" class="edge">
<title>decompress_mmcif_files&#45;&gt;generate_ppi_labels</title>
<path fill="none" stroke="black" d="M358.94,-477.49C375.67,-467.99 396.72,-456.04 414.75,-445.79"/>
<polygon fill="black" stroke="black" points="416.9,-448.6 423.87,-440.61 413.45,-442.51 416.9,-448.6"/>
</g>
<!-- decompress_pdb_files&#45;&gt;generate_dssp_labels -->
<g id="edge11" class="edge">
<title>decompress_pdb_files&#45;&gt;generate_dssp_labels</title>
<path fill="none" stroke="black" d="M158.92,-477.31C156.52,-469.2 153.6,-459.34 150.92,-450.28"/>
<polygon fill="black" stroke="black" points="154.23,-449.13 148.04,-440.53 147.52,-451.11 154.23,-449.13"/>
</g>
<!-- run_pdb_query -->
<g id="node12" class="node">
<title>run_pdb_query</title>
<polygon fill="none" stroke="black" stroke-dasharray="5,2" points="173.5,-623.5 173.5,-659.5 272.5,-659.5 272.5,-623.5 173.5,-623.5"/>
<text text-anchor="middle" x="223" y="-637.8" font-family="Times,serif" font-size="14.00">run_pdb_query</text>
</g>
<!-- run_pdb_query&#45;&gt;download_pdb_files -->
<g id="edge10" class="edge">
<title>run_pdb_query&#45;&gt;download_pdb_files</title>
<path fill="none" stroke="black" d="M223,-623.31C223,-615.29 223,-605.55 223,-596.57"/>
<polygon fill="black" stroke="black" points="226.5,-596.53 223,-586.53 219.5,-596.53 226.5,-596.53"/>
</g>
<!-- preprocess_sabdab_data -->
<g id="node13" class="node">
<title>preprocess_sabdab_data</title>
<polygon fill="none" stroke="black" stroke-dasharray="5,2" points="0,-623.5 0,-659.5 148,-659.5 148,-623.5 0,-623.5"/>
<text text-anchor="middle" x="74" y="-637.8" font-family="Times,serif" font-size="14.00">preprocess_sabdab_data</text>
</g>
<!-- preprocess_sabdab_data&#45;&gt;generate_epitope_labels -->
<g id="edge12" class="edge">
<title>preprocess_sabdab_data&#45;&gt;generate_epitope_labels</title>
<path fill="none" stroke="black" d="M69.4,-623.3C61.77,-590.62 50.63,-519.03 86,-477 90.46,-471.7 158.19,-455.31 216.27,-442.06"/>
<polygon fill="black" stroke="black" points="217.26,-445.42 226.24,-439.79 215.71,-438.6 217.26,-445.42"/>
</g>
<!-- predictions -->
<g id="node19" class="node">
<title>predictions</title>
<polygon fill="#94ddf4" stroke="black" points="358.5,-39.5 358.5,-75.5 435.5,-75.5 435.5,-39.5 358.5,-39.5"/>
<text text-anchor="middle" x="397" y="-53.8" font-family="Times,serif" font-size="14.00">predictions</text>
</g>
<!-- train_epitope_prediction_model&#45;&gt;predictions -->
<g id="edge24" class="edge">
<title>train_epitope_prediction_model&#45;&gt;predictions</title>
<path fill="none" stroke="black" d="M397,-112.31C397,-104.29 397,-94.55 397,-85.57"/>
<polygon fill="black" stroke="black" points="400.5,-85.53 397,-75.53 393.5,-85.53 400.5,-85.53"/>
</g>
<!-- biodl_test_dataset -->
<g id="node15" class="node">
<title>biodl_test_dataset</title>
<polygon fill="#94ddf4" stroke="black" points="416,-699.5 416,-735.5 530,-735.5 530,-699.5 416,-699.5"/>
<text text-anchor="middle" x="473" y="-713.8" font-family="Times,serif" font-size="14.00">biodl_test_dataset</text>
</g>
<!-- biodl_test_dataset&#45;&gt;generate_ppi_labels -->
<g id="edge20" class="edge">
<title>biodl_test_dataset&#45;&gt;generate_ppi_labels</title>
<path fill="none" stroke="black" d="M471.9,-699.48C468.74,-650.73 459.63,-510.26 455.76,-450.7"/>
<polygon fill="black" stroke="black" points="459.25,-450.32 455.11,-440.57 452.26,-450.77 459.25,-450.32"/>
</g>
<!-- biodl_train_dataset -->
<g id="node16" class="node">
<title>biodl_train_dataset</title>
<polygon fill="#94ddf4" stroke="black" points="278,-699.5 278,-735.5 398,-735.5 398,-699.5 278,-699.5"/>
<text text-anchor="middle" x="338" y="-713.8" font-family="Times,serif" font-size="14.00">biodl_train_dataset</text>
</g>
<!-- biodl_train_dataset&#45;&gt;generate_ppi_labels -->
<g id="edge21" class="edge">
<title>biodl_train_dataset&#45;&gt;generate_ppi_labels</title>
<path fill="none" stroke="black" d="M344.74,-699.48C364.12,-650.53 420.12,-509.09 443.52,-449.97"/>
<polygon fill="black" stroke="black" points="446.82,-451.15 447.24,-440.57 440.31,-448.58 446.82,-451.15"/>
</g>
<!-- sabdab_summary_file -->
<g id="node17" class="node">
<title>sabdab_summary_file</title>
<polygon fill="#94ddf4" stroke="black" points="30.5,-699.5 30.5,-735.5 167.5,-735.5 167.5,-699.5 30.5,-699.5"/>
<text text-anchor="middle" x="99" y="-713.8" font-family="Times,serif" font-size="14.00">sabdab_summary_file</text>
</g>
<!-- sabdab_summary_file&#45;&gt;preprocess_sabdab_data -->
<g id="edge22" class="edge">
<title>sabdab_summary_file&#45;&gt;preprocess_sabdab_data</title>
<path fill="none" stroke="black" d="M93.2,-699.34C90.17,-690.37 86.4,-679.2 83,-669.14"/>
<polygon fill="black" stroke="black" points="86.28,-667.92 79.77,-659.57 79.65,-670.16 86.28,-667.92"/>
</g>
<!-- pdb_query -->
<g id="node18" class="node">
<title>pdb_query</title>
<polygon fill="#94ddf4" stroke="black" points="186,-699.5 186,-735.5 260,-735.5 260,-699.5 186,-699.5"/>
<text text-anchor="middle" x="223" y="-713.8" font-family="Times,serif" font-size="14.00">pdb_query</text>
</g>
<!-- pdb_query&#45;&gt;run_pdb_query -->
<g id="edge23" class="edge">
<title>pdb_query&#45;&gt;run_pdb_query</title>
<path fill="none" stroke="black" d="M223,-699.34C223,-690.56 223,-679.66 223,-669.77"/>
<polygon fill="black" stroke="black" points="226.5,-669.57 223,-659.57 219.5,-669.57 226.5,-669.57"/>
</g>
</g>
</svg>
