<?xml version="1.0" encoding="UTF-8" standalone="no"?>
<!DOCTYPE svg PUBLIC "-//W3C//DTD SVG 1.1//EN"
 "http://www.w3.org/Graphics/SVG/1.1/DTD/svg11.dtd">
<!-- Generated by graphviz version 3.0.0 (20220226.1711)
 -->
<!-- Title: G Pages: 1 -->
<svg width="666pt" height="687pt"
 viewBox="0.00 0.00 666.00 687.00" xmlns="http://www.w3.org/2000/svg" xmlns:xlink="http://www.w3.org/1999/xlink">
<g id="graph0" class="graph" transform="scale(1 1) rotate(0) translate(4 683)">
<title>G</title>
<polygon fill="#eeeeee" stroke="transparent" points="-4,4 -4,-683 662,-683 662,4 -4,4"/>
<g id="clust1" class="cluster">
<title>cluster_inputs</title>
<polygon fill="#eeeeee" stroke="black" stroke-dasharray="5,2" points="23.5,-595 23.5,-671 539.5,-671 539.5,-595 23.5,-595"/>
<text text-anchor="middle" x="485" y="-602.8" font-family="Times,serif" font-size="14.00">Workflow Inputs</text>
</g>
<g id="clust2" class="cluster">
<title>cluster_outputs</title>
<polygon fill="#eeeeee" stroke="black" stroke-dasharray="5,2" points="266.5,-8 266.5,-84 384.5,-84 384.5,-8 266.5,-8"/>
<text text-anchor="middle" x="325.5" y="-15.8" font-family="Times,serif" font-size="14.00">Workflow Outputs</text>
</g>
<!-- generate_pc7 -->
<g id="node1" class="node">
<title>generate_pc7</title>
<polygon fill="none" stroke="black" stroke-dasharray="5,2" points="450,-258.5 450,-294.5 539,-294.5 539,-258.5 450,-258.5"/>
<text text-anchor="middle" x="494.5" y="-272.8" font-family="Times,serif" font-size="14.00">generate_pc7</text>
</g>
<!-- combine_features -->
<g id="node2" class="node">
<title>combine_features</title>
<polygon fill="none" stroke="black" stroke-dasharray="5,2" points="365,-185.5 365,-221.5 478,-221.5 478,-185.5 365,-185.5"/>
<text text-anchor="middle" x="421.5" y="-199.8" font-family="Times,serif" font-size="14.00">combine_features</text>
</g>
<!-- generate_pc7&#45;&gt;combine_features -->
<g id="edge1" class="edge">
<title>generate_pc7&#45;&gt;combine_features</title>
<path fill="none" stroke="black" d="M476.83,-258.31C467.68,-249.42 456.36,-238.41 446.35,-228.67"/>
<polygon fill="black" stroke="black" points="448.62,-225.99 439.01,-221.53 443.74,-231.01 448.62,-225.99"/>
</g>
<!-- train_epitope_prediction_model -->
<g id="node14" class="node">
<title>train_epitope_prediction_model</title>
<polygon fill="none" stroke="black" stroke-dasharray="5,2" points="230,-112.5 230,-148.5 421,-148.5 421,-112.5 230,-112.5"/>
<text text-anchor="middle" x="325.5" y="-126.8" font-family="Times,serif" font-size="14.00">train_epitope_prediction_model</text>
</g>
<!-- combine_features&#45;&gt;train_epitope_prediction_model -->
<g id="edge18" class="edge">
<title>combine_features&#45;&gt;train_epitope_prediction_model</title>
<path fill="none" stroke="black" d="M398.26,-185.31C385.76,-176.07 370.18,-164.54 356.64,-154.53"/>
<polygon fill="black" stroke="black" points="358.65,-151.66 348.52,-148.53 354.48,-157.29 358.65,-151.66"/>
</g>
<!-- generate_psp19 -->
<g id="node3" class="node">
<title>generate_psp19</title>
<polygon fill="none" stroke="black" stroke-dasharray="5,2" points="557,-258.5 557,-294.5 658,-294.5 658,-258.5 557,-258.5"/>
<text text-anchor="middle" x="607.5" y="-272.8" font-family="Times,serif" font-size="14.00">generate_psp19</text>
</g>
<!-- generate_psp19&#45;&gt;combine_features -->
<g id="edge2" class="edge">
<title>generate_psp19&#45;&gt;combine_features</title>
<path fill="none" stroke="black" d="M562.95,-258.49C536.8,-248.51 503.56,-235.82 475.87,-225.26"/>
<polygon fill="black" stroke="black" points="476.92,-221.91 466.33,-221.61 474.43,-228.45 476.92,-221.91"/>
</g>
<!-- generate_hhm -->
<g id="node4" class="node">
<title>generate_hhm</title>
<polygon fill="none" stroke="black" stroke-dasharray="5,2" points="299.5,-258.5 299.5,-294.5 393.5,-294.5 393.5,-258.5 299.5,-258.5"/>
<text text-anchor="middle" x="346.5" y="-272.8" font-family="Times,serif" font-size="14.00">generate_hhm</text>
</g>
<!-- generate_hhm&#45;&gt;combine_features -->
<g id="edge3" class="edge">
<title>generate_hhm&#45;&gt;combine_features</title>
<path fill="none" stroke="black" d="M364.66,-258.31C374.05,-249.42 385.68,-238.41 395.97,-228.67"/>
<polygon fill="black" stroke="black" points="398.66,-230.95 403.51,-221.53 393.84,-225.86 398.66,-230.95"/>
</g>
<!-- generate_ppi_labels -->
<g id="node5" class="node">
<title>generate_ppi_labels</title>
<polygon fill="none" stroke="black" stroke-dasharray="5,2" points="364,-331.5 364,-367.5 489,-367.5 489,-331.5 364,-331.5"/>
<text text-anchor="middle" x="426.5" y="-345.8" font-family="Times,serif" font-size="14.00">generate_ppi_labels</text>
</g>
<!-- generate_ppi_labels&#45;&gt;generate_pc7 -->
<g id="edge15" class="edge">
<title>generate_ppi_labels&#45;&gt;generate_pc7</title>
<path fill="none" stroke="black" d="M442.96,-331.31C451.4,-322.5 461.82,-311.63 471.08,-301.96"/>
<polygon fill="black" stroke="black" points="473.8,-304.17 478.19,-294.53 468.75,-299.33 473.8,-304.17"/>
</g>
<!-- generate_ppi_labels&#45;&gt;combine_features -->
<g id="edge4" class="edge">
<title>generate_ppi_labels&#45;&gt;combine_features</title>
<path fill="none" stroke="black" d="M425.91,-331.42C425.05,-306.84 423.47,-261.25 422.45,-231.93"/>
<polygon fill="black" stroke="black" points="425.94,-231.43 422.09,-221.56 418.94,-231.68 425.94,-231.43"/>
</g>
<!-- generate_ppi_labels&#45;&gt;generate_psp19 -->
<g id="edge17" class="edge">
<title>generate_ppi_labels&#45;&gt;generate_psp19</title>
<path fill="none" stroke="black" d="M469.85,-331.49C495.19,-321.56 527.36,-308.93 554.24,-298.39"/>
<polygon fill="black" stroke="black" points="555.84,-301.52 563.87,-294.61 553.28,-295.01 555.84,-301.52"/>
</g>
<!-- generate_ppi_labels&#45;&gt;generate_hhm -->
<g id="edge14" class="edge">
<title>generate_ppi_labels&#45;&gt;generate_hhm</title>
<path fill="none" stroke="black" d="M407.13,-331.31C397.01,-322.33 384.46,-311.19 373.41,-301.39"/>
<polygon fill="black" stroke="black" points="375.49,-298.55 365.69,-294.53 370.84,-303.78 375.49,-298.55"/>
</g>
<!-- combine_labels -->
<g id="node6" class="node">
<title>combine_labels</title>
<polygon fill="lightgoldenrodyellow" stroke="black" points="179.5,-258.5 179.5,-294.5 281.5,-294.5 281.5,-258.5 179.5,-258.5"/>
<text text-anchor="middle" x="230.5" y="-272.8" font-family="Times,serif" font-size="14.00">combine_labels</text>
</g>
<!-- generate_ppi_labels&#45;&gt;combine_labels -->
<g id="edge5" class="edge">
<title>generate_ppi_labels&#45;&gt;combine_labels</title>
<path fill="none" stroke="black" d="M379.55,-331.49C351.88,-321.47 316.66,-308.71 287.41,-298.12"/>
<polygon fill="black" stroke="black" points="288.34,-294.73 277.74,-294.61 285.95,-301.31 288.34,-294.73"/>
</g>
<!-- combine_labels&#45;&gt;train_epitope_prediction_model -->
<g id="edge19" class="edge">
<title>combine_labels&#45;&gt;train_epitope_prediction_model</title>
<path fill="none" stroke="black" d="M241.77,-258.42C258.34,-233.3 289.39,-186.23 308.67,-157.01"/>
<polygon fill="black" stroke="black" points="311.66,-158.84 314.24,-148.56 305.82,-154.98 311.66,-158.84"/>
</g>
<!-- generate_epitope_labels -->
<g id="node7" class="node">
<title>generate_epitope_labels</title>
<polygon fill="none" stroke="black" stroke-dasharray="5,2" points="0,-331.5 0,-367.5 147,-367.5 147,-331.5 0,-331.5"/>
<text text-anchor="middle" x="73.5" y="-345.8" font-family="Times,serif" font-size="14.00">generate_epitope_labels</text>
</g>
<!-- generate_epitope_labels&#45;&gt;combine_labels -->
<g id="edge6" class="edge">
<title>generate_epitope_labels&#45;&gt;combine_labels</title>
<path fill="none" stroke="black" d="M111.11,-331.49C132.79,-321.69 160.26,-309.27 183.38,-298.81"/>
<polygon fill="black" stroke="black" points="184.99,-301.92 192.66,-294.61 182.1,-295.55 184.99,-301.92"/>
</g>
<!-- generate_dssp_labels -->
<g id="node8" class="node">
<title>generate_dssp_labels</title>
<polygon fill="none" stroke="black" stroke-dasharray="5,2" points="165,-331.5 165,-367.5 296,-367.5 296,-331.5 165,-331.5"/>
<text text-anchor="middle" x="230.5" y="-345.8" font-family="Times,serif" font-size="14.00">generate_dssp_labels</text>
</g>
<!-- generate_dssp_labels&#45;&gt;combine_labels -->
<g id="edge7" class="edge">
<title>generate_dssp_labels&#45;&gt;combine_labels</title>
<path fill="none" stroke="black" d="M230.5,-331.31C230.5,-323.29 230.5,-313.55 230.5,-304.57"/>
<polygon fill="black" stroke="black" points="234,-304.53 230.5,-294.53 227,-304.53 234,-304.53"/>
</g>
<!-- download_pdb_files -->
<g id="node9" class="node">
<title>download_pdb_files</title>
<polygon fill="lightgoldenrodyellow" stroke="black" points="161,-477.5 161,-513.5 288,-513.5 288,-477.5 161,-477.5"/>
<text text-anchor="middle" x="224.5" y="-491.8" font-family="Times,serif" font-size="14.00">download_pdb_files</text>
</g>
<!-- decompress_mmcif_files -->
<g id="node10" class="node">
<title>decompress_mmcif_files</title>
<polygon fill="none" stroke="black" stroke-dasharray="5,2" points="253,-404.5 253,-440.5 408,-440.5 408,-404.5 253,-404.5"/>
<text text-anchor="middle" x="330.5" y="-418.8" font-family="Times,serif" font-size="14.00">decompress_mmcif_files</text>
</g>
<!-- download_pdb_files&#45;&gt;decompress_mmcif_files -->
<g id="edge8" class="edge">
<title>download_pdb_files&#45;&gt;decompress_mmcif_files</title>
<path fill="none" stroke="black" d="M249.89,-477.49C263.82,-468.17 281.27,-456.47 296.37,-446.36"/>
<polygon fill="black" stroke="black" points="298.59,-449.09 304.95,-440.61 294.69,-443.27 298.59,-449.09"/>
</g>
<!-- decompress_pdb_files -->
<g id="node11" class="node">
<title>decompress_pdb_files</title>
<polygon fill="none" stroke="black" stroke-dasharray="5,2" points="96.5,-404.5 96.5,-440.5 234.5,-440.5 234.5,-404.5 96.5,-404.5"/>
<text text-anchor="middle" x="165.5" y="-418.8" font-family="Times,serif" font-size="14.00">decompress_pdb_files</text>
</g>
<!-- download_pdb_files&#45;&gt;decompress_pdb_files -->
<g id="edge9" class="edge">
<title>download_pdb_files&#45;&gt;decompress_pdb_files</title>
<path fill="none" stroke="black" d="M210.22,-477.31C202.97,-468.59 194.04,-457.84 186.06,-448.25"/>
<polygon fill="black" stroke="black" points="188.73,-445.98 179.65,-440.53 183.35,-450.46 188.73,-445.98"/>
</g>
<!-- decompress_mmcif_files&#45;&gt;generate_ppi_labels -->
<g id="edge16" class="edge">
<title>decompress_mmcif_files&#45;&gt;generate_ppi_labels</title>
<path fill="none" stroke="black" d="M353.74,-404.31C366.24,-395.07 381.82,-383.54 395.36,-373.53"/>
<polygon fill="black" stroke="black" points="397.52,-376.29 403.48,-367.53 393.35,-370.66 397.52,-376.29"/>
</g>
<!-- decompress_mmcif_files&#45;&gt;generate_epitope_labels -->
<g id="edge12" class="edge">
<title>decompress_mmcif_files&#45;&gt;generate_epitope_labels</title>
<path fill="none" stroke="black" d="M268.94,-404.49C231.71,-394.21 184.07,-381.05 145.14,-370.29"/>
<polygon fill="black" stroke="black" points="146.02,-366.9 135.45,-367.61 144.15,-373.65 146.02,-366.9"/>
</g>
<!-- decompress_pdb_files&#45;&gt;generate_dssp_labels -->
<g id="edge11" class="edge">
<title>decompress_pdb_files&#45;&gt;generate_dssp_labels</title>
<path fill="none" stroke="black" d="M181.23,-404.31C189.3,-395.5 199.26,-384.63 208.11,-374.96"/>
<polygon fill="black" stroke="black" points="210.74,-377.27 214.91,-367.53 205.58,-372.54 210.74,-377.27"/>
</g>
<!-- run_pdb_query -->
<g id="node12" class="node">
<title>run_pdb_query</title>
<polygon fill="none" stroke="black" stroke-dasharray="5,2" points="175,-550.5 175,-586.5 274,-586.5 274,-550.5 175,-550.5"/>
<text text-anchor="middle" x="224.5" y="-564.8" font-family="Times,serif" font-size="14.00">run_pdb_query</text>
</g>
<!-- run_pdb_query&#45;&gt;download_pdb_files -->
<g id="edge10" class="edge">
<title>run_pdb_query&#45;&gt;download_pdb_files</title>
<path fill="none" stroke="black" d="M224.5,-550.31C224.5,-542.29 224.5,-532.55 224.5,-523.57"/>
<polygon fill="black" stroke="black" points="228,-523.53 224.5,-513.53 221,-523.53 228,-523.53"/>
</g>
<!-- preprocess_sabdab_data -->
<g id="node13" class="node">
<title>preprocess_sabdab_data</title>
<polygon fill="none" stroke="black" stroke-dasharray="5,2" points="1.5,-550.5 1.5,-586.5 149.5,-586.5 149.5,-550.5 1.5,-550.5"/>
<text text-anchor="middle" x="75.5" y="-564.8" font-family="Times,serif" font-size="14.00">preprocess_sabdab_data</text>
</g>
<!-- preprocess_sabdab_data&#45;&gt;generate_epitope_labels -->
<g id="edge13" class="edge">
<title>preprocess_sabdab_data&#45;&gt;generate_epitope_labels</title>
<path fill="none" stroke="black" d="M75.34,-550.47C75,-513.01 74.17,-423.18 73.75,-377.76"/>
<polygon fill="black" stroke="black" points="77.25,-377.72 73.66,-367.75 70.25,-377.78 77.25,-377.72"/>
</g>
<!-- predictions -->
<g id="node19" class="node">
<title>predictions</title>
<polygon fill="#94ddf4" stroke="black" points="287,-39.5 287,-75.5 364,-75.5 364,-39.5 287,-39.5"/>
<text text-anchor="middle" x="325.5" y="-53.8" font-family="Times,serif" font-size="14.00">predictions</text>
</g>
<!-- train_epitope_prediction_model&#45;&gt;predictions -->
<g id="edge24" class="edge">
<title>train_epitope_prediction_model&#45;&gt;predictions</title>
<path fill="none" stroke="black" d="M325.5,-112.31C325.5,-104.29 325.5,-94.55 325.5,-85.57"/>
<polygon fill="black" stroke="black" points="329,-85.53 325.5,-75.53 322,-85.53 329,-85.53"/>
</g>
<!-- biodl_test_dataset -->
<g id="node15" class="node">
<title>biodl_test_dataset</title>
<polygon fill="#94ddf4" stroke="black" points="417.5,-626.5 417.5,-662.5 531.5,-662.5 531.5,-626.5 417.5,-626.5"/>
<text text-anchor="middle" x="474.5" y="-640.8" font-family="Times,serif" font-size="14.00">biodl_test_dataset</text>
</g>
<!-- biodl_test_dataset&#45;&gt;generate_ppi_labels -->
<g id="edge20" class="edge">
<title>biodl_test_dataset&#45;&gt;generate_ppi_labels</title>
<path fill="none" stroke="black" d="M474.65,-626.32C474.6,-586.52 472.16,-485.15 450.5,-404 448.06,-394.85 444.22,-385.29 440.33,-376.82"/>
<polygon fill="black" stroke="black" points="443.48,-375.29 435.98,-367.81 437.17,-378.34 443.48,-375.29"/>
</g>
<!-- biodl_train_dataset -->
<g id="node16" class="node">
<title>biodl_train_dataset</title>
<polygon fill="#94ddf4" stroke="black" points="279.5,-626.5 279.5,-662.5 399.5,-662.5 399.5,-626.5 279.5,-626.5"/>
<text text-anchor="middle" x="339.5" y="-640.8" font-family="Times,serif" font-size="14.00">biodl_train_dataset</text>
</g>
<!-- biodl_train_dataset&#45;&gt;generate_ppi_labels -->
<g id="edge21" class="edge">
<title>biodl_train_dataset&#45;&gt;generate_ppi_labels</title>
<path fill="none" stroke="black" d="M347.91,-626.4C364.33,-592.14 400.55,-512.29 417.5,-441 422.45,-420.17 424.68,-396.01 425.69,-377.89"/>
<polygon fill="black" stroke="black" points="429.19,-377.89 426.16,-367.74 422.2,-377.57 429.19,-377.89"/>
</g>
<!-- sabdab_summary_file -->
<g id="node17" class="node">
<title>sabdab_summary_file</title>
<polygon fill="#94ddf4" stroke="black" points="32,-626.5 32,-662.5 169,-662.5 169,-626.5 32,-626.5"/>
<text text-anchor="middle" x="100.5" y="-640.8" font-family="Times,serif" font-size="14.00">sabdab_summary_file</text>
</g>
<!-- sabdab_summary_file&#45;&gt;preprocess_sabdab_data -->
<g id="edge22" class="edge">
<title>sabdab_summary_file&#45;&gt;preprocess_sabdab_data</title>
<path fill="none" stroke="black" d="M94.7,-626.34C91.67,-617.37 87.9,-606.2 84.5,-596.14"/>
<polygon fill="black" stroke="black" points="87.78,-594.92 81.27,-586.57 81.15,-597.16 87.78,-594.92"/>
</g>
<!-- pdb_query -->
<g id="node18" class="node">
<title>pdb_query</title>
<polygon fill="#94ddf4" stroke="black" points="187.5,-626.5 187.5,-662.5 261.5,-662.5 261.5,-626.5 187.5,-626.5"/>
<text text-anchor="middle" x="224.5" y="-640.8" font-family="Times,serif" font-size="14.00">pdb_query</text>
</g>
<!-- pdb_query&#45;&gt;run_pdb_query -->
<g id="edge23" class="edge">
<title>pdb_query&#45;&gt;run_pdb_query</title>
<path fill="none" stroke="black" d="M224.5,-626.34C224.5,-617.56 224.5,-606.66 224.5,-596.77"/>
<polygon fill="black" stroke="black" points="228,-596.57 224.5,-586.57 221,-596.57 228,-596.57"/>
</g>
</g>
</svg>
