<?xml version="1.0" encoding="UTF-8" standalone="no"?>
<!DOCTYPE svg PUBLIC "-//W3C//DTD SVG 1.1//EN"
 "http://www.w3.org/Graphics/SVG/1.1/DTD/svg11.dtd">
<!-- Generated by graphviz version 2.40.1 (0)
 -->
<!-- Title: G Pages: 1 -->
<svg width="847pt" height="687pt"
 viewBox="0.00 0.00 847.00 687.00" xmlns="http://www.w3.org/2000/svg" xmlns:xlink="http://www.w3.org/1999/xlink">
<g id="graph0" class="graph" transform="scale(1 1) rotate(0) translate(4 683)">
<title>G</title>
<polygon fill="#eeeeee" stroke="transparent" points="-4,4 -4,-683 843,-683 843,4 -4,4"/>
<g id="clust1" class="cluster">
<title>cluster_inputs</title>
<polygon fill="#eeeeee" stroke="#000000" stroke-dasharray="5,2" points="8,-595 8,-671 831,-671 831,-595 8,-595"/>
<text text-anchor="middle" x="777" y="-602.8" font-family="Times,serif" font-size="14.00" fill="#000000">Workflow Inputs</text>
</g>
<g id="clust2" class="cluster">
<title>cluster_outputs</title>
<polygon fill="#eeeeee" stroke="#000000" stroke-dasharray="5,2" points="338,-8 338,-84 455,-84 455,-8 338,-8"/>
<text text-anchor="middle" x="396.5" y="-15.8" font-family="Times,serif" font-size="14.00" fill="#000000">Workflow Outputs</text>
</g>
<!-- generate_psp19 -->
<g id="node1" class="node">
<title>generate_psp19</title>
<polygon fill="#fafad2" stroke="#000000" points="408.5,-258.5 408.5,-294.5 509.5,-294.5 509.5,-258.5 408.5,-258.5"/>
<text text-anchor="middle" x="459" y="-272.8" font-family="Times,serif" font-size="14.00" fill="#000000">generate_psp19</text>
</g>
<!-- combine_features -->
<g id="node2" class="node">
<title>combine_features</title>
<polygon fill="#fafad2" stroke="#000000" points="274,-185.5 274,-221.5 418,-221.5 418,-185.5 274,-185.5"/>
<text text-anchor="middle" x="346" y="-199.8" font-family="Times,serif" font-size="14.00" fill="#000000">Combine input features</text>
</g>
<!-- generate_psp19&#45;&gt;combine_features -->
<g id="edge1" class="edge">
<title>generate_psp19&#45;&gt;combine_features</title>
<path fill="none" stroke="#000000" d="M431.0674,-258.4551C416.399,-248.979 398.2444,-237.2508 382.4786,-227.0658"/>
<polygon fill="#000000" stroke="#000000" points="384.3018,-224.0769 374.0029,-221.5904 380.5034,-229.9566 384.3018,-224.0769"/>
</g>
<!-- train_epitope_prediction_model -->
<g id="node13" class="node">
<title>train_epitope_prediction_model</title>
<polygon fill="#fafad2" stroke="#000000" points="300.5,-112.5 300.5,-148.5 491.5,-148.5 491.5,-112.5 300.5,-112.5"/>
<text text-anchor="middle" x="396" y="-126.8" font-family="Times,serif" font-size="14.00" fill="#000000">train_epitope_prediction_model</text>
</g>
<!-- combine_features&#45;&gt;train_epitope_prediction_model -->
<g id="edge17" class="edge">
<title>combine_features&#45;&gt;train_epitope_prediction_model</title>
<path fill="none" stroke="#000000" d="M358.3596,-185.4551C364.2491,-176.8564 371.4087,-166.4034 377.8961,-156.9316"/>
<polygon fill="#000000" stroke="#000000" points="380.846,-158.8185 383.6093,-148.5904 375.0708,-154.8628 380.846,-158.8185"/>
</g>
<!-- generate_ppi_labels -->
<g id="node3" class="node">
<title>generate_ppi_labels</title>
<polygon fill="#fafad2" stroke="#000000" points="297,-331.5 297,-367.5 421,-367.5 421,-331.5 297,-331.5"/>
<text text-anchor="middle" x="359" y="-345.8" font-family="Times,serif" font-size="14.00" fill="#000000">generate_ppi_labels</text>
</g>
<!-- generate_ppi_labels&#45;&gt;generate_psp19 -->
<g id="edge16" class="edge">
<title>generate_ppi_labels&#45;&gt;generate_psp19</title>
<path fill="none" stroke="#000000" d="M383.7191,-331.4551C396.4597,-322.1545 412.1721,-310.6844 425.9408,-300.6332"/>
<polygon fill="#000000" stroke="#000000" points="428.2055,-303.3134 434.2187,-294.5904 424.0781,-297.6596 428.2055,-303.3134"/>
</g>
<!-- generate_ppi_labels&#45;&gt;combine_features -->
<g id="edge2" class="edge">
<title>generate_ppi_labels&#45;&gt;combine_features</title>
<path fill="none" stroke="#000000" d="M326.5776,-331.4587C313.6125,-322.3697 300.0931,-310.056 293,-295 285.9916,-280.1238 286.8131,-273.2362 293,-258 297.4934,-246.9342 305.4326,-236.8817 313.8199,-228.5089"/>
<polygon fill="#000000" stroke="#000000" points="316.3029,-230.9792 321.2307,-221.6 311.5296,-225.859 316.3029,-230.9792"/>
</g>
<!-- generate_hhm -->
<g id="node4" class="node">
<title>generate_hhm</title>
<polygon fill="#f3cea1" stroke="#000000" points="148.5,-258.5 148.5,-294.5 241.5,-294.5 241.5,-258.5 148.5,-258.5"/>
<text text-anchor="middle" x="195" y="-272.8" font-family="Times,serif" font-size="14.00" fill="#000000">generate_hhm</text>
</g>
<!-- generate_ppi_labels&#45;&gt;generate_hhm -->
<g id="edge13" class="edge">
<title>generate_ppi_labels&#45;&gt;generate_hhm</title>
<path fill="none" stroke="#000000" d="M318.4607,-331.4551C296.1863,-321.5403 268.3732,-309.16 244.7875,-298.6615"/>
<polygon fill="#000000" stroke="#000000" points="246.2005,-295.4594 235.6414,-294.5904 243.3539,-301.8545 246.2005,-295.4594"/>
</g>
<!-- generate_pc7 -->
<g id="node5" class="node">
<title>generate_pc7</title>
<polygon fill="#fafad2" stroke="#000000" points="302,-258.5 302,-294.5 390,-294.5 390,-258.5 302,-258.5"/>
<text text-anchor="middle" x="346" y="-272.8" font-family="Times,serif" font-size="14.00" fill="#000000">generate_pc7</text>
</g>
<!-- generate_ppi_labels&#45;&gt;generate_pc7 -->
<g id="edge14" class="edge">
<title>generate_ppi_labels&#45;&gt;generate_pc7</title>
<path fill="none" stroke="#000000" d="M355.7865,-331.4551C354.349,-323.3828 352.6205,-313.6764 351.0187,-304.6817"/>
<polygon fill="#000000" stroke="#000000" points="354.4207,-303.8218 349.2216,-294.5904 347.5291,-305.0491 354.4207,-303.8218"/>
</g>
<!-- combine_labels -->
<g id="node6" class="node">
<title>combine_labels</title>
<polygon fill="#fafad2" stroke="#000000" points="528,-258.5 528,-294.5 630,-294.5 630,-258.5 528,-258.5"/>
<text text-anchor="middle" x="579" y="-272.8" font-family="Times,serif" font-size="14.00" fill="#000000">combine_labels</text>
</g>
<!-- generate_ppi_labels&#45;&gt;combine_labels -->
<g id="edge5" class="edge">
<title>generate_ppi_labels&#45;&gt;combine_labels</title>
<path fill="none" stroke="#000000" d="M413.382,-331.4551C445.23,-320.8873 485.519,-307.5187 518.3852,-296.6131"/>
<polygon fill="#000000" stroke="#000000" points="519.497,-299.9319 527.8859,-293.4606 517.2924,-293.2881 519.497,-299.9319"/>
</g>
<!-- generate_hhm&#45;&gt;combine_features -->
<g id="edge3" class="edge">
<title>generate_hhm&#45;&gt;combine_features</title>
<path fill="none" stroke="#000000" d="M232.3259,-258.4551C252.5623,-248.6719 277.764,-236.4883 299.2922,-226.0806"/>
<polygon fill="#000000" stroke="#000000" points="301.1005,-229.094 308.5802,-221.5904 298.0537,-222.7918 301.1005,-229.094"/>
</g>
<!-- generate_pc7&#45;&gt;combine_features -->
<g id="edge4" class="edge">
<title>generate_pc7&#45;&gt;combine_features</title>
<path fill="none" stroke="#000000" d="M346,-258.4551C346,-250.3828 346,-240.6764 346,-231.6817"/>
<polygon fill="#000000" stroke="#000000" points="349.5001,-231.5903 346,-221.5904 342.5001,-231.5904 349.5001,-231.5903"/>
</g>
<!-- combine_labels&#45;&gt;train_epitope_prediction_model -->
<g id="edge18" class="edge">
<title>combine_labels&#45;&gt;train_epitope_prediction_model</title>
<path fill="none" stroke="#000000" d="M556.1929,-258.3042C523.5019,-232.2228 463.242,-184.1466 426.6745,-154.9725"/>
<polygon fill="#000000" stroke="#000000" points="428.8062,-152.1958 418.8063,-148.6952 424.4406,-157.6678 428.8062,-152.1958"/>
</g>
<!-- generate_epitope_labels -->
<g id="node7" class="node">
<title>generate_epitope_labels</title>
<polygon fill="#fafad2" stroke="#000000" points="663,-331.5 663,-367.5 809,-367.5 809,-331.5 663,-331.5"/>
<text text-anchor="middle" x="736" y="-345.8" font-family="Times,serif" font-size="14.00" fill="#000000">generate_epitope_labels</text>
</g>
<!-- generate_epitope_labels&#45;&gt;combine_labels -->
<g id="edge6" class="edge">
<title>generate_epitope_labels&#45;&gt;combine_labels</title>
<path fill="none" stroke="#000000" d="M697.191,-331.4551C676.0561,-321.628 649.7122,-309.3789 627.2629,-298.9407"/>
<polygon fill="#000000" stroke="#000000" points="628.4501,-295.6329 617.9067,-294.5904 625.4987,-301.9803 628.4501,-295.6329"/>
</g>
<!-- generate_dssp_labels -->
<g id="node8" class="node">
<title>generate_dssp_labels</title>
<polygon fill="#fafad2" stroke="#000000" points="513.5,-331.5 513.5,-367.5 644.5,-367.5 644.5,-331.5 513.5,-331.5"/>
<text text-anchor="middle" x="579" y="-345.8" font-family="Times,serif" font-size="14.00" fill="#000000">generate_dssp_labels</text>
</g>
<!-- generate_dssp_labels&#45;&gt;combine_labels -->
<g id="edge7" class="edge">
<title>generate_dssp_labels&#45;&gt;combine_labels</title>
<path fill="none" stroke="#000000" d="M579,-331.4551C579,-323.3828 579,-313.6764 579,-304.6817"/>
<polygon fill="#000000" stroke="#000000" points="582.5001,-304.5903 579,-294.5904 575.5001,-304.5904 582.5001,-304.5903"/>
</g>
<!-- download_pdb_files -->
<g id="node9" class="node">
<title>download_pdb_files</title>
<polygon fill="#fafad2" stroke="#000000" points="522.5,-477.5 522.5,-513.5 647.5,-513.5 647.5,-477.5 522.5,-477.5"/>
<text text-anchor="middle" x="585" y="-491.8" font-family="Times,serif" font-size="14.00" fill="#000000">download_pdb_files</text>
</g>
<!-- decompress_pdb_files -->
<g id="node10" class="node">
<title>decompress_pdb_files</title>
<polygon fill="#fafad2" stroke="#000000" points="514.5,-404.5 514.5,-440.5 651.5,-440.5 651.5,-404.5 514.5,-404.5"/>
<text text-anchor="middle" x="583" y="-418.8" font-family="Times,serif" font-size="14.00" fill="#000000">decompress_pdb_files</text>
</g>
<!-- download_pdb_files&#45;&gt;decompress_pdb_files -->
<g id="edge8" class="edge">
<title>download_pdb_files&#45;&gt;decompress_pdb_files</title>
<path fill="none" stroke="#000000" d="M584.5056,-477.4551C584.2845,-469.3828 584.0185,-459.6764 583.7721,-450.6817"/>
<polygon fill="#000000" stroke="#000000" points="587.2683,-450.4907 583.4956,-440.5904 580.2709,-450.6825 587.2683,-450.4907"/>
</g>
<!-- decompress_pdb_files&#45;&gt;generate_ppi_labels -->
<g id="edge15" class="edge">
<title>decompress_pdb_files&#45;&gt;generate_ppi_labels</title>
<path fill="none" stroke="#000000" d="M527.6292,-404.4551C496.2634,-394.2332 456.8565,-381.3907 424.0261,-370.6916"/>
<polygon fill="#000000" stroke="#000000" points="425.1025,-367.3612 414.5101,-367.5904 422.9335,-374.0167 425.1025,-367.3612"/>
</g>
<!-- decompress_pdb_files&#45;&gt;generate_epitope_labels -->
<g id="edge11" class="edge">
<title>decompress_pdb_files&#45;&gt;generate_epitope_labels</title>
<path fill="none" stroke="#000000" d="M620.8202,-404.4551C641.4166,-394.628 667.0893,-382.3789 688.9668,-371.9407"/>
<polygon fill="#000000" stroke="#000000" points="690.5664,-375.0555 698.0846,-367.5904 687.5521,-368.7378 690.5664,-375.0555"/>
</g>
<!-- decompress_pdb_files&#45;&gt;generate_dssp_labels -->
<g id="edge10" class="edge">
<title>decompress_pdb_files&#45;&gt;generate_dssp_labels</title>
<path fill="none" stroke="#000000" d="M582.0112,-404.4551C581.5689,-396.3828 581.0371,-386.6764 580.5442,-377.6817"/>
<polygon fill="#000000" stroke="#000000" points="584.0332,-377.3839 579.9913,-367.5904 577.0437,-377.7669 584.0332,-377.3839"/>
</g>
<!-- run_pdb_query -->
<g id="node11" class="node">
<title>run_pdb_query</title>
<polygon fill="#fafad2" stroke="#000000" points="545.5,-550.5 545.5,-586.5 644.5,-586.5 644.5,-550.5 545.5,-550.5"/>
<text text-anchor="middle" x="595" y="-564.8" font-family="Times,serif" font-size="14.00" fill="#000000">run_pdb_query</text>
</g>
<!-- run_pdb_query&#45;&gt;download_pdb_files -->
<g id="edge9" class="edge">
<title>run_pdb_query&#45;&gt;download_pdb_files</title>
<path fill="none" stroke="#000000" d="M592.5281,-550.4551C591.4223,-542.3828 590.0927,-532.6764 588.8605,-523.6817"/>
<polygon fill="#000000" stroke="#000000" points="592.303,-523.0228 587.4781,-513.5904 585.3678,-523.9729 592.303,-523.0228"/>
</g>
<!-- preprocess_sabdab_data -->
<g id="node12" class="node">
<title>preprocess_sabdab_data</title>
<polygon fill="#fafad2" stroke="#000000" points="679,-550.5 679,-586.5 827,-586.5 827,-550.5 679,-550.5"/>
<text text-anchor="middle" x="753" y="-564.8" font-family="Times,serif" font-size="14.00" fill="#000000">preprocess_sabdab_data</text>
</g>
<!-- preprocess_sabdab_data&#45;&gt;generate_epitope_labels -->
<g id="edge12" class="edge">
<title>preprocess_sabdab_data&#45;&gt;generate_epitope_labels</title>
<path fill="none" stroke="#000000" d="M751.5798,-550.2049C748.6099,-511.9458 741.7258,-423.2623 738.187,-377.6742"/>
<polygon fill="#000000" stroke="#000000" points="741.6677,-377.2881 737.4042,-367.589 734.6887,-377.83 741.6677,-377.2881"/>
</g>
<!-- predictions -->
<g id="node20" class="node">
<title>predictions</title>
<polygon fill="#94ddf4" stroke="#000000" points="357.5,-39.5 357.5,-75.5 434.5,-75.5 434.5,-39.5 357.5,-39.5"/>
<text text-anchor="middle" x="396" y="-53.8" font-family="Times,serif" font-size="14.00" fill="#000000">predictions</text>
</g>
<!-- train_epitope_prediction_model&#45;&gt;predictions -->
<g id="edge25" class="edge">
<title>train_epitope_prediction_model&#45;&gt;predictions</title>
<path fill="none" stroke="#000000" d="M396,-112.4551C396,-104.3828 396,-94.6764 396,-85.6817"/>
<polygon fill="#000000" stroke="#000000" points="399.5001,-85.5903 396,-75.5904 392.5001,-85.5904 399.5001,-85.5903"/>
</g>
<!-- hhblits_db_dir -->
<g id="node14" class="node">
<title>hhblits_db_dir</title>
<polygon fill="#94ddf4" stroke="#000000" points="16.5,-626.5 16.5,-662.5 111.5,-662.5 111.5,-626.5 16.5,-626.5"/>
<text text-anchor="middle" x="64" y="-640.8" font-family="Times,serif" font-size="14.00" fill="#000000">hhblits_db_dir</text>
</g>
<!-- hhblits_db_dir&#45;&gt;generate_hhm -->
<g id="edge19" class="edge">
<title>hhblits_db_dir&#45;&gt;generate_hhm</title>
<path fill="none" stroke="#000000" d="M72.4952,-626.1313C84.5044,-598.438 105,-544.0614 105,-495.5 105,-495.5 105,-495.5 105,-422.5 105,-374.3254 140.9469,-328.7286 167.4046,-301.6927"/>
<polygon fill="#000000" stroke="#000000" points="169.946,-304.1015 174.5776,-294.5727 165.0146,-299.1334 169.946,-304.1015"/>
</g>
<!-- hhblits_db_name -->
<g id="node15" class="node">
<title>hhblits_db_name</title>
<polygon fill="#94ddf4" stroke="#000000" points="130,-626.5 130,-662.5 240,-662.5 240,-626.5 130,-626.5"/>
<text text-anchor="middle" x="185" y="-640.8" font-family="Times,serif" font-size="14.00" fill="#000000">hhblits_db_name</text>
</g>
<!-- hhblits_db_name&#45;&gt;generate_hhm -->
<g id="edge20" class="edge">
<title>hhblits_db_name&#45;&gt;generate_hhm</title>
<path fill="none" stroke="#000000" d="M185.4047,-626.1503C185.9891,-598.0299 187,-542.5841 187,-495.5 187,-495.5 187,-495.5 187,-422.5 187,-381.5782 190.1722,-334.3011 192.5215,-304.899"/>
<polygon fill="#000000" stroke="#000000" points="196.0106,-305.1736 193.3424,-294.9202 189.0342,-304.5996 196.0106,-305.1736"/>
</g>
<!-- biodl_test_dataset -->
<g id="node16" class="node">
<title>biodl_test_dataset</title>
<polygon fill="#94ddf4" stroke="#000000" points="258,-626.5 258,-662.5 372,-662.5 372,-626.5 258,-626.5"/>
<text text-anchor="middle" x="315" y="-640.8" font-family="Times,serif" font-size="14.00" fill="#000000">biodl_test_dataset</text>
</g>
<!-- biodl_test_dataset&#45;&gt;generate_ppi_labels -->
<g id="edge21" class="edge">
<title>biodl_test_dataset&#45;&gt;generate_ppi_labels</title>
<path fill="none" stroke="#000000" d="M317.6862,-626.4905C325.0964,-576.8083 345.869,-437.5376 354.815,-377.5583"/>
<polygon fill="#000000" stroke="#000000" points="358.2795,-378.0556 356.2931,-367.6486 351.3561,-377.0229 358.2795,-378.0556"/>
</g>
<!-- biodl_train_dataset -->
<g id="node17" class="node">
<title>biodl_train_dataset</title>
<polygon fill="#94ddf4" stroke="#000000" points="390,-626.5 390,-662.5 510,-662.5 510,-626.5 390,-626.5"/>
<text text-anchor="middle" x="450" y="-640.8" font-family="Times,serif" font-size="14.00" fill="#000000">biodl_train_dataset</text>
</g>
<!-- biodl_train_dataset&#45;&gt;generate_ppi_labels -->
<g id="edge22" class="edge">
<title>biodl_train_dataset&#45;&gt;generate_ppi_labels</title>
<path fill="none" stroke="#000000" d="M444.4445,-626.4905C429.1188,-576.8083 386.1574,-437.5376 367.6553,-377.5583"/>
<polygon fill="#000000" stroke="#000000" points="370.8906,-376.1726 364.5984,-367.6486 364.2017,-378.236 370.8906,-376.1726"/>
</g>
<!-- sabdab_summary_file -->
<g id="node18" class="node">
<title>sabdab_summary_file</title>
<polygon fill="#94ddf4" stroke="#000000" points="685.5,-626.5 685.5,-662.5 822.5,-662.5 822.5,-626.5 685.5,-626.5"/>
<text text-anchor="middle" x="754" y="-640.8" font-family="Times,serif" font-size="14.00" fill="#000000">sabdab_summary_file</text>
</g>
<!-- sabdab_summary_file&#45;&gt;preprocess_sabdab_data -->
<g id="edge23" class="edge">
<title>sabdab_summary_file&#45;&gt;preprocess_sabdab_data</title>
<path fill="none" stroke="#000000" d="M753.763,-626.4891C753.6468,-617.6566 753.5041,-606.8099 753.3736,-596.8965"/>
<polygon fill="#000000" stroke="#000000" points="756.8701,-596.5981 753.2388,-586.645 749.8707,-596.6903 756.8701,-596.5981"/>
</g>
<!-- pdb_search_api_query -->
<g id="node19" class="node">
<title>pdb_search_api_query</title>
<polygon fill="#94ddf4" stroke="#000000" points="528.5,-626.5 528.5,-662.5 667.5,-662.5 667.5,-626.5 528.5,-626.5"/>
<text text-anchor="middle" x="598" y="-640.8" font-family="Times,serif" font-size="14.00" fill="#000000">pdb_search_api_query</text>
</g>
<!-- pdb_search_api_query&#45;&gt;run_pdb_query -->
<g id="edge24" class="edge">
<title>pdb_search_api_query&#45;&gt;run_pdb_query</title>
<path fill="none" stroke="#000000" d="M597.289,-626.4891C596.9404,-617.6566 596.5122,-606.8099 596.1209,-596.8965"/>
<polygon fill="#000000" stroke="#000000" points="599.6081,-596.4992 595.7163,-586.645 592.6135,-596.7753 599.6081,-596.4992"/>
</g>
</g>
</svg>
