<?xml version="1.0" encoding="UTF-8" standalone="no"?>
<!DOCTYPE svg PUBLIC "-//W3C//DTD SVG 1.1//EN"
 "http://www.w3.org/Graphics/SVG/1.1/DTD/svg11.dtd">
<!-- Generated by graphviz version 3.0.0 (20220226.1711)
 -->
<!-- Title: G Pages: 1 -->
<svg width="692pt" height="687pt"
 viewBox="0.00 0.00 692.00 687.00" xmlns="http://www.w3.org/2000/svg" xmlns:xlink="http://www.w3.org/1999/xlink">
<g id="graph0" class="graph" transform="scale(1 1) rotate(0) translate(4 683)">
<title>G</title>
<polygon fill="#eeeeee" stroke="transparent" points="-4,4 -4,-683 688,-683 688,4 -4,4"/>
<g id="clust1" class="cluster">
<title>cluster_inputs</title>
<polygon fill="#eeeeee" stroke="black" stroke-dasharray="5,2" points="22,-595 22,-671 538,-671 538,-595 22,-595"/>
<text text-anchor="middle" x="483.5" y="-602.8" font-family="Times,serif" font-size="14.00">Workflow Inputs</text>
</g>
<g id="clust2" class="cluster">
<title>cluster_outputs</title>
<polygon fill="#eeeeee" stroke="black" stroke-dasharray="5,2" points="295,-8 295,-84 413,-84 413,-8 295,-8"/>
<text text-anchor="middle" x="354" y="-15.8" font-family="Times,serif" font-size="14.00">Workflow Outputs</text>
</g>
<!-- generate_pc7 -->
<g id="node1" class="node">
<title>generate_pc7</title>
<polygon fill="lightgoldenrodyellow" stroke="black" points="482.5,-258.5 482.5,-294.5 571.5,-294.5 571.5,-258.5 482.5,-258.5"/>
<text text-anchor="middle" x="527" y="-272.8" font-family="Times,serif" font-size="14.00">generate_pc7</text>
</g>
<!-- combine_features -->
<g id="node2" class="node">
<title>combine_features</title>
<polygon fill="none" stroke="black" stroke-dasharray="5,2" points="397.5,-185.5 397.5,-221.5 510.5,-221.5 510.5,-185.5 397.5,-185.5"/>
<text text-anchor="middle" x="454" y="-199.8" font-family="Times,serif" font-size="14.00">combine_features</text>
</g>
<!-- generate_pc7&#45;&gt;combine_features -->
<g id="edge1" class="edge">
<title>generate_pc7&#45;&gt;combine_features</title>
<path fill="none" stroke="black" d="M509.33,-258.31C500.18,-249.42 488.86,-238.41 478.85,-228.67"/>
<polygon fill="black" stroke="black" points="481.12,-225.99 471.51,-221.53 476.24,-231.01 481.12,-225.99"/>
</g>
<!-- train_epitope_prediction_model -->
<g id="node15" class="node">
<title>train_epitope_prediction_model</title>
<polygon fill="none" stroke="black" stroke-dasharray="5,2" points="258.5,-112.5 258.5,-148.5 449.5,-148.5 449.5,-112.5 258.5,-112.5"/>
<text text-anchor="middle" x="354" y="-126.8" font-family="Times,serif" font-size="14.00">train_epitope_prediction_model</text>
</g>
<!-- combine_features&#45;&gt;train_epitope_prediction_model -->
<g id="edge20" class="edge">
<title>combine_features&#45;&gt;train_epitope_prediction_model</title>
<path fill="none" stroke="black" d="M430.05,-185.49C417.03,-176.25 400.75,-164.69 386.59,-154.64"/>
<polygon fill="black" stroke="black" points="388.28,-151.55 378.1,-148.61 384.23,-157.26 388.28,-151.55"/>
</g>
<!-- generate_hhm -->
<g id="node3" class="node">
<title>generate_hhm</title>
<polygon fill="none" stroke="black" stroke-dasharray="5,2" points="590,-258.5 590,-294.5 684,-294.5 684,-258.5 590,-258.5"/>
<text text-anchor="middle" x="637" y="-272.8" font-family="Times,serif" font-size="14.00">generate_hhm</text>
</g>
<!-- generate_hhm&#45;&gt;combine_features -->
<g id="edge2" class="edge">
<title>generate_hhm&#45;&gt;combine_features</title>
<path fill="none" stroke="black" d="M593.17,-258.49C567.44,-248.51 534.74,-235.82 507.5,-225.26"/>
<polygon fill="black" stroke="black" points="508.7,-221.97 498.11,-221.61 506.17,-228.49 508.7,-221.97"/>
</g>
<!-- generate_psp19 -->
<g id="node4" class="node">
<title>generate_psp19</title>
<polygon fill="lightgoldenrodyellow" stroke="black" points="324.5,-258.5 324.5,-294.5 425.5,-294.5 425.5,-258.5 324.5,-258.5"/>
<text text-anchor="middle" x="375" y="-272.8" font-family="Times,serif" font-size="14.00">generate_psp19</text>
</g>
<!-- generate_psp19&#45;&gt;combine_features -->
<g id="edge3" class="edge">
<title>generate_psp19&#45;&gt;combine_features</title>
<path fill="none" stroke="black" d="M394.12,-258.31C404.12,-249.33 416.51,-238.19 427.42,-228.39"/>
<polygon fill="black" stroke="black" points="429.95,-230.82 435.05,-221.53 425.28,-225.61 429.95,-230.82"/>
</g>
<!-- generate_ppi_labels -->
<g id="node5" class="node">
<title>generate_ppi_labels</title>
<polygon fill="none" stroke="black" stroke-dasharray="5,2" points="391.5,-331.5 391.5,-367.5 516.5,-367.5 516.5,-331.5 391.5,-331.5"/>
<text text-anchor="middle" x="454" y="-345.8" font-family="Times,serif" font-size="14.00">generate_ppi_labels</text>
</g>
<!-- generate_ppi_labels&#45;&gt;generate_pc7 -->
<g id="edge16" class="edge">
<title>generate_ppi_labels&#45;&gt;generate_pc7</title>
<path fill="none" stroke="black" d="M471.67,-331.31C480.82,-322.42 492.14,-311.41 502.15,-301.67"/>
<polygon fill="black" stroke="black" points="504.76,-304.01 509.49,-294.53 499.88,-298.99 504.76,-304.01"/>
</g>
<!-- generate_ppi_labels&#45;&gt;combine_features -->
<g id="edge4" class="edge">
<title>generate_ppi_labels&#45;&gt;combine_features</title>
<path fill="none" stroke="black" d="M454,-331.42C454,-306.84 454,-261.25 454,-231.93"/>
<polygon fill="black" stroke="black" points="457.5,-231.56 454,-221.56 450.5,-231.56 457.5,-231.56"/>
</g>
<!-- generate_ppi_labels&#45;&gt;generate_hhm -->
<g id="edge15" class="edge">
<title>generate_ppi_labels&#45;&gt;generate_hhm</title>
<path fill="none" stroke="black" d="M497.83,-331.49C523.56,-321.51 556.26,-308.82 583.5,-298.26"/>
<polygon fill="black" stroke="black" points="584.83,-301.49 592.89,-294.61 582.3,-294.97 584.83,-301.49"/>
</g>
<!-- generate_ppi_labels&#45;&gt;generate_psp19 -->
<g id="edge18" class="edge">
<title>generate_ppi_labels&#45;&gt;generate_psp19</title>
<path fill="none" stroke="black" d="M434.88,-331.31C424.88,-322.33 412.49,-311.19 401.58,-301.39"/>
<polygon fill="black" stroke="black" points="403.72,-298.61 393.95,-294.53 399.05,-303.82 403.72,-298.61"/>
</g>
<!-- combine_labels -->
<g id="node6" class="node">
<title>combine_labels</title>
<polygon fill="lightgoldenrodyellow" stroke="black" points="204,-258.5 204,-294.5 306,-294.5 306,-258.5 204,-258.5"/>
<text text-anchor="middle" x="255" y="-272.8" font-family="Times,serif" font-size="14.00">combine_labels</text>
</g>
<!-- generate_ppi_labels&#45;&gt;combine_labels -->
<g id="edge5" class="edge">
<title>generate_ppi_labels&#45;&gt;combine_labels</title>
<path fill="none" stroke="black" d="M406.33,-331.49C378.11,-321.42 342.17,-308.6 312.4,-297.98"/>
<polygon fill="black" stroke="black" points="313.56,-294.68 302.97,-294.61 311.21,-301.27 313.56,-294.68"/>
</g>
<!-- combine_labels&#45;&gt;train_epitope_prediction_model -->
<g id="edge19" class="edge">
<title>combine_labels&#45;&gt;train_epitope_prediction_model</title>
<path fill="none" stroke="black" d="M266.75,-258.42C284.01,-233.3 316.37,-186.23 336.46,-157.01"/>
<polygon fill="black" stroke="black" points="339.49,-158.79 342.27,-148.56 333.72,-154.82 339.49,-158.79"/>
</g>
<!-- generate_epitope_labels -->
<g id="node7" class="node">
<title>generate_epitope_labels</title>
<polygon fill="none" stroke="black" stroke-dasharray="5,2" points="77.5,-331.5 77.5,-367.5 224.5,-367.5 224.5,-331.5 77.5,-331.5"/>
<text text-anchor="middle" x="151" y="-345.8" font-family="Times,serif" font-size="14.00">generate_epitope_labels</text>
</g>
<!-- generate_epitope_labels&#45;&gt;combine_labels -->
<g id="edge6" class="edge">
<title>generate_epitope_labels&#45;&gt;combine_labels</title>
<path fill="none" stroke="black" d="M175.91,-331.49C189.57,-322.17 206.7,-310.47 221.52,-300.36"/>
<polygon fill="black" stroke="black" points="223.65,-303.14 229.93,-294.61 219.7,-297.36 223.65,-303.14"/>
</g>
<!-- generate_dssp_labels -->
<g id="node8" class="node">
<title>generate_dssp_labels</title>
<polygon fill="none" stroke="black" stroke-dasharray="5,2" points="242.5,-331.5 242.5,-367.5 373.5,-367.5 373.5,-331.5 242.5,-331.5"/>
<text text-anchor="middle" x="308" y="-345.8" font-family="Times,serif" font-size="14.00">generate_dssp_labels</text>
</g>
<!-- generate_dssp_labels&#45;&gt;combine_labels -->
<g id="edge7" class="edge">
<title>generate_dssp_labels&#45;&gt;combine_labels</title>
<path fill="none" stroke="black" d="M295.17,-331.31C288.79,-322.77 280.95,-312.27 273.9,-302.82"/>
<polygon fill="black" stroke="black" points="276.5,-300.45 267.71,-294.53 270.89,-304.64 276.5,-300.45"/>
</g>
<!-- download_mmcif_files -->
<g id="node9" class="node">
<title>download_mmcif_files</title>
<polygon fill="lightgoldenrodyellow" stroke="black" points="104.5,-477.5 104.5,-513.5 247.5,-513.5 247.5,-477.5 104.5,-477.5"/>
<text text-anchor="middle" x="176" y="-491.8" font-family="Times,serif" font-size="14.00">download_mmcif_files</text>
</g>
<!-- decompress_mmcif_files -->
<g id="node10" class="node">
<title>decompress_mmcif_files</title>
<polygon fill="none" stroke="black" stroke-dasharray="5,2" points="95.5,-404.5 95.5,-440.5 250.5,-440.5 250.5,-404.5 95.5,-404.5"/>
<text text-anchor="middle" x="173" y="-418.8" font-family="Times,serif" font-size="14.00">decompress_mmcif_files</text>
</g>
<!-- download_mmcif_files&#45;&gt;decompress_mmcif_files -->
<g id="edge8" class="edge">
<title>download_mmcif_files&#45;&gt;decompress_mmcif_files</title>
<path fill="none" stroke="black" d="M175.27,-477.31C174.93,-469.29 174.52,-459.55 174.14,-450.57"/>
<polygon fill="black" stroke="black" points="177.64,-450.37 173.72,-440.53 170.64,-450.67 177.64,-450.37"/>
</g>
<!-- decompress_mmcif_files&#45;&gt;generate_ppi_labels -->
<g id="edge17" class="edge">
<title>decompress_mmcif_files&#45;&gt;generate_ppi_labels</title>
<path fill="none" stroke="black" d="M240.31,-404.49C282.78,-393.76 337.65,-379.9 381.15,-368.91"/>
<polygon fill="black" stroke="black" points="382.26,-372.24 391.09,-366.39 380.54,-365.45 382.26,-372.24"/>
</g>
<!-- decompress_mmcif_files&#45;&gt;generate_epitope_labels -->
<g id="edge13" class="edge">
<title>decompress_mmcif_files&#45;&gt;generate_epitope_labels</title>
<path fill="none" stroke="black" d="M167.67,-404.31C165.16,-396.2 162.1,-386.34 159.3,-377.28"/>
<polygon fill="black" stroke="black" points="162.58,-376.04 156.28,-367.53 155.89,-378.12 162.58,-376.04"/>
</g>
<!-- download_pdb_files -->
<g id="node11" class="node">
<title>download_pdb_files</title>
<polygon fill="lightgoldenrodyellow" stroke="black" points="268.5,-477.5 268.5,-513.5 395.5,-513.5 395.5,-477.5 268.5,-477.5"/>
<text text-anchor="middle" x="332" y="-491.8" font-family="Times,serif" font-size="14.00">download_pdb_files</text>
</g>
<!-- decompress_pdb_files -->
<g id="node12" class="node">
<title>decompress_pdb_files</title>
<polygon fill="none" stroke="black" stroke-dasharray="5,2" points="269,-404.5 269,-440.5 407,-440.5 407,-404.5 269,-404.5"/>
<text text-anchor="middle" x="338" y="-418.8" font-family="Times,serif" font-size="14.00">decompress_pdb_files</text>
</g>
<!-- download_pdb_files&#45;&gt;decompress_pdb_files -->
<g id="edge9" class="edge">
<title>download_pdb_files&#45;&gt;decompress_pdb_files</title>
<path fill="none" stroke="black" d="M333.45,-477.31C334.13,-469.29 334.95,-459.55 335.71,-450.57"/>
<polygon fill="black" stroke="black" points="339.21,-450.79 336.56,-440.53 332.23,-450.2 339.21,-450.79"/>
</g>
<!-- decompress_pdb_files&#45;&gt;generate_dssp_labels -->
<g id="edge12" class="edge">
<title>decompress_pdb_files&#45;&gt;generate_dssp_labels</title>
<path fill="none" stroke="black" d="M330.74,-404.31C327.27,-396.12 323.05,-386.12 319.19,-376.98"/>
<polygon fill="black" stroke="black" points="322.31,-375.38 315.2,-367.53 315.86,-378.1 322.31,-375.38"/>
</g>
<!-- run_pdb_query -->
<g id="node13" class="node">
<title>run_pdb_query</title>
<polygon fill="none" stroke="black" stroke-dasharray="5,2" points="173.5,-550.5 173.5,-586.5 272.5,-586.5 272.5,-550.5 173.5,-550.5"/>
<text text-anchor="middle" x="223" y="-564.8" font-family="Times,serif" font-size="14.00">run_pdb_query</text>
</g>
<!-- run_pdb_query&#45;&gt;download_mmcif_files -->
<g id="edge10" class="edge">
<title>run_pdb_query&#45;&gt;download_mmcif_files</title>
<path fill="none" stroke="black" d="M211.62,-550.31C206.02,-541.85 199.16,-531.48 192.95,-522.11"/>
<polygon fill="black" stroke="black" points="195.71,-519.94 187.27,-513.53 189.87,-523.8 195.71,-519.94"/>
</g>
<!-- run_pdb_query&#45;&gt;download_pdb_files -->
<g id="edge11" class="edge">
<title>run_pdb_query&#45;&gt;download_pdb_files</title>
<path fill="none" stroke="black" d="M249.11,-550.49C263.56,-541.08 281.71,-529.26 297.34,-519.07"/>
<polygon fill="black" stroke="black" points="299.26,-522 305.73,-513.61 295.44,-516.14 299.26,-522"/>
</g>
<!-- preprocess_sabdab_data -->
<g id="node14" class="node">
<title>preprocess_sabdab_data</title>
<polygon fill="lightgoldenrodyellow" stroke="black" points="0,-550.5 0,-586.5 148,-586.5 148,-550.5 0,-550.5"/>
<text text-anchor="middle" x="74" y="-564.8" font-family="Times,serif" font-size="14.00">preprocess_sabdab_data</text>
</g>
<!-- preprocess_sabdab_data&#45;&gt;generate_epitope_labels -->
<g id="edge14" class="edge">
<title>preprocess_sabdab_data&#45;&gt;generate_epitope_labels</title>
<path fill="none" stroke="black" d="M71.19,-550.09C67.03,-518.85 62.16,-452.07 87,-404 93.09,-392.22 103,-382.03 113.23,-373.79"/>
<polygon fill="black" stroke="black" points="115.55,-376.42 121.43,-367.61 111.34,-370.83 115.55,-376.42"/>
</g>
<!-- predictions -->
<g id="node20" class="node">
<title>predictions</title>
<polygon fill="#94ddf4" stroke="black" points="315.5,-39.5 315.5,-75.5 392.5,-75.5 392.5,-39.5 315.5,-39.5"/>
<text text-anchor="middle" x="354" y="-53.8" font-family="Times,serif" font-size="14.00">predictions</text>
</g>
<!-- train_epitope_prediction_model&#45;&gt;predictions -->
<g id="edge25" class="edge">
<title>train_epitope_prediction_model&#45;&gt;predictions</title>
<path fill="none" stroke="black" d="M354,-112.31C354,-104.29 354,-94.55 354,-85.57"/>
<polygon fill="black" stroke="black" points="357.5,-85.53 354,-75.53 350.5,-85.53 357.5,-85.53"/>
</g>
<!-- biodl_test_dataset -->
<g id="node16" class="node">
<title>biodl_test_dataset</title>
<polygon fill="#94ddf4" stroke="black" points="416,-626.5 416,-662.5 530,-662.5 530,-626.5 416,-626.5"/>
<text text-anchor="middle" x="473" y="-640.8" font-family="Times,serif" font-size="14.00">biodl_test_dataset</text>
</g>
<!-- biodl_test_dataset&#45;&gt;generate_ppi_labels -->
<g id="edge21" class="edge">
<title>biodl_test_dataset&#45;&gt;generate_ppi_labels</title>
<path fill="none" stroke="black" d="M471.9,-626.48C468.74,-577.73 459.63,-437.26 455.76,-377.7"/>
<polygon fill="black" stroke="black" points="459.25,-377.32 455.11,-367.57 452.26,-377.77 459.25,-377.32"/>
</g>
<!-- biodl_train_dataset -->
<g id="node17" class="node">
<title>biodl_train_dataset</title>
<polygon fill="#94ddf4" stroke="black" points="278,-626.5 278,-662.5 398,-662.5 398,-626.5 278,-626.5"/>
<text text-anchor="middle" x="338" y="-640.8" font-family="Times,serif" font-size="14.00">biodl_train_dataset</text>
</g>
<!-- biodl_train_dataset&#45;&gt;generate_ppi_labels -->
<g id="edge22" class="edge">
<title>biodl_train_dataset&#45;&gt;generate_ppi_labels</title>
<path fill="none" stroke="black" d="M348.16,-626.39C362.31,-602.06 388.11,-555.77 405,-514 423.95,-467.15 439.4,-410.16 447.6,-377.33"/>
<polygon fill="black" stroke="black" points="451.01,-378.11 450,-367.57 444.21,-376.44 451.01,-378.11"/>
</g>
<!-- sabdab_summary_file -->
<g id="node18" class="node">
<title>sabdab_summary_file</title>
<polygon fill="#94ddf4" stroke="black" points="30.5,-626.5 30.5,-662.5 167.5,-662.5 167.5,-626.5 30.5,-626.5"/>
<text text-anchor="middle" x="99" y="-640.8" font-family="Times,serif" font-size="14.00">sabdab_summary_file</text>
</g>
<!-- sabdab_summary_file&#45;&gt;preprocess_sabdab_data -->
<g id="edge23" class="edge">
<title>sabdab_summary_file&#45;&gt;preprocess_sabdab_data</title>
<path fill="none" stroke="black" d="M93.2,-626.34C90.17,-617.37 86.4,-606.2 83,-596.14"/>
<polygon fill="black" stroke="black" points="86.28,-594.92 79.77,-586.57 79.65,-597.16 86.28,-594.92"/>
</g>
<!-- pdb_query -->
<g id="node19" class="node">
<title>pdb_query</title>
<polygon fill="#94ddf4" stroke="black" points="186,-626.5 186,-662.5 260,-662.5 260,-626.5 186,-626.5"/>
<text text-anchor="middle" x="223" y="-640.8" font-family="Times,serif" font-size="14.00">pdb_query</text>
</g>
<!-- pdb_query&#45;&gt;run_pdb_query -->
<g id="edge24" class="edge">
<title>pdb_query&#45;&gt;run_pdb_query</title>
<path fill="none" stroke="black" d="M223,-626.34C223,-617.56 223,-606.66 223,-596.77"/>
<polygon fill="black" stroke="black" points="226.5,-596.57 223,-586.57 219.5,-596.57 226.5,-596.57"/>
</g>
</g>
</svg>
