<?xml version="1.0" encoding="UTF-8" standalone="no"?>
<!DOCTYPE svg PUBLIC "-//W3C//DTD SVG 1.1//EN"
 "http://www.w3.org/Graphics/SVG/1.1/DTD/svg11.dtd">
<!-- Generated by graphviz version 3.0.0 (20220226.1711)
 -->
<!-- Title: G Pages: 1 -->
<svg width="1900pt" height="500pt"
 viewBox="0.00 0.00 1280.19 248.00" xmlns="http://www.w3.org/2000/svg" xmlns:xlink="http://www.w3.org/1999/xlink">
<g id="graph0" class="graph" transform="scale(1 1) rotate(0) translate(4 244)">
<title>G</title>
<polygon fill="#eeeeee" stroke="transparent" points="-4,4 -4,-244 1276.19,-244 1276.19,4 -4,4"/>
<g id="clust1" class="cluster">
<title>cluster_inputs</title>
<polygon fill="#eeeeee" stroke="black" stroke-dasharray="5,2" points="459.37,-156 459.37,-232 568.37,-232 568.37,-156 459.37,-156"/>
<text text-anchor="middle" x="513.87" y="-163.8" font-family="Times,serif" font-size="14.00">Workflow Inputs</text>
</g>
<g id="clust2" class="cluster">
<title>cluster_outputs</title>
<polygon fill="#eeeeee" stroke="black" stroke-dasharray="5,2" points="588.37,-8 588.37,-84 806.37,-84 806.37,-8 588.37,-8"/>
<text text-anchor="middle" x="747.37" y="-15.8" font-family="Times,serif" font-size="14.00">Workflow Outputs</text>
</g>
<!-- file:///Users/renskedewit/Documents/GitHub/cwl&#45;epitope/niaa_wf.cwl#fasta_path -->
<g id="node1" class="node">
<title>file:///Users/renskedewit/Documents/GitHub/cwl&#45;epitope/niaa_wf.cwl#fasta_path</title>
<polygon fill="#94ddf4" stroke="black" points="477.37,-187.5 477.37,-223.5 549.37,-223.5 549.37,-187.5 477.37,-187.5"/>
<text text-anchor="middle" x="513.37" y="-201.8" font-family="Times,serif" font-size="14.00">fasta_path</text>
</g>
<!-- file:///Users/renskedewit/Documents/GitHub/cwl&#45;epitope/niaa_wf.cwl#generate_pc7 -->
<g id="node2" class="node">
<title>file:///Users/renskedewit/Documents/GitHub/cwl&#45;epitope/niaa_wf.cwl#generate_pc7</title>
<ellipse fill="none" stroke="black" cx="309.37" cy="-130" rx="309.25" ry="18"/>
<text text-anchor="middle" x="309.37" y="-126.3" font-family="Times,serif" font-size="14.00">Checkwhathappens</text>
</g>
<!-- file:///Users/renskedewit/Documents/GitHub/cwl&#45;epitope/niaa_wf.cwl#fasta_path&#45;&gt;file:///Users/renskedewit/Documents/GitHub/cwl&#45;epitope/niaa_wf.cwl#generate_pc7 -->
<g id="edge1" class="edge">
<title>file:///Users/renskedewit/Documents/GitHub/cwl&#45;epitope/niaa_wf.cwl#fasta_path&#45;&gt;file:///Users/renskedewit/Documents/GitHub/cwl&#45;epitope/niaa_wf.cwl#generate_pc7</title>
<path fill="none" stroke="black" d="M477.37,-191.53C446.53,-180.42 401.57,-164.22 365.93,-151.38"/>
<polygon fill="black" stroke="black" points="366.74,-147.95 356.14,-147.85 364.36,-154.53 366.74,-147.95"/>
</g>
<!-- file:///Users/renskedewit/Documents/GitHub/cwl&#45;epitope/niaa_wf.cwl#generate_psp19 -->
<g id="node3" class="node">
<title>file:///Users/renskedewit/Documents/GitHub/cwl&#45;epitope/niaa_wf.cwl#generate_psp19</title>
<ellipse fill="none" stroke="black" cx="954.37" cy="-130" rx="317.64" ry="18"/>
<text text-anchor="middle" x="954.37" y="-126.3" font-family="Times,serif" font-size="14.00">file:///Users/renskedewit/Documents/GitHub/cwl&#45;epitope/niaa_wf.cwl#generate_psp19</text>
</g>
<!-- file:///Users/renskedewit/Documents/GitHub/cwl&#45;epitope/niaa_wf.cwl#fasta_path&#45;&gt;file:///Users/renskedewit/Documents/GitHub/cwl&#45;epitope/niaa_wf.cwl#generate_psp19 -->
<g id="edge2" class="edge">
<title>file:///Users/renskedewit/Documents/GitHub/cwl&#45;epitope/niaa_wf.cwl#fasta_path&#45;&gt;file:///Users/renskedewit/Documents/GitHub/cwl&#45;epitope/niaa_wf.cwl#generate_psp19</title>
<path fill="none" stroke="black" d="M549.46,-198.49C613.73,-187.77 750.35,-165 847.08,-148.88"/>
<polygon fill="black" stroke="black" points="847.91,-152.29 857.19,-147.2 846.76,-145.39 847.91,-152.29"/>
</g>
<!-- file:///Users/renskedewit/Documents/GitHub/cwl&#45;epitope/niaa_wf.cwl#pc7_features -->
<g id="node4" class="node">
<title>file:///Users/renskedewit/Documents/GitHub/cwl&#45;epitope/niaa_wf.cwl#pc7_features</title>
<polygon fill="#94ddf4" stroke="black" points="596.37,-39.5 596.37,-75.5 682.37,-75.5 682.37,-39.5 596.37,-39.5"/>
<text text-anchor="middle" x="639.37" y="-53.8" font-family="Times,serif" font-size="14.00">pc7_features</text>
</g>
<!-- file:///Users/renskedewit/Documents/GitHub/cwl&#45;epitope/niaa_wf.cwl#generate_pc7&#45;&gt;file:///Users/renskedewit/Documents/GitHub/cwl&#45;epitope/niaa_wf.cwl#pc7_features -->
<g id="edge3" class="edge">
<title>file:///Users/renskedewit/Documents/GitHub/cwl&#45;epitope/niaa_wf.cwl#generate_pc7&#45;&gt;file:///Users/renskedewit/Documents/GitHub/cwl&#45;epitope/niaa_wf.cwl#pc7_features</title>
<path fill="none" stroke="black" d="M386.33,-112.56C447.7,-99.45 532.05,-81.43 586.15,-69.87"/>
<polygon fill="black" stroke="black" points="587.17,-73.23 596.22,-67.72 585.71,-66.39 587.17,-73.23"/>
</g>
<!-- file:///Users/renskedewit/Documents/GitHub/cwl&#45;epitope/niaa_wf.cwl#psp19_features -->
<g id="node5" class="node">
<title>file:///Users/renskedewit/Documents/GitHub/cwl&#45;epitope/niaa_wf.cwl#psp19_features</title>
<polygon fill="#94ddf4" stroke="black" points="700.37,-39.5 700.37,-75.5 798.37,-75.5 798.37,-39.5 700.37,-39.5"/>
<text text-anchor="middle" x="749.37" y="-53.8" font-family="Times,serif" font-size="14.00">psp19_features</text>
</g>
<!-- file:///Users/renskedewit/Documents/GitHub/cwl&#45;epitope/niaa_wf.cwl#generate_psp19&#45;&gt;file:///Users/renskedewit/Documents/GitHub/cwl&#45;epitope/niaa_wf.cwl#psp19_features -->
<g id="edge4" class="edge">
<title>file:///Users/renskedewit/Documents/GitHub/cwl&#45;epitope/niaa_wf.cwl#generate_psp19&#45;&gt;file:///Users/renskedewit/Documents/GitHub/cwl&#45;epitope/niaa_wf.cwl#psp19_features</title>
<path fill="none" stroke="black" d="M905.53,-112.2C876.36,-102.17 839.11,-89.36 808.31,-78.77"/>
<polygon fill="black" stroke="black" points="809.15,-75.36 798.55,-75.41 806.87,-81.97 809.15,-75.36"/>
</g>
</g>
</svg>
