<?xml version="1.0" encoding="UTF-8" standalone="no"?>
<!DOCTYPE svg PUBLIC "-//W3C//DTD SVG 1.1//EN"
 "http://www.w3.org/Graphics/SVG/1.1/DTD/svg11.dtd">
<!-- Generated by graphviz version 3.0.0 (20220226.1711)
 -->
<!-- Title: G Pages: 1 -->
<svg width="670pt" height="687pt"
 viewBox="0.00 0.00 669.50 687.00" xmlns="http://www.w3.org/2000/svg" xmlns:xlink="http://www.w3.org/1999/xlink">
<g id="graph0" class="graph" transform="scale(1 1) rotate(0) translate(4 683)">
<title>G</title>
<polygon fill="#eeeeee" stroke="transparent" points="-4,4 -4,-683 665.5,-683 665.5,4 -4,4"/>
<g id="clust1" class="cluster">
<title>cluster_inputs</title>
<polygon fill="#eeeeee" stroke="black" stroke-dasharray="5,2" points="70.5,-595 70.5,-671 586.5,-671 586.5,-595 70.5,-595"/>
<text text-anchor="middle" x="532" y="-602.8" font-family="Times,serif" font-size="14.00">Workflow Inputs</text>
</g>
<g id="clust2" class="cluster">
<title>cluster_outputs</title>
<polygon fill="#eeeeee" stroke="black" stroke-dasharray="5,2" points="256.5,-8 256.5,-84 374.5,-84 374.5,-8 256.5,-8"/>
<text text-anchor="middle" x="315.5" y="-15.8" font-family="Times,serif" font-size="14.00">Workflow Outputs</text>
</g>
<!-- generate_ppi_labels -->
<g id="node1" class="node">
<title>generate_ppi_labels</title>
<polygon fill="lightgoldenrodyellow" stroke="black" points="211,-331.5 211,-367.5 336,-367.5 336,-331.5 211,-331.5"/>
<text text-anchor="middle" x="273.5" y="-345.8" font-family="Times,serif" font-size="14.00">generate_ppi_labels</text>
</g>
<!-- combine_features -->
<g id="node2" class="node">
<title>combine_features</title>
<polygon fill="none" stroke="black" stroke-dasharray="5,2" points="217,-185.5 217,-221.5 330,-221.5 330,-185.5 217,-185.5"/>
<text text-anchor="middle" x="273.5" y="-199.8" font-family="Times,serif" font-size="14.00">combine_features</text>
</g>
<!-- generate_ppi_labels&#45;&gt;combine_features -->
<g id="edge1" class="edge">
<title>generate_ppi_labels&#45;&gt;combine_features</title>
<path fill="none" stroke="black" d="M299.34,-331.34C310.88,-322.09 323.26,-309.59 329.5,-295 335.97,-279.88 335.97,-273.12 329.5,-258 324.63,-246.6 316,-236.48 306.96,-228.18"/>
<polygon fill="black" stroke="black" points="309.21,-225.5 299.34,-221.66 304.66,-230.82 309.21,-225.5"/>
</g>
<!-- generate_psp19 -->
<g id="node3" class="node">
<title>generate_psp19</title>
<polygon fill="lightgoldenrodyellow" stroke="black" points="0,-258.5 0,-294.5 101,-294.5 101,-258.5 0,-258.5"/>
<text text-anchor="middle" x="50.5" y="-272.8" font-family="Times,serif" font-size="14.00">generate_psp19</text>
</g>
<!-- generate_ppi_labels&#45;&gt;generate_psp19 -->
<g id="edge18" class="edge">
<title>generate_ppi_labels&#45;&gt;generate_psp19</title>
<path fill="none" stroke="black" d="M220.09,-331.49C187.25,-321.04 145.09,-307.61 111.02,-296.77"/>
<polygon fill="black" stroke="black" points="111.77,-293.33 101.18,-293.64 109.65,-300 111.77,-293.33"/>
</g>
<!-- generate_pc7 -->
<g id="node4" class="node">
<title>generate_pc7</title>
<polygon fill="lightgoldenrodyellow" stroke="black" points="119,-258.5 119,-294.5 208,-294.5 208,-258.5 119,-258.5"/>
<text text-anchor="middle" x="163.5" y="-272.8" font-family="Times,serif" font-size="14.00">generate_pc7</text>
</g>
<!-- generate_ppi_labels&#45;&gt;generate_pc7 -->
<g id="edge16" class="edge">
<title>generate_ppi_labels&#45;&gt;generate_pc7</title>
<path fill="none" stroke="black" d="M247.15,-331.49C232.57,-322.08 214.25,-310.26 198.48,-300.07"/>
<polygon fill="black" stroke="black" points="200.31,-297.1 190.01,-294.61 196.52,-302.98 200.31,-297.1"/>
</g>
<!-- generate_hhm -->
<g id="node5" class="node">
<title>generate_hhm</title>
<polygon fill="none" stroke="black" stroke-dasharray="5,2" points="226.5,-258.5 226.5,-294.5 320.5,-294.5 320.5,-258.5 226.5,-258.5"/>
<text text-anchor="middle" x="273.5" y="-272.8" font-family="Times,serif" font-size="14.00">generate_hhm</text>
</g>
<!-- generate_ppi_labels&#45;&gt;generate_hhm -->
<g id="edge15" class="edge">
<title>generate_ppi_labels&#45;&gt;generate_hhm</title>
<path fill="none" stroke="black" d="M273.5,-331.31C273.5,-323.29 273.5,-313.55 273.5,-304.57"/>
<polygon fill="black" stroke="black" points="277,-304.53 273.5,-294.53 270,-304.53 277,-304.53"/>
</g>
<!-- combine_labels -->
<g id="node7" class="node">
<title>combine_labels</title>
<polygon fill="lightgoldenrodyellow" stroke="black" points="376.5,-258.5 376.5,-294.5 478.5,-294.5 478.5,-258.5 376.5,-258.5"/>
<text text-anchor="middle" x="427.5" y="-272.8" font-family="Times,serif" font-size="14.00">combine_labels</text>
</g>
<!-- generate_ppi_labels&#45;&gt;combine_labels -->
<g id="edge6" class="edge">
<title>generate_ppi_labels&#45;&gt;combine_labels</title>
<path fill="none" stroke="black" d="M310.39,-331.49C331.66,-321.69 358.6,-309.27 381.28,-298.81"/>
<polygon fill="black" stroke="black" points="382.76,-301.98 390.38,-294.61 379.83,-295.62 382.76,-301.98"/>
</g>
<!-- train_epitope_prediction_model -->
<g id="node15" class="node">
<title>train_epitope_prediction_model</title>
<polygon fill="none" stroke="black" stroke-dasharray="5,2" points="220,-112.5 220,-148.5 411,-148.5 411,-112.5 220,-112.5"/>
<text text-anchor="middle" x="315.5" y="-126.8" font-family="Times,serif" font-size="14.00">train_epitope_prediction_model</text>
</g>
<!-- combine_features&#45;&gt;train_epitope_prediction_model -->
<g id="edge20" class="edge">
<title>combine_features&#45;&gt;train_epitope_prediction_model</title>
<path fill="none" stroke="black" d="M283.67,-185.31C288.62,-176.94 294.68,-166.7 300.18,-157.4"/>
<polygon fill="black" stroke="black" points="303.35,-158.92 305.43,-148.53 297.32,-155.35 303.35,-158.92"/>
</g>
<!-- generate_psp19&#45;&gt;combine_features -->
<g id="edge2" class="edge">
<title>generate_psp19&#45;&gt;combine_features</title>
<path fill="none" stroke="black" d="M101.1,-259.39C133.52,-249.07 175.85,-235.59 210.45,-224.57"/>
<polygon fill="black" stroke="black" points="211.52,-227.91 219.99,-221.54 209.4,-221.24 211.52,-227.91"/>
</g>
<!-- generate_pc7&#45;&gt;combine_features -->
<g id="edge3" class="edge">
<title>generate_pc7&#45;&gt;combine_features</title>
<path fill="none" stroke="black" d="M189.85,-258.49C204.43,-249.08 222.75,-237.26 238.52,-227.07"/>
<polygon fill="black" stroke="black" points="240.48,-229.98 246.99,-221.61 236.69,-224.1 240.48,-229.98"/>
</g>
<!-- generate_hhm&#45;&gt;combine_features -->
<g id="edge4" class="edge">
<title>generate_hhm&#45;&gt;combine_features</title>
<path fill="none" stroke="black" d="M273.5,-258.31C273.5,-250.29 273.5,-240.55 273.5,-231.57"/>
<polygon fill="black" stroke="black" points="277,-231.53 273.5,-221.53 270,-231.53 277,-231.53"/>
</g>
<!-- generate_dssp_labels -->
<g id="node6" class="node">
<title>generate_dssp_labels</title>
<polygon fill="lightgoldenrodyellow" stroke="black" points="523,-331.5 523,-367.5 654,-367.5 654,-331.5 523,-331.5"/>
<text text-anchor="middle" x="588.5" y="-345.8" font-family="Times,serif" font-size="14.00">generate_dssp_labels</text>
</g>
<!-- generate_dssp_labels&#45;&gt;combine_labels -->
<g id="edge5" class="edge">
<title>generate_dssp_labels&#45;&gt;combine_labels</title>
<path fill="none" stroke="black" d="M549.94,-331.49C527.6,-321.64 499.28,-309.16 475.51,-298.67"/>
<polygon fill="black" stroke="black" points="476.87,-295.45 466.31,-294.61 474.04,-301.85 476.87,-295.45"/>
</g>
<!-- combine_labels&#45;&gt;train_epitope_prediction_model -->
<g id="edge19" class="edge">
<title>combine_labels&#45;&gt;train_epitope_prediction_model</title>
<path fill="none" stroke="black" d="M414.21,-258.42C394.59,-233.19 357.76,-185.83 335.05,-156.64"/>
<polygon fill="black" stroke="black" points="337.67,-154.31 328.77,-148.56 332.15,-158.6 337.67,-154.31"/>
</g>
<!-- generate_epitope_labels -->
<g id="node8" class="node">
<title>generate_epitope_labels</title>
<polygon fill="none" stroke="black" stroke-dasharray="5,2" points="354,-331.5 354,-367.5 501,-367.5 501,-331.5 354,-331.5"/>
<text text-anchor="middle" x="427.5" y="-345.8" font-family="Times,serif" font-size="14.00">generate_epitope_labels</text>
</g>
<!-- generate_epitope_labels&#45;&gt;combine_labels -->
<g id="edge7" class="edge">
<title>generate_epitope_labels&#45;&gt;combine_labels</title>
<path fill="none" stroke="black" d="M427.5,-331.31C427.5,-323.29 427.5,-313.55 427.5,-304.57"/>
<polygon fill="black" stroke="black" points="431,-304.53 427.5,-294.53 424,-304.53 431,-304.53"/>
</g>
<!-- download_mmcif_files -->
<g id="node9" class="node">
<title>download_mmcif_files</title>
<polygon fill="lightgoldenrodyellow" stroke="black" points="359,-477.5 359,-513.5 502,-513.5 502,-477.5 359,-477.5"/>
<text text-anchor="middle" x="430.5" y="-491.8" font-family="Times,serif" font-size="14.00">download_mmcif_files</text>
</g>
<!-- decompress_mmcif_files -->
<g id="node10" class="node">
<title>decompress_mmcif_files</title>
<polygon fill="none" stroke="black" stroke-dasharray="5,2" points="350,-404.5 350,-440.5 505,-440.5 505,-404.5 350,-404.5"/>
<text text-anchor="middle" x="427.5" y="-418.8" font-family="Times,serif" font-size="14.00">decompress_mmcif_files</text>
</g>
<!-- download_mmcif_files&#45;&gt;decompress_mmcif_files -->
<g id="edge8" class="edge">
<title>download_mmcif_files&#45;&gt;decompress_mmcif_files</title>
<path fill="none" stroke="black" d="M429.77,-477.31C429.43,-469.29 429.02,-459.55 428.64,-450.57"/>
<polygon fill="black" stroke="black" points="432.14,-450.37 428.22,-440.53 425.14,-450.67 432.14,-450.37"/>
</g>
<!-- decompress_mmcif_files&#45;&gt;generate_ppi_labels -->
<g id="edge17" class="edge">
<title>decompress_mmcif_files&#45;&gt;generate_ppi_labels</title>
<path fill="none" stroke="black" d="M390.61,-404.49C369.34,-394.69 342.4,-382.27 319.72,-371.81"/>
<polygon fill="black" stroke="black" points="321.17,-368.62 310.62,-367.61 318.24,-374.98 321.17,-368.62"/>
</g>
<!-- decompress_mmcif_files&#45;&gt;generate_epitope_labels -->
<g id="edge14" class="edge">
<title>decompress_mmcif_files&#45;&gt;generate_epitope_labels</title>
<path fill="none" stroke="black" d="M427.5,-404.31C427.5,-396.29 427.5,-386.55 427.5,-377.57"/>
<polygon fill="black" stroke="black" points="431,-377.53 427.5,-367.53 424,-377.53 431,-377.53"/>
</g>
<!-- download_pdb_files -->
<g id="node11" class="node">
<title>download_pdb_files</title>
<polygon fill="lightgoldenrodyellow" stroke="black" points="526,-477.5 526,-513.5 653,-513.5 653,-477.5 526,-477.5"/>
<text text-anchor="middle" x="589.5" y="-491.8" font-family="Times,serif" font-size="14.00">download_pdb_files</text>
</g>
<!-- decompress_pdb_files -->
<g id="node12" class="node">
<title>decompress_pdb_files</title>
<polygon fill="none" stroke="black" stroke-dasharray="5,2" points="523.5,-404.5 523.5,-440.5 661.5,-440.5 661.5,-404.5 523.5,-404.5"/>
<text text-anchor="middle" x="592.5" y="-418.8" font-family="Times,serif" font-size="14.00">decompress_pdb_files</text>
</g>
<!-- download_pdb_files&#45;&gt;decompress_pdb_files -->
<g id="edge9" class="edge">
<title>download_pdb_files&#45;&gt;decompress_pdb_files</title>
<path fill="none" stroke="black" d="M590.23,-477.31C590.57,-469.29 590.98,-459.55 591.36,-450.57"/>
<polygon fill="black" stroke="black" points="594.86,-450.67 591.78,-440.53 587.86,-450.37 594.86,-450.67"/>
</g>
<!-- decompress_pdb_files&#45;&gt;generate_dssp_labels -->
<g id="edge12" class="edge">
<title>decompress_pdb_files&#45;&gt;generate_dssp_labels</title>
<path fill="none" stroke="black" d="M591.53,-404.31C591.08,-396.29 590.53,-386.55 590.03,-377.57"/>
<polygon fill="black" stroke="black" points="593.52,-377.32 589.46,-367.53 586.53,-377.71 593.52,-377.32"/>
</g>
<!-- run_pdb_query -->
<g id="node13" class="node">
<title>run_pdb_query</title>
<polygon fill="none" stroke="black" stroke-dasharray="5,2" points="492,-550.5 492,-586.5 591,-586.5 591,-550.5 492,-550.5"/>
<text text-anchor="middle" x="541.5" y="-564.8" font-family="Times,serif" font-size="14.00">run_pdb_query</text>
</g>
<!-- run_pdb_query&#45;&gt;download_mmcif_files -->
<g id="edge10" class="edge">
<title>run_pdb_query&#45;&gt;download_mmcif_files</title>
<path fill="none" stroke="black" d="M514.91,-550.49C500.19,-541.08 481.71,-529.26 465.79,-519.07"/>
<polygon fill="black" stroke="black" points="467.57,-516.05 457.26,-513.61 463.79,-521.95 467.57,-516.05"/>
</g>
<!-- run_pdb_query&#45;&gt;download_pdb_files -->
<g id="edge11" class="edge">
<title>run_pdb_query&#45;&gt;download_pdb_files</title>
<path fill="none" stroke="black" d="M553.12,-550.31C558.9,-541.77 565.99,-531.27 572.38,-521.82"/>
<polygon fill="black" stroke="black" points="575.29,-523.77 577.99,-513.53 569.49,-519.85 575.29,-523.77"/>
</g>
<!-- preprocess_sabdab_data -->
<g id="node14" class="node">
<title>preprocess_sabdab_data</title>
<polygon fill="lightgoldenrodyellow" stroke="black" points="313.5,-550.5 313.5,-586.5 461.5,-586.5 461.5,-550.5 313.5,-550.5"/>
<text text-anchor="middle" x="387.5" y="-564.8" font-family="Times,serif" font-size="14.00">preprocess_sabdab_data</text>
</g>
<!-- preprocess_sabdab_data&#45;&gt;generate_epitope_labels -->
<g id="edge13" class="edge">
<title>preprocess_sabdab_data&#45;&gt;generate_epitope_labels</title>
<path fill="none" stroke="black" d="M372.48,-550.41C364.61,-540.47 355.56,-527.3 350.5,-514 333.04,-468.16 317.68,-446.88 341.5,-404 348.79,-390.89 360.77,-380.57 373.5,-372.65"/>
<polygon fill="black" stroke="black" points="375.47,-375.55 382.39,-367.54 371.98,-369.49 375.47,-375.55"/>
</g>
<!-- predictions -->
<g id="node20" class="node">
<title>predictions</title>
<polygon fill="#94ddf4" stroke="black" points="277,-39.5 277,-75.5 354,-75.5 354,-39.5 277,-39.5"/>
<text text-anchor="middle" x="315.5" y="-53.8" font-family="Times,serif" font-size="14.00">predictions</text>
</g>
<!-- train_epitope_prediction_model&#45;&gt;predictions -->
<g id="edge25" class="edge">
<title>train_epitope_prediction_model&#45;&gt;predictions</title>
<path fill="none" stroke="black" d="M315.5,-112.31C315.5,-104.29 315.5,-94.55 315.5,-85.57"/>
<polygon fill="black" stroke="black" points="319,-85.53 315.5,-75.53 312,-85.53 319,-85.53"/>
</g>
<!-- biodl_test_dataset -->
<g id="node16" class="node">
<title>biodl_test_dataset</title>
<polygon fill="#94ddf4" stroke="black" points="216.5,-626.5 216.5,-662.5 330.5,-662.5 330.5,-626.5 216.5,-626.5"/>
<text text-anchor="middle" x="273.5" y="-640.8" font-family="Times,serif" font-size="14.00">biodl_test_dataset</text>
</g>
<!-- biodl_test_dataset&#45;&gt;generate_ppi_labels -->
<g id="edge21" class="edge">
<title>biodl_test_dataset&#45;&gt;generate_ppi_labels</title>
<path fill="none" stroke="black" d="M273.5,-626.48C273.5,-577.73 273.5,-437.26 273.5,-377.7"/>
<polygon fill="black" stroke="black" points="277,-377.57 273.5,-367.57 270,-377.57 277,-377.57"/>
</g>
<!-- biodl_train_dataset -->
<g id="node17" class="node">
<title>biodl_train_dataset</title>
<polygon fill="#94ddf4" stroke="black" points="78.5,-626.5 78.5,-662.5 198.5,-662.5 198.5,-626.5 78.5,-626.5"/>
<text text-anchor="middle" x="138.5" y="-640.8" font-family="Times,serif" font-size="14.00">biodl_train_dataset</text>
</g>
<!-- biodl_train_dataset&#45;&gt;generate_ppi_labels -->
<g id="edge22" class="edge">
<title>biodl_train_dataset&#45;&gt;generate_ppi_labels</title>
<path fill="none" stroke="black" d="M146.34,-626.48C168.9,-577.53 234.06,-436.09 261.31,-376.97"/>
<polygon fill="black" stroke="black" points="264.63,-378.11 265.64,-367.57 258.27,-375.18 264.63,-378.11"/>
</g>
<!-- sabdab_summary_file -->
<g id="node18" class="node">
<title>sabdab_summary_file</title>
<polygon fill="#94ddf4" stroke="black" points="349,-626.5 349,-662.5 486,-662.5 486,-626.5 349,-626.5"/>
<text text-anchor="middle" x="417.5" y="-640.8" font-family="Times,serif" font-size="14.00">sabdab_summary_file</text>
</g>
<!-- sabdab_summary_file&#45;&gt;preprocess_sabdab_data -->
<g id="edge23" class="edge">
<title>sabdab_summary_file&#45;&gt;preprocess_sabdab_data</title>
<path fill="none" stroke="black" d="M410.54,-626.34C406.91,-617.37 402.38,-606.2 398.3,-596.14"/>
<polygon fill="black" stroke="black" points="401.42,-594.52 394.42,-586.57 394.93,-597.15 401.42,-594.52"/>
</g>
<!-- pdb_query -->
<g id="node19" class="node">
<title>pdb_query</title>
<polygon fill="#94ddf4" stroke="black" points="504.5,-626.5 504.5,-662.5 578.5,-662.5 578.5,-626.5 504.5,-626.5"/>
<text text-anchor="middle" x="541.5" y="-640.8" font-family="Times,serif" font-size="14.00">pdb_query</text>
</g>
<!-- pdb_query&#45;&gt;run_pdb_query -->
<g id="edge24" class="edge">
<title>pdb_query&#45;&gt;run_pdb_query</title>
<path fill="none" stroke="black" d="M541.5,-626.34C541.5,-617.56 541.5,-606.66 541.5,-596.77"/>
<polygon fill="black" stroke="black" points="545,-596.57 541.5,-586.57 538,-596.57 545,-596.57"/>
</g>
</g>
</svg>
