<?xml version="1.0" encoding="UTF-8" standalone="no"?>
<!DOCTYPE svg PUBLIC "-//W3C//DTD SVG 1.1//EN"
 "http://www.w3.org/Graphics/SVG/1.1/DTD/svg11.dtd">
<!-- Generated by graphviz version 3.0.0 (20220226.1711)
 -->
<!-- Title: G Pages: 1 -->
<svg width="937pt" height="429pt"
 viewBox="0.00 0.00 936.64 429.00" xmlns="http://www.w3.org/2000/svg" xmlns:xlink="http://www.w3.org/1999/xlink">
<g id="graph0" class="graph" transform="scale(1 1) rotate(0) translate(4 425)">
<title>G</title>
<polygon fill="#eeeeee" stroke="transparent" points="-4,4 -4,-425 932.64,-425 932.64,4 -4,4"/>
<g id="clust1" class="cluster">
<title>cluster_inputs</title>
<polygon fill="#eeeeee" stroke="black" stroke-dasharray="5,2" points="8,-337 8,-413 671,-413 671,-337 8,-337"/>
<text text-anchor="middle" x="616.5" y="-344.8" font-family="Times,serif" font-size="14.00">Workflow Inputs</text>
</g>
<!-- generate_dssp_labels -->
<g id="node1" class="node">
<title>generate_dssp_labels</title>
<polygon fill="lightgoldenrodyellow" stroke="black" points="193.5,-73.5 193.5,-109.5 324.5,-109.5 324.5,-73.5 193.5,-73.5"/>
<text text-anchor="middle" x="259" y="-87.8" font-family="Times,serif" font-size="14.00">generate_dssp_labels</text>
</g>
<!-- combine_labels -->
<g id="node2" class="node">
<title>combine_labels</title>
<polygon fill="lightgoldenrodyellow" stroke="black" points="208,-0.5 208,-36.5 310,-36.5 310,-0.5 208,-0.5"/>
<text text-anchor="middle" x="259" y="-14.8" font-family="Times,serif" font-size="14.00">combine_labels</text>
</g>
<!-- generate_dssp_labels&#45;&gt;combine_labels -->
<g id="edge1" class="edge">
<title>generate_dssp_labels&#45;&gt;combine_labels</title>
<path fill="none" stroke="black" d="M259,-73.31C259,-65.29 259,-55.55 259,-46.57"/>
<polygon fill="black" stroke="black" points="262.5,-46.53 259,-36.53 255.5,-46.53 262.5,-46.53"/>
</g>
<!-- generate_ppi_labels -->
<g id="node3" class="node">
<title>generate_ppi_labels</title>
<polygon fill="lightgoldenrodyellow" stroke="black" points="30.5,-73.5 30.5,-109.5 155.5,-109.5 155.5,-73.5 30.5,-73.5"/>
<text text-anchor="middle" x="93" y="-87.8" font-family="Times,serif" font-size="14.00">generate_ppi_labels</text>
</g>
<!-- generate_ppi_labels&#45;&gt;combine_labels -->
<g id="edge2" class="edge">
<title>generate_ppi_labels&#45;&gt;combine_labels</title>
<path fill="none" stroke="black" d="M132.76,-73.49C155.79,-63.64 184.99,-51.16 209.5,-40.67"/>
<polygon fill="black" stroke="black" points="211.17,-43.76 218.99,-36.61 208.42,-37.33 211.17,-43.76"/>
</g>
<!-- generate_epitope_labels -->
<g id="node4" class="node">
<title>generate_epitope_labels</title>
<polygon fill="lightgoldenrodyellow" stroke="black" points="342.5,-73.5 342.5,-109.5 489.5,-109.5 489.5,-73.5 342.5,-73.5"/>
<text text-anchor="middle" x="416" y="-87.8" font-family="Times,serif" font-size="14.00">generate_epitope_labels</text>
</g>
<!-- generate_epitope_labels&#45;&gt;combine_labels -->
<g id="edge3" class="edge">
<title>generate_epitope_labels&#45;&gt;combine_labels</title>
<path fill="none" stroke="black" d="M378.39,-73.49C356.71,-63.69 329.24,-51.27 306.12,-40.81"/>
<polygon fill="black" stroke="black" points="307.4,-37.55 296.84,-36.61 304.51,-43.92 307.4,-37.55"/>
</g>
<!-- download_pdb_files -->
<g id="node5" class="node">
<title>download_pdb_files</title>
<polygon fill="lightgoldenrodyellow" stroke="black" points="210.5,-219.5 210.5,-255.5 337.5,-255.5 337.5,-219.5 210.5,-219.5"/>
<text text-anchor="middle" x="274" y="-233.8" font-family="Times,serif" font-size="14.00">download_pdb_files</text>
</g>
<!-- decompress_pdb_files -->
<g id="node6" class="node">
<title>decompress_pdb_files</title>
<polygon fill="lightgoldenrodyellow" stroke="black" points="200,-146.5 200,-182.5 338,-182.5 338,-146.5 200,-146.5"/>
<text text-anchor="middle" x="269" y="-160.8" font-family="Times,serif" font-size="14.00">decompress_pdb_files</text>
</g>
<!-- download_pdb_files&#45;&gt;decompress_pdb_files -->
<g id="edge4" class="edge">
<title>download_pdb_files&#45;&gt;decompress_pdb_files</title>
<path fill="none" stroke="black" d="M272.79,-219.31C272.22,-211.29 271.54,-201.55 270.91,-192.57"/>
<polygon fill="black" stroke="black" points="274.39,-192.26 270.2,-182.53 267.41,-192.75 274.39,-192.26"/>
</g>
<!-- decompress_pdb_files&#45;&gt;generate_dssp_labels -->
<g id="edge6" class="edge">
<title>decompress_pdb_files&#45;&gt;generate_dssp_labels</title>
<path fill="none" stroke="black" d="M266.58,-146.31C265.45,-138.29 264.08,-128.55 262.81,-119.57"/>
<polygon fill="black" stroke="black" points="266.26,-118.94 261.4,-109.53 259.33,-119.92 266.26,-118.94"/>
</g>
<!-- decompress_pdb_files&#45;&gt;generate_ppi_labels -->
<g id="edge9" class="edge">
<title>decompress_pdb_files&#45;&gt;generate_ppi_labels</title>
<path fill="none" stroke="black" d="M226.84,-146.49C202.21,-136.56 170.92,-123.93 144.79,-113.39"/>
<polygon fill="black" stroke="black" points="146.01,-110.11 135.42,-109.61 143.39,-116.6 146.01,-110.11"/>
</g>
<!-- decompress_pdb_files&#45;&gt;generate_epitope_labels -->
<g id="edge7" class="edge">
<title>decompress_pdb_files&#45;&gt;generate_epitope_labels</title>
<path fill="none" stroke="black" d="M304.21,-146.49C324.34,-136.77 349.77,-124.49 371.3,-114.09"/>
<polygon fill="black" stroke="black" points="373.09,-117.11 380.57,-109.61 370.04,-110.81 373.09,-117.11"/>
</g>
<!-- run_pdb_query -->
<g id="node7" class="node">
<title>run_pdb_query</title>
<polygon fill="lightgoldenrodyellow" stroke="black" points="80.5,-292.5 80.5,-328.5 479.5,-328.5 479.5,-292.5 80.5,-292.5"/>
<text text-anchor="middle" x="280" y="-306.8" font-family="Times,serif" font-size="14.00">Query PDB search API and store output in comma&#45;separated text file.</text>
</g>
<!-- run_pdb_query&#45;&gt;download_pdb_files -->
<g id="edge5" class="edge">
<title>run_pdb_query&#45;&gt;download_pdb_files</title>
<path fill="none" stroke="black" d="M278.55,-292.31C277.87,-284.29 277.05,-274.55 276.29,-265.57"/>
<polygon fill="black" stroke="black" points="279.77,-265.2 275.44,-255.53 272.79,-265.79 279.77,-265.2"/>
</g>
<!-- preprocess_sabdab_data -->
<g id="node8" class="node">
<title>preprocess_sabdab_data</title>
<polygon fill="lightgoldenrodyellow" stroke="black" points="498,-292.5 498,-328.5 646,-328.5 646,-292.5 498,-292.5"/>
<text text-anchor="middle" x="572" y="-306.8" font-family="Times,serif" font-size="14.00">preprocess_sabdab_data</text>
</g>
<!-- preprocess_sabdab_data&#45;&gt;generate_epitope_labels -->
<g id="edge8" class="edge">
<title>preprocess_sabdab_data&#45;&gt;generate_epitope_labels</title>
<path fill="none" stroke="black" d="M559.76,-292.47C532.49,-254.54 466.61,-162.89 434.38,-118.06"/>
<polygon fill="black" stroke="black" points="437.08,-115.83 428.4,-109.75 431.4,-119.91 437.08,-115.83"/>
</g>
<!-- fasta_dir -->
<g id="node9" class="node">
<title>fasta_dir</title>
<polygon fill="#94ddf4" stroke="black" points="599,-368.5 599,-404.5 663,-404.5 663,-368.5 599,-368.5"/>
<text text-anchor="middle" x="631" y="-382.8" font-family="Times,serif" font-size="14.00">fasta_dir</text>
</g>
<!-- generate_pc7 -->
<g id="node14" class="node">
<title>generate_pc7</title>
<ellipse fill="none" stroke="black" cx="722" cy="-310.5" rx="57.69" ry="18"/>
<text text-anchor="middle" x="722" y="-306.8" font-family="Times,serif" font-size="14.00">generate_pc7</text>
</g>
<!-- fasta_dir&#45;&gt;generate_pc7 -->
<g id="edge10" class="edge">
<title>fasta_dir&#45;&gt;generate_pc7</title>
<path fill="none" stroke="black" d="M652.11,-368.34C664.63,-358.15 680.65,-345.12 694.19,-334.11"/>
<polygon fill="black" stroke="black" points="696.7,-336.58 702.25,-327.56 692.29,-331.15 696.7,-336.58"/>
</g>
<!-- generate_psp19 -->
<g id="node15" class="node">
<title>generate_psp19</title>
<ellipse fill="none" stroke="black" cx="863" cy="-310.5" rx="65.79" ry="18"/>
<text text-anchor="middle" x="863" y="-306.8" font-family="Times,serif" font-size="14.00">generate_psp19</text>
</g>
<!-- fasta_dir&#45;&gt;generate_psp19 -->
<g id="edge11" class="edge">
<title>fasta_dir&#45;&gt;generate_psp19</title>
<path fill="none" stroke="black" d="M663.26,-375.21C701.89,-362.89 767.04,-342.11 812.39,-327.64"/>
<polygon fill="black" stroke="black" points="813.57,-330.94 822.03,-324.57 811.44,-324.27 813.57,-330.94"/>
</g>
<!-- biodl_test_dataset -->
<g id="node10" class="node">
<title>biodl_test_dataset</title>
<polygon fill="#94ddf4" stroke="black" points="16,-368.5 16,-404.5 130,-404.5 130,-368.5 16,-368.5"/>
<text text-anchor="middle" x="73" y="-382.8" font-family="Times,serif" font-size="14.00">biodl_test_dataset</text>
</g>
<!-- biodl_test_dataset&#45;&gt;generate_ppi_labels -->
<g id="edge12" class="edge">
<title>biodl_test_dataset&#45;&gt;generate_ppi_labels</title>
<path fill="none" stroke="black" d="M58.89,-368.4C51.07,-357.77 42.11,-343.43 38,-329 15.73,-250.77 6.36,-220.93 38,-146 42.77,-134.71 51.22,-124.62 60.09,-116.33"/>
<polygon fill="black" stroke="black" points="62.66,-118.73 67.9,-109.52 58.06,-113.45 62.66,-118.73"/>
</g>
<!-- biodl_train_dataset -->
<g id="node11" class="node">
<title>biodl_train_dataset</title>
<polygon fill="#94ddf4" stroke="black" points="148,-368.5 148,-404.5 268,-404.5 268,-368.5 148,-368.5"/>
<text text-anchor="middle" x="208" y="-382.8" font-family="Times,serif" font-size="14.00">biodl_train_dataset</text>
</g>
<!-- biodl_train_dataset&#45;&gt;generate_ppi_labels -->
<g id="edge13" class="edge">
<title>biodl_train_dataset&#45;&gt;generate_ppi_labels</title>
<path fill="none" stroke="black" d="M189.28,-368.44C176.18,-357.55 157.74,-344.16 139,-337 124.79,-331.57 81.11,-340.37 71,-329 18.57,-270.05 56.8,-167.12 79.46,-118.87"/>
<polygon fill="black" stroke="black" points="82.68,-120.24 83.88,-109.71 76.38,-117.19 82.68,-120.24"/>
</g>
<!-- sabdab_summary_file -->
<g id="node12" class="node">
<title>sabdab_summary_file</title>
<polygon fill="#94ddf4" stroke="black" points="443.5,-368.5 443.5,-404.5 580.5,-404.5 580.5,-368.5 443.5,-368.5"/>
<text text-anchor="middle" x="512" y="-382.8" font-family="Times,serif" font-size="14.00">sabdab_summary_file</text>
</g>
<!-- sabdab_summary_file&#45;&gt;preprocess_sabdab_data -->
<g id="edge14" class="edge">
<title>sabdab_summary_file&#45;&gt;preprocess_sabdab_data</title>
<path fill="none" stroke="black" d="M525.92,-368.34C533.56,-358.9 543.19,-347.03 551.67,-336.57"/>
<polygon fill="black" stroke="black" points="554.58,-338.54 558.16,-328.57 549.14,-334.13 554.58,-338.54"/>
</g>
<!-- pdb_search_api_query -->
<g id="node13" class="node">
<title>pdb_search_api_query</title>
<polygon fill="#94ddf4" stroke="black" points="286.5,-368.5 286.5,-404.5 425.5,-404.5 425.5,-368.5 286.5,-368.5"/>
<text text-anchor="middle" x="356" y="-382.8" font-family="Times,serif" font-size="14.00">pdb_search_api_query</text>
</g>
<!-- pdb_search_api_query&#45;&gt;run_pdb_query -->
<g id="edge15" class="edge">
<title>pdb_search_api_query&#45;&gt;run_pdb_query</title>
<path fill="none" stroke="black" d="M338.37,-368.34C328.4,-358.62 315.76,-346.32 304.8,-335.65"/>
<polygon fill="black" stroke="black" points="307.14,-333.04 297.53,-328.57 302.25,-338.05 307.14,-333.04"/>
</g>
</g>
</svg>
