<?xml version="1.0" encoding="UTF-8" standalone="no"?>
<!DOCTYPE svg PUBLIC "-//W3C//DTD SVG 1.1//EN"
 "http://www.w3.org/Graphics/SVG/1.1/DTD/svg11.dtd">
<!-- Generated by graphviz version 3.0.0 (20220226.1711)
 -->
<!-- Title: G Pages: 1 -->
<svg width="667pt" height="687pt"
 viewBox="0.00 0.00 667.00 687.00" xmlns="http://www.w3.org/2000/svg" xmlns:xlink="http://www.w3.org/1999/xlink">
<g id="graph0" class="graph" transform="scale(1 1) rotate(0) translate(4 683)">
<title>G</title>
<polygon fill="#eeeeee" stroke="transparent" points="-4,4 -4,-683 663,-683 663,4 -4,4"/>
<g id="clust1" class="cluster">
<title>cluster_inputs</title>
<polygon fill="#eeeeee" stroke="black" stroke-dasharray="5,2" points="70,-595 70,-671 651,-671 651,-595 70,-595"/>
<text text-anchor="middle" x="596.5" y="-602.8" font-family="Times,serif" font-size="14.00">Workflow Inputs</text>
</g>
<g id="clust2" class="cluster">
<title>cluster_outputs</title>
<polygon fill="#eeeeee" stroke="black" stroke-dasharray="5,2" points="253,-8 253,-84 371,-84 371,-8 253,-8"/>
<text text-anchor="middle" x="312" y="-15.8" font-family="Times,serif" font-size="14.00">Workflow Outputs</text>
</g>
<!-- generate_psp19 -->
<g id="node1" class="node">
<title>generate_psp19</title>
<polygon fill="lightgoldenrodyellow" stroke="black" points="219.5,-258.5 219.5,-294.5 320.5,-294.5 320.5,-258.5 219.5,-258.5"/>
<text text-anchor="middle" x="270" y="-272.8" font-family="Times,serif" font-size="14.00">generate_psp19</text>
</g>
<!-- combine_features -->
<g id="node2" class="node">
<title>combine_features</title>
<polygon fill="none" stroke="black" stroke-dasharray="5,2" points="213.5,-185.5 213.5,-221.5 326.5,-221.5 326.5,-185.5 213.5,-185.5"/>
<text text-anchor="middle" x="270" y="-199.8" font-family="Times,serif" font-size="14.00">combine_features</text>
</g>
<!-- generate_psp19&#45;&gt;combine_features -->
<g id="edge1" class="edge">
<title>generate_psp19&#45;&gt;combine_features</title>
<path fill="none" stroke="black" d="M270,-258.31C270,-250.29 270,-240.55 270,-231.57"/>
<polygon fill="black" stroke="black" points="273.5,-231.53 270,-221.53 266.5,-231.53 273.5,-231.53"/>
</g>
<!-- train_epitope_prediction_model -->
<g id="node13" class="node">
<title>train_epitope_prediction_model</title>
<polygon fill="none" stroke="black" stroke-dasharray="5,2" points="216.5,-112.5 216.5,-148.5 407.5,-148.5 407.5,-112.5 216.5,-112.5"/>
<text text-anchor="middle" x="312" y="-126.8" font-family="Times,serif" font-size="14.00">train_epitope_prediction_model</text>
</g>
<!-- combine_features&#45;&gt;train_epitope_prediction_model -->
<g id="edge17" class="edge">
<title>combine_features&#45;&gt;train_epitope_prediction_model</title>
<path fill="none" stroke="black" d="M280.17,-185.31C285.12,-176.94 291.18,-166.7 296.68,-157.4"/>
<polygon fill="black" stroke="black" points="299.85,-158.92 301.93,-148.53 293.82,-155.35 299.85,-158.92"/>
</g>
<!-- generate_hhm -->
<g id="node3" class="node">
<title>generate_hhm</title>
<polygon fill="none" stroke="black" stroke-dasharray="5,2" points="0,-258.5 0,-294.5 94,-294.5 94,-258.5 0,-258.5"/>
<text text-anchor="middle" x="47" y="-272.8" font-family="Times,serif" font-size="14.00">generate_hhm</text>
</g>
<!-- generate_hhm&#45;&gt;combine_features -->
<g id="edge2" class="edge">
<title>generate_hhm&#45;&gt;combine_features</title>
<path fill="none" stroke="black" d="M94.02,-260.53C126.72,-250.12 170.71,-236.11 206.52,-224.71"/>
<polygon fill="black" stroke="black" points="207.92,-227.94 216.39,-221.57 205.8,-221.27 207.92,-227.94"/>
</g>
<!-- generate_pc7 -->
<g id="node4" class="node">
<title>generate_pc7</title>
<polygon fill="lightgoldenrodyellow" stroke="black" points="112.5,-258.5 112.5,-294.5 201.5,-294.5 201.5,-258.5 112.5,-258.5"/>
<text text-anchor="middle" x="157" y="-272.8" font-family="Times,serif" font-size="14.00">generate_pc7</text>
</g>
<!-- generate_pc7&#45;&gt;combine_features -->
<g id="edge3" class="edge">
<title>generate_pc7&#45;&gt;combine_features</title>
<path fill="none" stroke="black" d="M184.07,-258.49C199.05,-249.08 217.87,-237.26 234.07,-227.07"/>
<polygon fill="black" stroke="black" points="236.16,-229.9 242.76,-221.61 232.43,-223.97 236.16,-229.9"/>
</g>
<!-- generate_ppi_labels -->
<g id="node5" class="node">
<title>generate_ppi_labels</title>
<polygon fill="lightgoldenrodyellow" stroke="black" points="207.5,-331.5 207.5,-367.5 332.5,-367.5 332.5,-331.5 207.5,-331.5"/>
<text text-anchor="middle" x="270" y="-345.8" font-family="Times,serif" font-size="14.00">generate_ppi_labels</text>
</g>
<!-- generate_ppi_labels&#45;&gt;generate_psp19 -->
<g id="edge16" class="edge">
<title>generate_ppi_labels&#45;&gt;generate_psp19</title>
<path fill="none" stroke="black" d="M270,-331.31C270,-323.29 270,-313.55 270,-304.57"/>
<polygon fill="black" stroke="black" points="273.5,-304.53 270,-294.53 266.5,-304.53 273.5,-304.53"/>
</g>
<!-- generate_ppi_labels&#45;&gt;combine_features -->
<g id="edge4" class="edge">
<title>generate_ppi_labels&#45;&gt;combine_features</title>
<path fill="none" stroke="black" d="M297.95,-331.49C310.22,-322.36 323.32,-309.9 330,-295 336.72,-279.99 336.72,-273.01 330,-258 324.78,-246.36 315.64,-236.21 306.04,-227.97"/>
<polygon fill="black" stroke="black" points="307.95,-225.01 297.95,-221.51 303.58,-230.49 307.95,-225.01"/>
</g>
<!-- generate_ppi_labels&#45;&gt;generate_hhm -->
<g id="edge13" class="edge">
<title>generate_ppi_labels&#45;&gt;generate_hhm</title>
<path fill="none" stroke="black" d="M216.59,-331.49C182.69,-320.7 138.87,-306.75 104.26,-295.73"/>
<polygon fill="black" stroke="black" points="104.89,-292.26 94.3,-292.56 102.76,-298.93 104.89,-292.26"/>
</g>
<!-- generate_ppi_labels&#45;&gt;generate_pc7 -->
<g id="edge14" class="edge">
<title>generate_ppi_labels&#45;&gt;generate_pc7</title>
<path fill="none" stroke="black" d="M242.93,-331.49C227.95,-322.08 209.13,-310.26 192.93,-300.07"/>
<polygon fill="black" stroke="black" points="194.57,-296.97 184.24,-294.61 190.84,-302.9 194.57,-296.97"/>
</g>
<!-- combine_labels -->
<g id="node6" class="node">
<title>combine_labels</title>
<polygon fill="lightgoldenrodyellow" stroke="black" points="377,-258.5 377,-294.5 479,-294.5 479,-258.5 377,-258.5"/>
<text text-anchor="middle" x="428" y="-272.8" font-family="Times,serif" font-size="14.00">combine_labels</text>
</g>
<!-- generate_ppi_labels&#45;&gt;combine_labels -->
<g id="edge5" class="edge">
<title>generate_ppi_labels&#45;&gt;combine_labels</title>
<path fill="none" stroke="black" d="M307.84,-331.49C329.67,-321.69 357.31,-309.27 380.58,-298.81"/>
<polygon fill="black" stroke="black" points="382.23,-301.9 389.92,-294.61 379.36,-295.52 382.23,-301.9"/>
</g>
<!-- combine_labels&#45;&gt;train_epitope_prediction_model -->
<g id="edge18" class="edge">
<title>combine_labels&#45;&gt;train_epitope_prediction_model</title>
<path fill="none" stroke="black" d="M414.24,-258.42C393.92,-233.19 355.76,-185.83 332.25,-156.64"/>
<polygon fill="black" stroke="black" points="334.74,-154.15 325.74,-148.56 329.29,-158.55 334.74,-154.15"/>
</g>
<!-- generate_dssp_labels -->
<g id="node7" class="node">
<title>generate_dssp_labels</title>
<polygon fill="lightgoldenrodyellow" stroke="black" points="351.5,-331.5 351.5,-367.5 482.5,-367.5 482.5,-331.5 351.5,-331.5"/>
<text text-anchor="middle" x="417" y="-345.8" font-family="Times,serif" font-size="14.00">generate_dssp_labels</text>
</g>
<!-- generate_dssp_labels&#45;&gt;combine_labels -->
<g id="edge6" class="edge">
<title>generate_dssp_labels&#45;&gt;combine_labels</title>
<path fill="none" stroke="black" d="M419.66,-331.31C420.91,-323.29 422.42,-313.55 423.81,-304.57"/>
<polygon fill="black" stroke="black" points="427.29,-304.95 425.36,-294.53 420.37,-303.88 427.29,-304.95"/>
</g>
<!-- generate_epitope_labels -->
<g id="node8" class="node">
<title>generate_epitope_labels</title>
<polygon fill="lightgoldenrodyellow" stroke="black" points="500.5,-331.5 500.5,-367.5 647.5,-367.5 647.5,-331.5 500.5,-331.5"/>
<text text-anchor="middle" x="574" y="-345.8" font-family="Times,serif" font-size="14.00">generate_epitope_labels</text>
</g>
<!-- generate_epitope_labels&#45;&gt;combine_labels -->
<g id="edge7" class="edge">
<title>generate_epitope_labels&#45;&gt;combine_labels</title>
<path fill="none" stroke="black" d="M539.03,-331.49C519.04,-321.77 493.78,-309.49 472.4,-299.09"/>
<polygon fill="black" stroke="black" points="473.71,-295.84 463.19,-294.61 470.65,-302.13 473.71,-295.84"/>
</g>
<!-- download_pdb_files -->
<g id="node9" class="node">
<title>download_pdb_files</title>
<polygon fill="lightgoldenrodyellow" stroke="black" points="353.5,-477.5 353.5,-513.5 480.5,-513.5 480.5,-477.5 353.5,-477.5"/>
<text text-anchor="middle" x="417" y="-491.8" font-family="Times,serif" font-size="14.00">download_pdb_files</text>
</g>
<!-- decompress_pdb_files -->
<g id="node10" class="node">
<title>decompress_pdb_files</title>
<polygon fill="lightgoldenrodyellow" stroke="black" points="348,-404.5 348,-440.5 486,-440.5 486,-404.5 348,-404.5"/>
<text text-anchor="middle" x="417" y="-418.8" font-family="Times,serif" font-size="14.00">decompress_pdb_files</text>
</g>
<!-- download_pdb_files&#45;&gt;decompress_pdb_files -->
<g id="edge8" class="edge">
<title>download_pdb_files&#45;&gt;decompress_pdb_files</title>
<path fill="none" stroke="black" d="M417,-477.31C417,-469.29 417,-459.55 417,-450.57"/>
<polygon fill="black" stroke="black" points="420.5,-450.53 417,-440.53 413.5,-450.53 420.5,-450.53"/>
</g>
<!-- decompress_pdb_files&#45;&gt;generate_ppi_labels -->
<g id="edge15" class="edge">
<title>decompress_pdb_files&#45;&gt;generate_ppi_labels</title>
<path fill="none" stroke="black" d="M381.79,-404.49C361.66,-394.77 336.23,-382.49 314.7,-372.09"/>
<polygon fill="black" stroke="black" points="315.96,-368.81 305.43,-367.61 312.91,-375.11 315.96,-368.81"/>
</g>
<!-- decompress_pdb_files&#45;&gt;generate_dssp_labels -->
<g id="edge10" class="edge">
<title>decompress_pdb_files&#45;&gt;generate_dssp_labels</title>
<path fill="none" stroke="black" d="M417,-404.31C417,-396.29 417,-386.55 417,-377.57"/>
<polygon fill="black" stroke="black" points="420.5,-377.53 417,-367.53 413.5,-377.53 420.5,-377.53"/>
</g>
<!-- decompress_pdb_files&#45;&gt;generate_epitope_labels -->
<g id="edge11" class="edge">
<title>decompress_pdb_files&#45;&gt;generate_epitope_labels</title>
<path fill="none" stroke="black" d="M454.61,-404.49C476.29,-394.69 503.76,-382.27 526.88,-371.81"/>
<polygon fill="black" stroke="black" points="528.49,-374.92 536.16,-367.61 525.6,-368.55 528.49,-374.92"/>
</g>
<!-- run_pdb_query -->
<g id="node11" class="node">
<title>run_pdb_query</title>
<polygon fill="lightgoldenrodyellow" stroke="black" points="367.5,-550.5 367.5,-586.5 466.5,-586.5 466.5,-550.5 367.5,-550.5"/>
<text text-anchor="middle" x="417" y="-564.8" font-family="Times,serif" font-size="14.00">run_pdb_query</text>
</g>
<!-- run_pdb_query&#45;&gt;download_pdb_files -->
<g id="edge9" class="edge">
<title>run_pdb_query&#45;&gt;download_pdb_files</title>
<path fill="none" stroke="black" d="M417,-550.31C417,-542.29 417,-532.55 417,-523.57"/>
<polygon fill="black" stroke="black" points="420.5,-523.53 417,-513.53 413.5,-523.53 420.5,-523.53"/>
</g>
<!-- preprocess_sabdab_data -->
<g id="node12" class="node">
<title>preprocess_sabdab_data</title>
<polygon fill="lightgoldenrodyellow" stroke="black" points="500,-550.5 500,-586.5 648,-586.5 648,-550.5 500,-550.5"/>
<text text-anchor="middle" x="574" y="-564.8" font-family="Times,serif" font-size="14.00">preprocess_sabdab_data</text>
</g>
<!-- preprocess_sabdab_data&#45;&gt;generate_epitope_labels -->
<g id="edge12" class="edge">
<title>preprocess_sabdab_data&#45;&gt;generate_epitope_labels</title>
<path fill="none" stroke="black" d="M574,-550.47C574,-513.01 574,-423.18 574,-377.76"/>
<polygon fill="black" stroke="black" points="577.5,-377.75 574,-367.75 570.5,-377.75 577.5,-377.75"/>
</g>
<!-- predictions -->
<g id="node18" class="node">
<title>predictions</title>
<polygon fill="#94ddf4" stroke="black" points="273.5,-39.5 273.5,-75.5 350.5,-75.5 350.5,-39.5 273.5,-39.5"/>
<text text-anchor="middle" x="312" y="-53.8" font-family="Times,serif" font-size="14.00">predictions</text>
</g>
<!-- train_epitope_prediction_model&#45;&gt;predictions -->
<g id="edge23" class="edge">
<title>train_epitope_prediction_model&#45;&gt;predictions</title>
<path fill="none" stroke="black" d="M312,-112.31C312,-104.29 312,-94.55 312,-85.57"/>
<polygon fill="black" stroke="black" points="315.5,-85.53 312,-75.53 308.5,-85.53 315.5,-85.53"/>
</g>
<!-- biodl_test_dataset -->
<g id="node14" class="node">
<title>biodl_test_dataset</title>
<polygon fill="#94ddf4" stroke="black" points="78,-626.5 78,-662.5 192,-662.5 192,-626.5 78,-626.5"/>
<text text-anchor="middle" x="135" y="-640.8" font-family="Times,serif" font-size="14.00">biodl_test_dataset</text>
</g>
<!-- biodl_test_dataset&#45;&gt;generate_ppi_labels -->
<g id="edge19" class="edge">
<title>biodl_test_dataset&#45;&gt;generate_ppi_labels</title>
<path fill="none" stroke="black" d="M142.84,-626.48C165.4,-577.53 230.56,-436.09 257.81,-376.97"/>
<polygon fill="black" stroke="black" points="261.13,-378.11 262.14,-367.57 254.77,-375.18 261.13,-378.11"/>
</g>
<!-- biodl_train_dataset -->
<g id="node15" class="node">
<title>biodl_train_dataset</title>
<polygon fill="#94ddf4" stroke="black" points="210,-626.5 210,-662.5 330,-662.5 330,-626.5 210,-626.5"/>
<text text-anchor="middle" x="270" y="-640.8" font-family="Times,serif" font-size="14.00">biodl_train_dataset</text>
</g>
<!-- biodl_train_dataset&#45;&gt;generate_ppi_labels -->
<g id="edge20" class="edge">
<title>biodl_train_dataset&#45;&gt;generate_ppi_labels</title>
<path fill="none" stroke="black" d="M270,-626.48C270,-577.73 270,-437.26 270,-377.7"/>
<polygon fill="black" stroke="black" points="273.5,-377.57 270,-367.57 266.5,-377.57 273.5,-377.57"/>
</g>
<!-- sabdab_summary_file -->
<g id="node16" class="node">
<title>sabdab_summary_file</title>
<polygon fill="#94ddf4" stroke="black" points="505.5,-626.5 505.5,-662.5 642.5,-662.5 642.5,-626.5 505.5,-626.5"/>
<text text-anchor="middle" x="574" y="-640.8" font-family="Times,serif" font-size="14.00">sabdab_summary_file</text>
</g>
<!-- sabdab_summary_file&#45;&gt;preprocess_sabdab_data -->
<g id="edge21" class="edge">
<title>sabdab_summary_file&#45;&gt;preprocess_sabdab_data</title>
<path fill="none" stroke="black" d="M574,-626.34C574,-617.56 574,-606.66 574,-596.77"/>
<polygon fill="black" stroke="black" points="577.5,-596.57 574,-586.57 570.5,-596.57 577.5,-596.57"/>
</g>
<!-- pdb_search_api_query -->
<g id="node17" class="node">
<title>pdb_search_api_query</title>
<polygon fill="#94ddf4" stroke="black" points="348.5,-626.5 348.5,-662.5 487.5,-662.5 487.5,-626.5 348.5,-626.5"/>
<text text-anchor="middle" x="418" y="-640.8" font-family="Times,serif" font-size="14.00">pdb_search_api_query</text>
</g>
<!-- pdb_search_api_query&#45;&gt;run_pdb_query -->
<g id="edge22" class="edge">
<title>pdb_search_api_query&#45;&gt;run_pdb_query</title>
<path fill="none" stroke="black" d="M417.77,-626.34C417.65,-617.56 417.5,-606.66 417.37,-596.77"/>
<polygon fill="black" stroke="black" points="420.87,-596.52 417.23,-586.57 413.87,-596.62 420.87,-596.52"/>
</g>
</g>
</svg>
