<?xml version="1.0" encoding="UTF-8" standalone="no"?>
<!DOCTYPE svg PUBLIC "-//W3C//DTD SVG 1.1//EN"
 "http://www.w3.org/Graphics/SVG/1.1/DTD/svg11.dtd">
<!-- Generated by graphviz version 3.0.0 (20220226.1711)
 -->
<!-- Title: G Pages: 1 -->
<svg width="640pt" height="687pt"
 viewBox="0.00 0.00 640.00 687.00" xmlns="http://www.w3.org/2000/svg" xmlns:xlink="http://www.w3.org/1999/xlink">
<g id="graph0" class="graph" transform="scale(1 1) rotate(0) translate(4 683)">
<title>G</title>
<polygon fill="#eeeeee" stroke="transparent" points="-4,4 -4,-683 636,-683 636,4 -4,4"/>
<g id="clust1" class="cluster">
<title>cluster_inputs</title>
<polygon fill="#eeeeee" stroke="black" stroke-dasharray="5,2" points="8,-595 8,-671 524,-671 524,-595 8,-595"/>
<text text-anchor="middle" x="469.5" y="-602.8" font-family="Times,serif" font-size="14.00">Workflow Inputs</text>
</g>
<g id="clust2" class="cluster">
<title>cluster_outputs</title>
<polygon fill="#eeeeee" stroke="black" stroke-dasharray="5,2" points="194,-8 194,-84 312,-84 312,-8 194,-8"/>
<text text-anchor="middle" x="253" y="-15.8" font-family="Times,serif" font-size="14.00">Workflow Outputs</text>
</g>
<!-- generate_psp19 -->
<g id="node1" class="node">
<title>generate_psp19</title>
<polygon fill="lightgoldenrodyellow" stroke="black" points="273.5,-258.5 273.5,-294.5 374.5,-294.5 374.5,-258.5 273.5,-258.5"/>
<text text-anchor="middle" x="324" y="-272.8" font-family="Times,serif" font-size="14.00">generate_psp19</text>
</g>
<!-- combine_features -->
<g id="node2" class="node">
<title>combine_features</title>
<polygon fill="none" stroke="black" stroke-dasharray="5,2" points="154.5,-185.5 154.5,-221.5 267.5,-221.5 267.5,-185.5 154.5,-185.5"/>
<text text-anchor="middle" x="211" y="-199.8" font-family="Times,serif" font-size="14.00">combine_features</text>
</g>
<!-- generate_psp19&#45;&gt;combine_features -->
<g id="edge1" class="edge">
<title>generate_psp19&#45;&gt;combine_features</title>
<path fill="none" stroke="black" d="M296.93,-258.49C281.95,-249.08 263.13,-237.26 246.93,-227.07"/>
<polygon fill="black" stroke="black" points="248.57,-223.97 238.24,-221.61 244.84,-229.9 248.57,-223.97"/>
</g>
<!-- train_epitope_prediction_model -->
<g id="node15" class="node">
<title>train_epitope_prediction_model</title>
<polygon fill="none" stroke="black" stroke-dasharray="5,2" points="157.5,-112.5 157.5,-148.5 348.5,-148.5 348.5,-112.5 157.5,-112.5"/>
<text text-anchor="middle" x="253" y="-126.8" font-family="Times,serif" font-size="14.00">train_epitope_prediction_model</text>
</g>
<!-- combine_features&#45;&gt;train_epitope_prediction_model -->
<g id="edge19" class="edge">
<title>combine_features&#45;&gt;train_epitope_prediction_model</title>
<path fill="none" stroke="black" d="M221.17,-185.31C226.12,-176.94 232.18,-166.7 237.68,-157.4"/>
<polygon fill="black" stroke="black" points="240.85,-158.92 242.93,-148.53 234.82,-155.35 240.85,-158.92"/>
</g>
<!-- generate_ppi_labels -->
<g id="node3" class="node">
<title>generate_ppi_labels</title>
<polygon fill="lightgoldenrodyellow" stroke="black" points="148.5,-331.5 148.5,-367.5 273.5,-367.5 273.5,-331.5 148.5,-331.5"/>
<text text-anchor="middle" x="211" y="-345.8" font-family="Times,serif" font-size="14.00">generate_ppi_labels</text>
</g>
<!-- generate_ppi_labels&#45;&gt;generate_psp19 -->
<g id="edge18" class="edge">
<title>generate_ppi_labels&#45;&gt;generate_psp19</title>
<path fill="none" stroke="black" d="M238.07,-331.49C253.05,-322.08 271.87,-310.26 288.07,-300.07"/>
<polygon fill="black" stroke="black" points="290.16,-302.9 296.76,-294.61 286.43,-296.97 290.16,-302.9"/>
</g>
<!-- generate_ppi_labels&#45;&gt;combine_features -->
<g id="edge2" class="edge">
<title>generate_ppi_labels&#45;&gt;combine_features</title>
<path fill="none" stroke="black" d="M148.45,-345.74C111.93,-340.52 68.53,-327.31 45,-295 14.26,-252.8 85.79,-228.1 144.38,-215.45"/>
<polygon fill="black" stroke="black" points="145.32,-218.83 154.4,-213.38 143.9,-211.98 145.32,-218.83"/>
</g>
<!-- generate_hhm -->
<g id="node4" class="node">
<title>generate_hhm</title>
<polygon fill="none" stroke="black" stroke-dasharray="5,2" points="54,-258.5 54,-294.5 148,-294.5 148,-258.5 54,-258.5"/>
<text text-anchor="middle" x="101" y="-272.8" font-family="Times,serif" font-size="14.00">generate_hhm</text>
</g>
<!-- generate_ppi_labels&#45;&gt;generate_hhm -->
<g id="edge15" class="edge">
<title>generate_ppi_labels&#45;&gt;generate_hhm</title>
<path fill="none" stroke="black" d="M184.65,-331.49C170.07,-322.08 151.75,-310.26 135.98,-300.07"/>
<polygon fill="black" stroke="black" points="137.81,-297.1 127.51,-294.61 134.02,-302.98 137.81,-297.1"/>
</g>
<!-- generate_pc7 -->
<g id="node5" class="node">
<title>generate_pc7</title>
<polygon fill="lightgoldenrodyellow" stroke="black" points="166.5,-258.5 166.5,-294.5 255.5,-294.5 255.5,-258.5 166.5,-258.5"/>
<text text-anchor="middle" x="211" y="-272.8" font-family="Times,serif" font-size="14.00">generate_pc7</text>
</g>
<!-- generate_ppi_labels&#45;&gt;generate_pc7 -->
<g id="edge16" class="edge">
<title>generate_ppi_labels&#45;&gt;generate_pc7</title>
<path fill="none" stroke="black" d="M211,-331.31C211,-323.29 211,-313.55 211,-304.57"/>
<polygon fill="black" stroke="black" points="214.5,-304.53 211,-294.53 207.5,-304.53 214.5,-304.53"/>
</g>
<!-- combine_labels -->
<g id="node6" class="node">
<title>combine_labels</title>
<polygon fill="lightgoldenrodyellow" stroke="black" points="393,-258.5 393,-294.5 495,-294.5 495,-258.5 393,-258.5"/>
<text text-anchor="middle" x="444" y="-272.8" font-family="Times,serif" font-size="14.00">combine_labels</text>
</g>
<!-- generate_ppi_labels&#45;&gt;combine_labels -->
<g id="edge5" class="edge">
<title>generate_ppi_labels&#45;&gt;combine_labels</title>
<path fill="none" stroke="black" d="M266.81,-331.49C301.76,-320.84 346.82,-307.11 382.75,-296.16"/>
<polygon fill="black" stroke="black" points="384.08,-299.42 392.63,-293.15 382.04,-292.72 384.08,-299.42"/>
</g>
<!-- generate_hhm&#45;&gt;combine_features -->
<g id="edge3" class="edge">
<title>generate_hhm&#45;&gt;combine_features</title>
<path fill="none" stroke="black" d="M127.35,-258.49C141.93,-249.08 160.25,-237.26 176.02,-227.07"/>
<polygon fill="black" stroke="black" points="177.98,-229.98 184.49,-221.61 174.19,-224.1 177.98,-229.98"/>
</g>
<!-- generate_pc7&#45;&gt;combine_features -->
<g id="edge4" class="edge">
<title>generate_pc7&#45;&gt;combine_features</title>
<path fill="none" stroke="black" d="M211,-258.31C211,-250.29 211,-240.55 211,-231.57"/>
<polygon fill="black" stroke="black" points="214.5,-231.53 211,-221.53 207.5,-231.53 214.5,-231.53"/>
</g>
<!-- combine_labels&#45;&gt;train_epitope_prediction_model -->
<g id="edge20" class="edge">
<title>combine_labels&#45;&gt;train_epitope_prediction_model</title>
<path fill="none" stroke="black" d="M421.34,-258.42C387.16,-232.65 322.35,-183.79 283.88,-154.78"/>
<polygon fill="black" stroke="black" points="285.72,-151.79 275.63,-148.56 281.51,-157.38 285.72,-151.79"/>
</g>
<!-- generate_dssp_labels -->
<g id="node7" class="node">
<title>generate_dssp_labels</title>
<polygon fill="lightgoldenrodyellow" stroke="black" points="493.5,-331.5 493.5,-367.5 624.5,-367.5 624.5,-331.5 493.5,-331.5"/>
<text text-anchor="middle" x="559" y="-345.8" font-family="Times,serif" font-size="14.00">generate_dssp_labels</text>
</g>
<!-- generate_dssp_labels&#45;&gt;combine_labels -->
<g id="edge6" class="edge">
<title>generate_dssp_labels&#45;&gt;combine_labels</title>
<path fill="none" stroke="black" d="M531.45,-331.49C516.2,-322.08 497.05,-310.26 480.56,-300.07"/>
<polygon fill="black" stroke="black" points="482.07,-296.89 471.72,-294.61 478.39,-302.85 482.07,-296.89"/>
</g>
<!-- generate_epitope_labels -->
<g id="node8" class="node">
<title>generate_epitope_labels</title>
<polygon fill="lightgoldenrodyellow" stroke="black" points="324.5,-331.5 324.5,-367.5 471.5,-367.5 471.5,-331.5 324.5,-331.5"/>
<text text-anchor="middle" x="398" y="-345.8" font-family="Times,serif" font-size="14.00">generate_epitope_labels</text>
</g>
<!-- generate_epitope_labels&#45;&gt;combine_labels -->
<g id="edge7" class="edge">
<title>generate_epitope_labels&#45;&gt;combine_labels</title>
<path fill="none" stroke="black" d="M409.14,-331.31C414.62,-322.85 421.33,-312.48 427.41,-303.11"/>
<polygon fill="black" stroke="black" points="430.47,-304.82 432.97,-294.53 424.59,-301.02 430.47,-304.82"/>
</g>
<!-- download_mmcif_files -->
<g id="node9" class="node">
<title>download_mmcif_files</title>
<polygon fill="lightgoldenrodyellow" stroke="black" points="329.5,-477.5 329.5,-513.5 472.5,-513.5 472.5,-477.5 329.5,-477.5"/>
<text text-anchor="middle" x="401" y="-491.8" font-family="Times,serif" font-size="14.00">download_mmcif_files</text>
</g>
<!-- decompress_mmcif_files -->
<g id="node10" class="node">
<title>decompress_mmcif_files</title>
<polygon fill="none" stroke="black" stroke-dasharray="5,2" points="320.5,-404.5 320.5,-440.5 475.5,-440.5 475.5,-404.5 320.5,-404.5"/>
<text text-anchor="middle" x="398" y="-418.8" font-family="Times,serif" font-size="14.00">decompress_mmcif_files</text>
</g>
<!-- download_mmcif_files&#45;&gt;decompress_mmcif_files -->
<g id="edge8" class="edge">
<title>download_mmcif_files&#45;&gt;decompress_mmcif_files</title>
<path fill="none" stroke="black" d="M400.27,-477.31C399.93,-469.29 399.52,-459.55 399.14,-450.57"/>
<polygon fill="black" stroke="black" points="402.64,-450.37 398.72,-440.53 395.64,-450.67 402.64,-450.37"/>
</g>
<!-- decompress_mmcif_files&#45;&gt;generate_ppi_labels -->
<g id="edge17" class="edge">
<title>decompress_mmcif_files&#45;&gt;generate_ppi_labels</title>
<path fill="none" stroke="black" d="M353.21,-404.49C326.92,-394.51 293.5,-381.82 265.67,-371.26"/>
<polygon fill="black" stroke="black" points="266.66,-367.89 256.07,-367.61 264.18,-374.44 266.66,-367.89"/>
</g>
<!-- decompress_mmcif_files&#45;&gt;generate_epitope_labels -->
<g id="edge14" class="edge">
<title>decompress_mmcif_files&#45;&gt;generate_epitope_labels</title>
<path fill="none" stroke="black" d="M398,-404.31C398,-396.29 398,-386.55 398,-377.57"/>
<polygon fill="black" stroke="black" points="401.5,-377.53 398,-367.53 394.5,-377.53 401.5,-377.53"/>
</g>
<!-- download_pdb_files -->
<g id="node11" class="node">
<title>download_pdb_files</title>
<polygon fill="lightgoldenrodyellow" stroke="black" points="496.5,-477.5 496.5,-513.5 623.5,-513.5 623.5,-477.5 496.5,-477.5"/>
<text text-anchor="middle" x="560" y="-491.8" font-family="Times,serif" font-size="14.00">download_pdb_files</text>
</g>
<!-- decompress_pdb_files -->
<g id="node12" class="node">
<title>decompress_pdb_files</title>
<polygon fill="none" stroke="black" stroke-dasharray="5,2" points="494,-404.5 494,-440.5 632,-440.5 632,-404.5 494,-404.5"/>
<text text-anchor="middle" x="563" y="-418.8" font-family="Times,serif" font-size="14.00">decompress_pdb_files</text>
</g>
<!-- download_pdb_files&#45;&gt;decompress_pdb_files -->
<g id="edge9" class="edge">
<title>download_pdb_files&#45;&gt;decompress_pdb_files</title>
<path fill="none" stroke="black" d="M560.73,-477.31C561.07,-469.29 561.48,-459.55 561.86,-450.57"/>
<polygon fill="black" stroke="black" points="565.36,-450.67 562.28,-440.53 558.36,-450.37 565.36,-450.67"/>
</g>
<!-- decompress_pdb_files&#45;&gt;generate_dssp_labels -->
<g id="edge12" class="edge">
<title>decompress_pdb_files&#45;&gt;generate_dssp_labels</title>
<path fill="none" stroke="black" d="M562.03,-404.31C561.58,-396.29 561.03,-386.55 560.53,-377.57"/>
<polygon fill="black" stroke="black" points="564.02,-377.32 559.96,-367.53 557.03,-377.71 564.02,-377.32"/>
</g>
<!-- run_pdb_query -->
<g id="node13" class="node">
<title>run_pdb_query</title>
<polygon fill="none" stroke="black" stroke-dasharray="5,2" points="429.5,-550.5 429.5,-586.5 528.5,-586.5 528.5,-550.5 429.5,-550.5"/>
<text text-anchor="middle" x="479" y="-564.8" font-family="Times,serif" font-size="14.00">run_pdb_query</text>
</g>
<!-- run_pdb_query&#45;&gt;download_mmcif_files -->
<g id="edge10" class="edge">
<title>run_pdb_query&#45;&gt;download_mmcif_files</title>
<path fill="none" stroke="black" d="M460.12,-550.31C450.25,-541.33 438.02,-530.19 427.24,-520.39"/>
<polygon fill="black" stroke="black" points="429.46,-517.67 419.71,-513.53 424.75,-522.85 429.46,-517.67"/>
</g>
<!-- run_pdb_query&#45;&gt;download_pdb_files -->
<g id="edge11" class="edge">
<title>run_pdb_query&#45;&gt;download_pdb_files</title>
<path fill="none" stroke="black" d="M498.61,-550.31C508.86,-541.33 521.56,-530.19 532.75,-520.39"/>
<polygon fill="black" stroke="black" points="535.36,-522.75 540.57,-513.53 530.75,-517.49 535.36,-522.75"/>
</g>
<!-- preprocess_sabdab_data -->
<g id="node14" class="node">
<title>preprocess_sabdab_data</title>
<polygon fill="lightgoldenrodyellow" stroke="black" points="251,-550.5 251,-586.5 399,-586.5 399,-550.5 251,-550.5"/>
<text text-anchor="middle" x="325" y="-564.8" font-family="Times,serif" font-size="14.00">preprocess_sabdab_data</text>
</g>
<!-- preprocess_sabdab_data&#45;&gt;generate_epitope_labels -->
<g id="edge13" class="edge">
<title>preprocess_sabdab_data&#45;&gt;generate_epitope_labels</title>
<path fill="none" stroke="black" d="M317.62,-550.42C305.31,-519.13 284.45,-451.5 311,-404 318.31,-390.92 330.27,-380.65 343.02,-372.75"/>
<polygon fill="black" stroke="black" points="344.98,-375.66 351.93,-367.66 341.51,-369.59 344.98,-375.66"/>
</g>
<!-- predictions -->
<g id="node20" class="node">
<title>predictions</title>
<polygon fill="#94ddf4" stroke="black" points="214.5,-39.5 214.5,-75.5 291.5,-75.5 291.5,-39.5 214.5,-39.5"/>
<text text-anchor="middle" x="253" y="-53.8" font-family="Times,serif" font-size="14.00">predictions</text>
</g>
<!-- train_epitope_prediction_model&#45;&gt;predictions -->
<g id="edge25" class="edge">
<title>train_epitope_prediction_model&#45;&gt;predictions</title>
<path fill="none" stroke="black" d="M253,-112.31C253,-104.29 253,-94.55 253,-85.57"/>
<polygon fill="black" stroke="black" points="256.5,-85.53 253,-75.53 249.5,-85.53 256.5,-85.53"/>
</g>
<!-- biodl_test_dataset -->
<g id="node16" class="node">
<title>biodl_test_dataset</title>
<polygon fill="#94ddf4" stroke="black" points="154,-626.5 154,-662.5 268,-662.5 268,-626.5 154,-626.5"/>
<text text-anchor="middle" x="211" y="-640.8" font-family="Times,serif" font-size="14.00">biodl_test_dataset</text>
</g>
<!-- biodl_test_dataset&#45;&gt;generate_ppi_labels -->
<g id="edge21" class="edge">
<title>biodl_test_dataset&#45;&gt;generate_ppi_labels</title>
<path fill="none" stroke="black" d="M211,-626.48C211,-577.73 211,-437.26 211,-377.7"/>
<polygon fill="black" stroke="black" points="214.5,-377.57 211,-367.57 207.5,-377.57 214.5,-377.57"/>
</g>
<!-- biodl_train_dataset -->
<g id="node17" class="node">
<title>biodl_train_dataset</title>
<polygon fill="#94ddf4" stroke="black" points="16,-626.5 16,-662.5 136,-662.5 136,-626.5 16,-626.5"/>
<text text-anchor="middle" x="76" y="-640.8" font-family="Times,serif" font-size="14.00">biodl_train_dataset</text>
</g>
<!-- biodl_train_dataset&#45;&gt;generate_ppi_labels -->
<g id="edge22" class="edge">
<title>biodl_train_dataset&#45;&gt;generate_ppi_labels</title>
<path fill="none" stroke="black" d="M83.84,-626.48C106.4,-577.53 171.56,-436.09 198.81,-376.97"/>
<polygon fill="black" stroke="black" points="202.13,-378.11 203.14,-367.57 195.77,-375.18 202.13,-378.11"/>
</g>
<!-- sabdab_summary_file -->
<g id="node18" class="node">
<title>sabdab_summary_file</title>
<polygon fill="#94ddf4" stroke="black" points="286.5,-626.5 286.5,-662.5 423.5,-662.5 423.5,-626.5 286.5,-626.5"/>
<text text-anchor="middle" x="355" y="-640.8" font-family="Times,serif" font-size="14.00">sabdab_summary_file</text>
</g>
<!-- sabdab_summary_file&#45;&gt;preprocess_sabdab_data -->
<g id="edge23" class="edge">
<title>sabdab_summary_file&#45;&gt;preprocess_sabdab_data</title>
<path fill="none" stroke="black" d="M348.04,-626.34C344.41,-617.37 339.88,-606.2 335.8,-596.14"/>
<polygon fill="black" stroke="black" points="338.92,-594.52 331.92,-586.57 332.43,-597.15 338.92,-594.52"/>
</g>
<!-- pdb_query -->
<g id="node19" class="node">
<title>pdb_query</title>
<polygon fill="#94ddf4" stroke="black" points="442,-626.5 442,-662.5 516,-662.5 516,-626.5 442,-626.5"/>
<text text-anchor="middle" x="479" y="-640.8" font-family="Times,serif" font-size="14.00">pdb_query</text>
</g>
<!-- pdb_query&#45;&gt;run_pdb_query -->
<g id="edge24" class="edge">
<title>pdb_query&#45;&gt;run_pdb_query</title>
<path fill="none" stroke="black" d="M479,-626.34C479,-617.56 479,-606.66 479,-596.77"/>
<polygon fill="black" stroke="black" points="482.5,-596.57 479,-586.57 475.5,-596.57 482.5,-596.57"/>
</g>
</g>
</svg>
