<?xml version="1.0" encoding="UTF-8" standalone="no"?>
<!DOCTYPE svg PUBLIC "-//W3C//DTD SVG 1.1//EN"
 "http://www.w3.org/Graphics/SVG/1.1/DTD/svg11.dtd">
<!-- Generated by graphviz version 3.0.0 (20220226.1711)
 -->
<!-- Title: G Pages: 1 -->
<svg width="690pt" height="687pt"
 viewBox="0.00 0.00 689.50 687.00" xmlns="http://www.w3.org/2000/svg" xmlns:xlink="http://www.w3.org/1999/xlink">
<g id="graph0" class="graph" transform="scale(1 1) rotate(0) translate(4 683)">
<title>G</title>
<polygon fill="#eeeeee" stroke="transparent" points="-4,4 -4,-683 685.5,-683 685.5,4 -4,4"/>
<g id="clust1" class="cluster">
<title>cluster_inputs</title>
<polygon fill="#eeeeee" stroke="black" stroke-dasharray="5,2" points="22,-595 22,-671 538,-671 538,-595 22,-595"/>
<text text-anchor="middle" x="483.5" y="-602.8" font-family="Times,serif" font-size="14.00">Workflow Inputs</text>
</g>
<g id="clust2" class="cluster">
<title>cluster_outputs</title>
<polygon fill="#eeeeee" stroke="black" stroke-dasharray="5,2" points="270,-8 270,-84 388,-84 388,-8 270,-8"/>
<text text-anchor="middle" x="329" y="-15.8" font-family="Times,serif" font-size="14.00">Workflow Outputs</text>
</g>
<!-- generate_hhm -->
<g id="node1" class="node">
<title>generate_hhm</title>
<polygon fill="none" stroke="black" stroke-dasharray="5,2" points="468,-258.5 468,-294.5 562,-294.5 562,-258.5 468,-258.5"/>
<text text-anchor="middle" x="515" y="-272.8" font-family="Times,serif" font-size="14.00">generate_hhm</text>
</g>
<!-- combine_features -->
<g id="node2" class="node">
<title>combine_features</title>
<polygon fill="none" stroke="black" stroke-dasharray="5,2" points="348.5,-185.5 348.5,-221.5 461.5,-221.5 461.5,-185.5 348.5,-185.5"/>
<text text-anchor="middle" x="405" y="-199.8" font-family="Times,serif" font-size="14.00">combine_features</text>
</g>
<!-- generate_hhm&#45;&gt;combine_features -->
<g id="edge1" class="edge">
<title>generate_hhm&#45;&gt;combine_features</title>
<path fill="none" stroke="black" d="M488.65,-258.49C474.07,-249.08 455.75,-237.26 439.98,-227.07"/>
<polygon fill="black" stroke="black" points="441.81,-224.1 431.51,-221.61 438.02,-229.98 441.81,-224.1"/>
</g>
<!-- train_epitope_prediction_model -->
<g id="node14" class="node">
<title>train_epitope_prediction_model</title>
<polygon fill="none" stroke="black" stroke-dasharray="5,2" points="233.5,-112.5 233.5,-148.5 424.5,-148.5 424.5,-112.5 233.5,-112.5"/>
<text text-anchor="middle" x="329" y="-126.8" font-family="Times,serif" font-size="14.00">train_epitope_prediction_model</text>
</g>
<!-- combine_features&#45;&gt;train_epitope_prediction_model -->
<g id="edge19" class="edge">
<title>combine_features&#45;&gt;train_epitope_prediction_model</title>
<path fill="none" stroke="black" d="M386.6,-185.31C376.99,-176.33 365.07,-165.19 354.57,-155.39"/>
<polygon fill="black" stroke="black" points="356.92,-152.8 347.23,-148.53 352.15,-157.91 356.92,-152.8"/>
</g>
<!-- generate_psp19 -->
<g id="node3" class="node">
<title>generate_psp19</title>
<polygon fill="lightgoldenrodyellow" stroke="black" points="580.5,-258.5 580.5,-294.5 681.5,-294.5 681.5,-258.5 580.5,-258.5"/>
<text text-anchor="middle" x="631" y="-272.8" font-family="Times,serif" font-size="14.00">generate_psp19</text>
</g>
<!-- generate_psp19&#45;&gt;combine_features -->
<g id="edge2" class="edge">
<title>generate_psp19&#45;&gt;combine_features</title>
<path fill="none" stroke="black" d="M580.28,-259.57C547.45,-249.25 504.42,-235.73 469.21,-224.67"/>
<polygon fill="black" stroke="black" points="470.09,-221.28 459.5,-221.62 467.99,-227.96 470.09,-221.28"/>
</g>
<!-- generate_ppi_labels -->
<g id="node4" class="node">
<title>generate_ppi_labels</title>
<polygon fill="none" stroke="black" stroke-dasharray="5,2" points="357.5,-331.5 357.5,-367.5 482.5,-367.5 482.5,-331.5 357.5,-331.5"/>
<text text-anchor="middle" x="420" y="-345.8" font-family="Times,serif" font-size="14.00">generate_ppi_labels</text>
</g>
<!-- generate_ppi_labels&#45;&gt;generate_hhm -->
<g id="edge14" class="edge">
<title>generate_ppi_labels&#45;&gt;generate_hhm</title>
<path fill="none" stroke="black" d="M443,-331.31C455.37,-322.07 470.79,-310.54 484.18,-300.53"/>
<polygon fill="black" stroke="black" points="486.3,-303.32 492.21,-294.53 482.11,-297.71 486.3,-303.32"/>
</g>
<!-- generate_ppi_labels&#45;&gt;combine_features -->
<g id="edge3" class="edge">
<title>generate_ppi_labels&#45;&gt;combine_features</title>
<path fill="none" stroke="black" d="M386.99,-331.36C373.53,-322.48 359.42,-310.27 352,-295 344.82,-280.21 345.74,-273.21 352,-258 356.58,-246.87 364.72,-236.83 373.26,-228.53"/>
<polygon fill="black" stroke="black" points="375.74,-231.01 380.8,-221.7 371.04,-225.83 375.74,-231.01"/>
</g>
<!-- generate_ppi_labels&#45;&gt;generate_psp19 -->
<g id="edge17" class="edge">
<title>generate_ppi_labels&#45;&gt;generate_psp19</title>
<path fill="none" stroke="black" d="M470.54,-331.49C500.59,-321.38 538.9,-308.49 570.55,-297.84"/>
<polygon fill="black" stroke="black" points="571.78,-301.12 580.14,-294.61 569.55,-294.49 571.78,-301.12"/>
</g>
<!-- generate_pc7 -->
<g id="node5" class="node">
<title>generate_pc7</title>
<polygon fill="lightgoldenrodyellow" stroke="black" points="360.5,-258.5 360.5,-294.5 449.5,-294.5 449.5,-258.5 360.5,-258.5"/>
<text text-anchor="middle" x="405" y="-272.8" font-family="Times,serif" font-size="14.00">generate_pc7</text>
</g>
<!-- generate_ppi_labels&#45;&gt;generate_pc7 -->
<g id="edge15" class="edge">
<title>generate_ppi_labels&#45;&gt;generate_pc7</title>
<path fill="none" stroke="black" d="M416.37,-331.31C414.67,-323.29 412.62,-313.55 410.72,-304.57"/>
<polygon fill="black" stroke="black" points="414.09,-303.59 408.6,-294.53 407.24,-305.04 414.09,-303.59"/>
</g>
<!-- combine_labels -->
<g id="node6" class="node">
<title>combine_labels</title>
<polygon fill="lightgoldenrodyellow" stroke="black" points="202,-258.5 202,-294.5 304,-294.5 304,-258.5 202,-258.5"/>
<text text-anchor="middle" x="253" y="-272.8" font-family="Times,serif" font-size="14.00">combine_labels</text>
</g>
<!-- generate_ppi_labels&#45;&gt;combine_labels -->
<g id="edge5" class="edge">
<title>generate_ppi_labels&#45;&gt;combine_labels</title>
<path fill="none" stroke="black" d="M380,-331.49C356.73,-321.6 327.2,-309.04 302.47,-298.53"/>
<polygon fill="black" stroke="black" points="303.83,-295.31 293.25,-294.61 301.09,-301.75 303.83,-295.31"/>
</g>
<!-- generate_pc7&#45;&gt;combine_features -->
<g id="edge4" class="edge">
<title>generate_pc7&#45;&gt;combine_features</title>
<path fill="none" stroke="black" d="M405,-258.31C405,-250.29 405,-240.55 405,-231.57"/>
<polygon fill="black" stroke="black" points="408.5,-231.53 405,-221.53 401.5,-231.53 408.5,-231.53"/>
</g>
<!-- combine_labels&#45;&gt;train_epitope_prediction_model -->
<g id="edge18" class="edge">
<title>combine_labels&#45;&gt;train_epitope_prediction_model</title>
<path fill="none" stroke="black" d="M262.02,-258.42C275.16,-233.52 299.69,-187.04 315.13,-157.77"/>
<polygon fill="black" stroke="black" points="318.42,-159.04 320,-148.56 312.23,-155.77 318.42,-159.04"/>
</g>
<!-- generate_epitope_labels -->
<g id="node7" class="node">
<title>generate_epitope_labels</title>
<polygon fill="none" stroke="black" stroke-dasharray="5,2" points="22.5,-331.5 22.5,-367.5 169.5,-367.5 169.5,-331.5 22.5,-331.5"/>
<text text-anchor="middle" x="96" y="-345.8" font-family="Times,serif" font-size="14.00">generate_epitope_labels</text>
</g>
<!-- generate_epitope_labels&#45;&gt;combine_labels -->
<g id="edge6" class="edge">
<title>generate_epitope_labels&#45;&gt;combine_labels</title>
<path fill="none" stroke="black" d="M133.61,-331.49C155.29,-321.69 182.76,-309.27 205.88,-298.81"/>
<polygon fill="black" stroke="black" points="207.49,-301.92 215.16,-294.61 204.6,-295.55 207.49,-301.92"/>
</g>
<!-- generate_dssp_labels -->
<g id="node8" class="node">
<title>generate_dssp_labels</title>
<polygon fill="none" stroke="black" stroke-dasharray="5,2" points="187.5,-331.5 187.5,-367.5 318.5,-367.5 318.5,-331.5 187.5,-331.5"/>
<text text-anchor="middle" x="253" y="-345.8" font-family="Times,serif" font-size="14.00">generate_dssp_labels</text>
</g>
<!-- generate_dssp_labels&#45;&gt;combine_labels -->
<g id="edge7" class="edge">
<title>generate_dssp_labels&#45;&gt;combine_labels</title>
<path fill="none" stroke="black" d="M253,-331.31C253,-323.29 253,-313.55 253,-304.57"/>
<polygon fill="black" stroke="black" points="256.5,-304.53 253,-294.53 249.5,-304.53 256.5,-304.53"/>
</g>
<!-- download_pdb_files -->
<g id="node9" class="node">
<title>download_pdb_files</title>
<polygon fill="lightgoldenrodyellow" stroke="black" points="159.5,-477.5 159.5,-513.5 286.5,-513.5 286.5,-477.5 159.5,-477.5"/>
<text text-anchor="middle" x="223" y="-491.8" font-family="Times,serif" font-size="14.00">download_pdb_files</text>
</g>
<!-- decompress_mmcif_files -->
<g id="node10" class="node">
<title>decompress_mmcif_files</title>
<polygon fill="none" stroke="black" stroke-dasharray="5,2" points="251.5,-404.5 251.5,-440.5 406.5,-440.5 406.5,-404.5 251.5,-404.5"/>
<text text-anchor="middle" x="329" y="-418.8" font-family="Times,serif" font-size="14.00">decompress_mmcif_files</text>
</g>
<!-- download_pdb_files&#45;&gt;decompress_mmcif_files -->
<g id="edge8" class="edge">
<title>download_pdb_files&#45;&gt;decompress_mmcif_files</title>
<path fill="none" stroke="black" d="M248.39,-477.49C262.32,-468.17 279.77,-456.47 294.87,-446.36"/>
<polygon fill="black" stroke="black" points="297.09,-449.09 303.45,-440.61 293.19,-443.27 297.09,-449.09"/>
</g>
<!-- decompress_pdb_files -->
<g id="node11" class="node">
<title>decompress_pdb_files</title>
<polygon fill="none" stroke="black" stroke-dasharray="5,2" points="95,-404.5 95,-440.5 233,-440.5 233,-404.5 95,-404.5"/>
<text text-anchor="middle" x="164" y="-418.8" font-family="Times,serif" font-size="14.00">decompress_pdb_files</text>
</g>
<!-- download_pdb_files&#45;&gt;decompress_pdb_files -->
<g id="edge9" class="edge">
<title>download_pdb_files&#45;&gt;decompress_pdb_files</title>
<path fill="none" stroke="black" d="M208.72,-477.31C201.47,-468.59 192.54,-457.84 184.56,-448.25"/>
<polygon fill="black" stroke="black" points="187.23,-445.98 178.15,-440.53 181.85,-450.46 187.23,-445.98"/>
</g>
<!-- decompress_mmcif_files&#45;&gt;generate_ppi_labels -->
<g id="edge16" class="edge">
<title>decompress_mmcif_files&#45;&gt;generate_ppi_labels</title>
<path fill="none" stroke="black" d="M351.03,-404.31C362.77,-395.16 377.37,-383.76 390.12,-373.82"/>
<polygon fill="black" stroke="black" points="392.44,-376.44 398.17,-367.53 388.14,-370.92 392.44,-376.44"/>
</g>
<!-- decompress_mmcif_files&#45;&gt;generate_epitope_labels -->
<g id="edge13" class="edge">
<title>decompress_mmcif_files&#45;&gt;generate_epitope_labels</title>
<path fill="none" stroke="black" d="M273.19,-404.49C239.72,-394.29 196.97,-381.27 161.85,-370.57"/>
<polygon fill="black" stroke="black" points="162.75,-367.18 152.16,-367.61 160.71,-373.88 162.75,-367.18"/>
</g>
<!-- decompress_pdb_files&#45;&gt;generate_dssp_labels -->
<g id="edge11" class="edge">
<title>decompress_pdb_files&#45;&gt;generate_dssp_labels</title>
<path fill="none" stroke="black" d="M185.54,-404.31C197.02,-395.16 211.31,-383.76 223.77,-373.82"/>
<polygon fill="black" stroke="black" points="226.02,-376.5 231.65,-367.53 221.65,-371.03 226.02,-376.5"/>
</g>
<!-- run_pdb_query -->
<g id="node12" class="node">
<title>run_pdb_query</title>
<polygon fill="none" stroke="black" stroke-dasharray="5,2" points="173.5,-550.5 173.5,-586.5 272.5,-586.5 272.5,-550.5 173.5,-550.5"/>
<text text-anchor="middle" x="223" y="-564.8" font-family="Times,serif" font-size="14.00">run_pdb_query</text>
</g>
<!-- run_pdb_query&#45;&gt;download_pdb_files -->
<g id="edge10" class="edge">
<title>run_pdb_query&#45;&gt;download_pdb_files</title>
<path fill="none" stroke="black" d="M223,-550.31C223,-542.29 223,-532.55 223,-523.57"/>
<polygon fill="black" stroke="black" points="226.5,-523.53 223,-513.53 219.5,-523.53 226.5,-523.53"/>
</g>
<!-- preprocess_sabdab_data -->
<g id="node13" class="node">
<title>preprocess_sabdab_data</title>
<polygon fill="lightgoldenrodyellow" stroke="black" points="0,-550.5 0,-586.5 148,-586.5 148,-550.5 0,-550.5"/>
<text text-anchor="middle" x="74" y="-564.8" font-family="Times,serif" font-size="14.00">preprocess_sabdab_data</text>
</g>
<!-- preprocess_sabdab_data&#45;&gt;generate_epitope_labels -->
<g id="edge12" class="edge">
<title>preprocess_sabdab_data&#45;&gt;generate_epitope_labels</title>
<path fill="none" stroke="black" d="M74.63,-550.25C75.87,-520.37 79.12,-457.06 86,-404 87.11,-395.43 88.7,-386.17 90.29,-377.79"/>
<polygon fill="black" stroke="black" points="93.77,-378.26 92.27,-367.77 86.9,-376.9 93.77,-378.26"/>
</g>
<!-- predictions -->
<g id="node19" class="node">
<title>predictions</title>
<polygon fill="#94ddf4" stroke="black" points="290.5,-39.5 290.5,-75.5 367.5,-75.5 367.5,-39.5 290.5,-39.5"/>
<text text-anchor="middle" x="329" y="-53.8" font-family="Times,serif" font-size="14.00">predictions</text>
</g>
<!-- train_epitope_prediction_model&#45;&gt;predictions -->
<g id="edge24" class="edge">
<title>train_epitope_prediction_model&#45;&gt;predictions</title>
<path fill="none" stroke="black" d="M329,-112.31C329,-104.29 329,-94.55 329,-85.57"/>
<polygon fill="black" stroke="black" points="332.5,-85.53 329,-75.53 325.5,-85.53 332.5,-85.53"/>
</g>
<!-- biodl_test_dataset -->
<g id="node15" class="node">
<title>biodl_test_dataset</title>
<polygon fill="#94ddf4" stroke="black" points="416,-626.5 416,-662.5 530,-662.5 530,-626.5 416,-626.5"/>
<text text-anchor="middle" x="473" y="-640.8" font-family="Times,serif" font-size="14.00">biodl_test_dataset</text>
</g>
<!-- biodl_test_dataset&#45;&gt;generate_ppi_labels -->
<g id="edge20" class="edge">
<title>biodl_test_dataset&#45;&gt;generate_ppi_labels</title>
<path fill="none" stroke="black" d="M473.57,-626.2C474.4,-586.14 473.69,-484.28 449,-404 446.08,-394.51 441.4,-384.77 436.64,-376.25"/>
<polygon fill="black" stroke="black" points="439.61,-374.4 431.52,-367.56 433.57,-377.95 439.61,-374.4"/>
</g>
<!-- biodl_train_dataset -->
<g id="node16" class="node">
<title>biodl_train_dataset</title>
<polygon fill="#94ddf4" stroke="black" points="278,-626.5 278,-662.5 398,-662.5 398,-626.5 278,-626.5"/>
<text text-anchor="middle" x="338" y="-640.8" font-family="Times,serif" font-size="14.00">biodl_train_dataset</text>
</g>
<!-- biodl_train_dataset&#45;&gt;generate_ppi_labels -->
<g id="edge21" class="edge">
<title>biodl_train_dataset&#45;&gt;generate_ppi_labels</title>
<path fill="none" stroke="black" d="M346.75,-626.47C363.78,-592.35 401.02,-512.73 416,-441 420.36,-420.12 421.22,-395.97 421.07,-377.86"/>
<polygon fill="black" stroke="black" points="424.57,-377.65 420.88,-367.72 417.57,-377.78 424.57,-377.65"/>
</g>
<!-- sabdab_summary_file -->
<g id="node17" class="node">
<title>sabdab_summary_file</title>
<polygon fill="#94ddf4" stroke="black" points="30.5,-626.5 30.5,-662.5 167.5,-662.5 167.5,-626.5 30.5,-626.5"/>
<text text-anchor="middle" x="99" y="-640.8" font-family="Times,serif" font-size="14.00">sabdab_summary_file</text>
</g>
<!-- sabdab_summary_file&#45;&gt;preprocess_sabdab_data -->
<g id="edge22" class="edge">
<title>sabdab_summary_file&#45;&gt;preprocess_sabdab_data</title>
<path fill="none" stroke="black" d="M93.2,-626.34C90.17,-617.37 86.4,-606.2 83,-596.14"/>
<polygon fill="black" stroke="black" points="86.28,-594.92 79.77,-586.57 79.65,-597.16 86.28,-594.92"/>
</g>
<!-- pdb_query -->
<g id="node18" class="node">
<title>pdb_query</title>
<polygon fill="#94ddf4" stroke="black" points="186,-626.5 186,-662.5 260,-662.5 260,-626.5 186,-626.5"/>
<text text-anchor="middle" x="223" y="-640.8" font-family="Times,serif" font-size="14.00">pdb_query</text>
</g>
<!-- pdb_query&#45;&gt;run_pdb_query -->
<g id="edge23" class="edge">
<title>pdb_query&#45;&gt;run_pdb_query</title>
<path fill="none" stroke="black" d="M223,-626.34C223,-617.56 223,-606.66 223,-596.77"/>
<polygon fill="black" stroke="black" points="226.5,-596.57 223,-586.57 219.5,-596.57 226.5,-596.57"/>
</g>
</g>
</svg>
