<?xml version="1.0" encoding="UTF-8" standalone="no"?>
<!DOCTYPE svg PUBLIC "-//W3C//DTD SVG 1.1//EN"
 "http://www.w3.org/Graphics/SVG/1.1/DTD/svg11.dtd">
<!-- Generated by graphviz version 3.0.0 (20220226.1711)
 -->
<!-- Title: G Pages: 1 -->
<svg width="928pt" height="468pt"
 viewBox="0.00 0.00 928.00 468.00" xmlns="http://www.w3.org/2000/svg" xmlns:xlink="http://www.w3.org/1999/xlink">
<g id="graph0" class="graph" transform="scale(1 1) rotate(0) translate(4 464)">
<title>G</title>
<polygon fill="#eeeeee" stroke="transparent" points="-4,4 -4,-464 924,-464 924,4 -4,4"/>
<g id="clust1" class="cluster">
<title>cluster_inputs</title>
<polygon fill="#eeeeee" stroke="black" stroke-dasharray="5,2" points="410,-376 410,-452 634,-452 634,-376 410,-376"/>
<text text-anchor="middle" x="579.5" y="-383.8" font-family="Times,serif" font-size="14.00">Workflow Inputs</text>
</g>
<g id="clust2" class="cluster">
<title>cluster_outputs</title>
<polygon fill="#eeeeee" stroke="black" stroke-dasharray="5,2" points="253,-8 253,-84 371,-84 371,-8 253,-8"/>
<text text-anchor="middle" x="312" y="-15.8" font-family="Times,serif" font-size="14.00">Workflow Outputs</text>
</g>
<!-- file:///Users/renskedewit/Documents/GitHub/cwl&#45;epitope/niaa_abstract.cwl#extract_fasta -->
<g id="node1" class="node">
<title>file:///Users/renskedewit/Documents/GitHub/cwl&#45;epitope/niaa_abstract.cwl#extract_fasta</title>
<polygon fill="lightgoldenrodyellow" stroke="black" points="114,-331.5 114,-367.5 200,-367.5 200,-331.5 114,-331.5"/>
<text text-anchor="middle" x="157" y="-345.8" font-family="Times,serif" font-size="14.00">extract_fasta</text>
</g>
<!-- file:///Users/renskedewit/Documents/GitHub/cwl&#45;epitope/niaa_abstract.cwl#combine_features -->
<g id="node2" class="node">
<title>file:///Users/renskedewit/Documents/GitHub/cwl&#45;epitope/niaa_abstract.cwl#combine_features</title>
<polygon fill="lightgoldenrodyellow" stroke="black" points="213.5,-185.5 213.5,-221.5 326.5,-221.5 326.5,-185.5 213.5,-185.5"/>
<text text-anchor="middle" x="270" y="-199.8" font-family="Times,serif" font-size="14.00">combine_features</text>
</g>
<!-- file:///Users/renskedewit/Documents/GitHub/cwl&#45;epitope/niaa_abstract.cwl#extract_fasta&#45;&gt;file:///Users/renskedewit/Documents/GitHub/cwl&#45;epitope/niaa_abstract.cwl#combine_features -->
<g id="edge1" class="edge">
<title>file:///Users/renskedewit/Documents/GitHub/cwl&#45;epitope/niaa_abstract.cwl#extract_fasta&#45;&gt;file:///Users/renskedewit/Documents/GitHub/cwl&#45;epitope/niaa_abstract.cwl#combine_features</title>
<path fill="none" stroke="black" d="M200.09,-333.87C203.1,-332.89 206.1,-331.92 209,-331 262.06,-314.12 295.76,-339.67 329,-295 338.82,-281.81 335.66,-273.03 329,-258 323.88,-246.44 314.89,-236.32 305.46,-228.08"/>
<polygon fill="black" stroke="black" points="307.46,-225.2 297.5,-221.61 303.05,-230.63 307.46,-225.2"/>
</g>
<!-- file:///Users/renskedewit/Documents/GitHub/cwl&#45;epitope/niaa_abstract.cwl#generate_hhm -->
<g id="node3" class="node">
<title>file:///Users/renskedewit/Documents/GitHub/cwl&#45;epitope/niaa_abstract.cwl#generate_hhm</title>
<polygon fill="lightgoldenrodyellow" stroke="black" points="0,-258.5 0,-294.5 94,-294.5 94,-258.5 0,-258.5"/>
<text text-anchor="middle" x="47" y="-272.8" font-family="Times,serif" font-size="14.00">generate_hhm</text>
</g>
<!-- file:///Users/renskedewit/Documents/GitHub/cwl&#45;epitope/niaa_abstract.cwl#extract_fasta&#45;&gt;file:///Users/renskedewit/Documents/GitHub/cwl&#45;epitope/niaa_abstract.cwl#generate_hhm -->
<g id="edge10" class="edge">
<title>file:///Users/renskedewit/Documents/GitHub/cwl&#45;epitope/niaa_abstract.cwl#extract_fasta&#45;&gt;file:///Users/renskedewit/Documents/GitHub/cwl&#45;epitope/niaa_abstract.cwl#generate_hhm</title>
<path fill="none" stroke="black" d="M130.65,-331.49C116.07,-322.08 97.75,-310.26 81.98,-300.07"/>
<polygon fill="black" stroke="black" points="83.81,-297.1 73.51,-294.61 80.02,-302.98 83.81,-297.1"/>
</g>
<!-- file:///Users/renskedewit/Documents/GitHub/cwl&#45;epitope/niaa_abstract.cwl#generate_pc7 -->
<g id="node4" class="node">
<title>file:///Users/renskedewit/Documents/GitHub/cwl&#45;epitope/niaa_abstract.cwl#generate_pc7</title>
<polygon fill="lightgoldenrodyellow" stroke="black" points="112.5,-258.5 112.5,-294.5 201.5,-294.5 201.5,-258.5 112.5,-258.5"/>
<text text-anchor="middle" x="157" y="-272.8" font-family="Times,serif" font-size="14.00">generate_pc7</text>
</g>
<!-- file:///Users/renskedewit/Documents/GitHub/cwl&#45;epitope/niaa_abstract.cwl#extract_fasta&#45;&gt;file:///Users/renskedewit/Documents/GitHub/cwl&#45;epitope/niaa_abstract.cwl#generate_pc7 -->
<g id="edge11" class="edge">
<title>file:///Users/renskedewit/Documents/GitHub/cwl&#45;epitope/niaa_abstract.cwl#extract_fasta&#45;&gt;file:///Users/renskedewit/Documents/GitHub/cwl&#45;epitope/niaa_abstract.cwl#generate_pc7</title>
<path fill="none" stroke="black" d="M157,-331.31C157,-323.29 157,-313.55 157,-304.57"/>
<polygon fill="black" stroke="black" points="160.5,-304.53 157,-294.53 153.5,-304.53 160.5,-304.53"/>
</g>
<!-- file:///Users/renskedewit/Documents/GitHub/cwl&#45;epitope/niaa_abstract.cwl#generate_psp19 -->
<g id="node5" class="node">
<title>file:///Users/renskedewit/Documents/GitHub/cwl&#45;epitope/niaa_abstract.cwl#generate_psp19</title>
<polygon fill="lightgoldenrodyellow" stroke="black" points="219.5,-258.5 219.5,-294.5 320.5,-294.5 320.5,-258.5 219.5,-258.5"/>
<text text-anchor="middle" x="270" y="-272.8" font-family="Times,serif" font-size="14.00">generate_psp19</text>
</g>
<!-- file:///Users/renskedewit/Documents/GitHub/cwl&#45;epitope/niaa_abstract.cwl#extract_fasta&#45;&gt;file:///Users/renskedewit/Documents/GitHub/cwl&#45;epitope/niaa_abstract.cwl#generate_psp19 -->
<g id="edge12" class="edge">
<title>file:///Users/renskedewit/Documents/GitHub/cwl&#45;epitope/niaa_abstract.cwl#extract_fasta&#45;&gt;file:///Users/renskedewit/Documents/GitHub/cwl&#45;epitope/niaa_abstract.cwl#generate_psp19</title>
<path fill="none" stroke="black" d="M184.07,-331.49C199.05,-322.08 217.87,-310.26 234.07,-300.07"/>
<polygon fill="black" stroke="black" points="236.16,-302.9 242.76,-294.61 232.43,-296.97 236.16,-302.9"/>
</g>
<!-- file:///Users/renskedewit/Documents/GitHub/cwl&#45;epitope/niaa_abstract.cwl#opus_tass -->
<g id="node12" class="node">
<title>file:///Users/renskedewit/Documents/GitHub/cwl&#45;epitope/niaa_abstract.cwl#opus_tass</title>
<polygon fill="lightgoldenrodyellow" stroke="black" points="277.5,-112.5 277.5,-148.5 346.5,-148.5 346.5,-112.5 277.5,-112.5"/>
<text text-anchor="middle" x="312" y="-126.8" font-family="Times,serif" font-size="14.00">opus_tass</text>
</g>
<!-- file:///Users/renskedewit/Documents/GitHub/cwl&#45;epitope/niaa_abstract.cwl#combine_features&#45;&gt;file:///Users/renskedewit/Documents/GitHub/cwl&#45;epitope/niaa_abstract.cwl#opus_tass -->
<g id="edge13" class="edge">
<title>file:///Users/renskedewit/Documents/GitHub/cwl&#45;epitope/niaa_abstract.cwl#combine_features&#45;&gt;file:///Users/renskedewit/Documents/GitHub/cwl&#45;epitope/niaa_abstract.cwl#opus_tass</title>
<path fill="none" stroke="black" d="M280.17,-185.31C285.12,-176.94 291.18,-166.7 296.68,-157.4"/>
<polygon fill="black" stroke="black" points="299.85,-158.92 301.93,-148.53 293.82,-155.35 299.85,-158.92"/>
</g>
<!-- file:///Users/renskedewit/Documents/GitHub/cwl&#45;epitope/niaa_abstract.cwl#generate_hhm&#45;&gt;file:///Users/renskedewit/Documents/GitHub/cwl&#45;epitope/niaa_abstract.cwl#combine_features -->
<g id="edge2" class="edge">
<title>file:///Users/renskedewit/Documents/GitHub/cwl&#45;epitope/niaa_abstract.cwl#generate_hhm&#45;&gt;file:///Users/renskedewit/Documents/GitHub/cwl&#45;epitope/niaa_abstract.cwl#combine_features</title>
<path fill="none" stroke="black" d="M94.02,-260.53C126.72,-250.12 170.71,-236.11 206.52,-224.71"/>
<polygon fill="black" stroke="black" points="207.92,-227.94 216.39,-221.57 205.8,-221.27 207.92,-227.94"/>
</g>
<!-- file:///Users/renskedewit/Documents/GitHub/cwl&#45;epitope/niaa_abstract.cwl#generate_pc7&#45;&gt;file:///Users/renskedewit/Documents/GitHub/cwl&#45;epitope/niaa_abstract.cwl#combine_features -->
<g id="edge3" class="edge">
<title>file:///Users/renskedewit/Documents/GitHub/cwl&#45;epitope/niaa_abstract.cwl#generate_pc7&#45;&gt;file:///Users/renskedewit/Documents/GitHub/cwl&#45;epitope/niaa_abstract.cwl#combine_features</title>
<path fill="none" stroke="black" d="M184.07,-258.49C199.05,-249.08 217.87,-237.26 234.07,-227.07"/>
<polygon fill="black" stroke="black" points="236.16,-229.9 242.76,-221.61 232.43,-223.97 236.16,-229.9"/>
</g>
<!-- file:///Users/renskedewit/Documents/GitHub/cwl&#45;epitope/niaa_abstract.cwl#generate_psp19&#45;&gt;file:///Users/renskedewit/Documents/GitHub/cwl&#45;epitope/niaa_abstract.cwl#combine_features -->
<g id="edge4" class="edge">
<title>file:///Users/renskedewit/Documents/GitHub/cwl&#45;epitope/niaa_abstract.cwl#generate_psp19&#45;&gt;file:///Users/renskedewit/Documents/GitHub/cwl&#45;epitope/niaa_abstract.cwl#combine_features</title>
<path fill="none" stroke="black" d="M270,-258.31C270,-250.29 270,-240.55 270,-231.57"/>
<polygon fill="black" stroke="black" points="273.5,-231.53 270,-221.53 266.5,-231.53 273.5,-231.53"/>
</g>
<!-- file:///Users/renskedewit/Documents/GitHub/cwl&#45;epitope/niaa_abstract.cwl#biodl_ss_sa_annotation -->
<g id="node6" class="node">
<title>file:///Users/renskedewit/Documents/GitHub/cwl&#45;epitope/niaa_abstract.cwl#biodl_ss_sa_annotation</title>
<polygon fill="lightgoldenrodyellow" stroke="black" points="622.5,-331.5 622.5,-367.5 765.5,-367.5 765.5,-331.5 622.5,-331.5"/>
<text text-anchor="middle" x="694" y="-345.8" font-family="Times,serif" font-size="14.00">biodl_ss_sa_annotation</text>
</g>
<!-- file:///Users/renskedewit/Documents/GitHub/cwl&#45;epitope/niaa_abstract.cwl#combine_labels -->
<g id="node7" class="node">
<title>file:///Users/renskedewit/Documents/GitHub/cwl&#45;epitope/niaa_abstract.cwl#combine_labels</title>
<polygon fill="lightgoldenrodyellow" stroke="black" points="440,-258.5 440,-294.5 542,-294.5 542,-258.5 440,-258.5"/>
<text text-anchor="middle" x="491" y="-272.8" font-family="Times,serif" font-size="14.00">combine_labels</text>
</g>
<!-- file:///Users/renskedewit/Documents/GitHub/cwl&#45;epitope/niaa_abstract.cwl#biodl_ss_sa_annotation&#45;&gt;file:///Users/renskedewit/Documents/GitHub/cwl&#45;epitope/niaa_abstract.cwl#combine_labels -->
<g id="edge5" class="edge">
<title>file:///Users/renskedewit/Documents/GitHub/cwl&#45;epitope/niaa_abstract.cwl#biodl_ss_sa_annotation&#45;&gt;file:///Users/renskedewit/Documents/GitHub/cwl&#45;epitope/niaa_abstract.cwl#combine_labels</title>
<path fill="none" stroke="black" d="M645.38,-331.49C616.59,-321.42 579.92,-308.6 549.55,-297.98"/>
<polygon fill="black" stroke="black" points="550.53,-294.61 539.93,-294.61 548.21,-301.22 550.53,-294.61"/>
</g>
<!-- file:///Users/renskedewit/Documents/GitHub/cwl&#45;epitope/niaa_abstract.cwl#combine_labels&#45;&gt;file:///Users/renskedewit/Documents/GitHub/cwl&#45;epitope/niaa_abstract.cwl#opus_tass -->
<g id="edge14" class="edge">
<title>file:///Users/renskedewit/Documents/GitHub/cwl&#45;epitope/niaa_abstract.cwl#combine_labels&#45;&gt;file:///Users/renskedewit/Documents/GitHub/cwl&#45;epitope/niaa_abstract.cwl#opus_tass</title>
<path fill="none" stroke="black" d="M469.76,-258.42C437.87,-232.76 377.5,-184.2 341.4,-155.15"/>
<polygon fill="black" stroke="black" points="343.19,-152.1 333.21,-148.56 338.81,-157.56 343.19,-152.1"/>
</g>
<!-- file:///Users/renskedewit/Documents/GitHub/cwl&#45;epitope/niaa_abstract.cwl#epi_ss_sa_annotation -->
<g id="node8" class="node">
<title>file:///Users/renskedewit/Documents/GitHub/cwl&#45;epitope/niaa_abstract.cwl#epi_ss_sa_annotation</title>
<polygon fill="lightgoldenrodyellow" stroke="black" points="356,-331.5 356,-367.5 488,-367.5 488,-331.5 356,-331.5"/>
<text text-anchor="middle" x="422" y="-345.8" font-family="Times,serif" font-size="14.00">epi_ss_sa_annotation</text>
</g>
<!-- file:///Users/renskedewit/Documents/GitHub/cwl&#45;epitope/niaa_abstract.cwl#epi_ss_sa_annotation&#45;&gt;file:///Users/renskedewit/Documents/GitHub/cwl&#45;epitope/niaa_abstract.cwl#combine_labels -->
<g id="edge6" class="edge">
<title>file:///Users/renskedewit/Documents/GitHub/cwl&#45;epitope/niaa_abstract.cwl#epi_ss_sa_annotation&#45;&gt;file:///Users/renskedewit/Documents/GitHub/cwl&#45;epitope/niaa_abstract.cwl#combine_labels</title>
<path fill="none" stroke="black" d="M438.7,-331.31C447.26,-322.5 457.84,-311.63 467.23,-301.96"/>
<polygon fill="black" stroke="black" points="469.99,-304.14 474.45,-294.53 464.97,-299.26 469.99,-304.14"/>
</g>
<!-- file:///Users/renskedewit/Documents/GitHub/cwl&#45;epitope/niaa_abstract.cwl#epitope_annotation -->
<g id="node9" class="node">
<title>file:///Users/renskedewit/Documents/GitHub/cwl&#45;epitope/niaa_abstract.cwl#epitope_annotation</title>
<polygon fill="lightgoldenrodyellow" stroke="black" points="218,-331.5 218,-367.5 338,-367.5 338,-331.5 218,-331.5"/>
<text text-anchor="middle" x="278" y="-345.8" font-family="Times,serif" font-size="14.00">epitope_annotation</text>
</g>
<!-- file:///Users/renskedewit/Documents/GitHub/cwl&#45;epitope/niaa_abstract.cwl#epitope_annotation&#45;&gt;file:///Users/renskedewit/Documents/GitHub/cwl&#45;epitope/niaa_abstract.cwl#combine_labels -->
<g id="edge7" class="edge">
<title>file:///Users/renskedewit/Documents/GitHub/cwl&#45;epitope/niaa_abstract.cwl#epitope_annotation&#45;&gt;file:///Users/renskedewit/Documents/GitHub/cwl&#45;epitope/niaa_abstract.cwl#combine_labels</title>
<path fill="none" stroke="black" d="M329.02,-331.49C359.36,-321.38 398.03,-308.49 429.98,-297.84"/>
<polygon fill="black" stroke="black" points="431.28,-301.1 439.66,-294.61 429.07,-294.46 431.28,-301.1"/>
</g>
<!-- file:///Users/renskedewit/Documents/GitHub/cwl&#45;epitope/niaa_abstract.cwl#pdb_ss_sa_annotation -->
<g id="node10" class="node">
<title>file:///Users/renskedewit/Documents/GitHub/cwl&#45;epitope/niaa_abstract.cwl#pdb_ss_sa_annotation</title>
<polygon fill="lightgoldenrodyellow" stroke="black" points="784,-331.5 784,-367.5 920,-367.5 920,-331.5 784,-331.5"/>
<text text-anchor="middle" x="852" y="-345.8" font-family="Times,serif" font-size="14.00">pdb_ss_sa_annotation</text>
</g>
<!-- file:///Users/renskedewit/Documents/GitHub/cwl&#45;epitope/niaa_abstract.cwl#pdb_ss_sa_annotation&#45;&gt;file:///Users/renskedewit/Documents/GitHub/cwl&#45;epitope/niaa_abstract.cwl#combine_labels -->
<g id="edge8" class="edge">
<title>file:///Users/renskedewit/Documents/GitHub/cwl&#45;epitope/niaa_abstract.cwl#pdb_ss_sa_annotation&#45;&gt;file:///Users/renskedewit/Documents/GitHub/cwl&#45;epitope/niaa_abstract.cwl#combine_labels</title>
<path fill="none" stroke="black" d="M783.6,-332.81C780.69,-332.19 777.82,-331.59 775,-331 698.42,-315.09 609.8,-298.72 552.19,-288.35"/>
<polygon fill="black" stroke="black" points="552.62,-284.87 542.16,-286.54 551.38,-291.76 552.62,-284.87"/>
</g>
<!-- file:///Users/renskedewit/Documents/GitHub/cwl&#45;epitope/niaa_abstract.cwl#ppi_annotation -->
<g id="node11" class="node">
<title>file:///Users/renskedewit/Documents/GitHub/cwl&#45;epitope/niaa_abstract.cwl#ppi_annotation</title>
<polygon fill="lightgoldenrodyellow" stroke="black" points="506,-331.5 506,-367.5 604,-367.5 604,-331.5 506,-331.5"/>
<text text-anchor="middle" x="555" y="-345.8" font-family="Times,serif" font-size="14.00">ppi_annotation</text>
</g>
<!-- file:///Users/renskedewit/Documents/GitHub/cwl&#45;epitope/niaa_abstract.cwl#ppi_annotation&#45;&gt;file:///Users/renskedewit/Documents/GitHub/cwl&#45;epitope/niaa_abstract.cwl#combine_labels -->
<g id="edge9" class="edge">
<title>file:///Users/renskedewit/Documents/GitHub/cwl&#45;epitope/niaa_abstract.cwl#ppi_annotation&#45;&gt;file:///Users/renskedewit/Documents/GitHub/cwl&#45;epitope/niaa_abstract.cwl#combine_labels</title>
<path fill="none" stroke="black" d="M539.51,-331.31C531.57,-322.5 521.76,-311.63 513.05,-301.96"/>
<polygon fill="black" stroke="black" points="515.65,-299.61 506.35,-294.53 510.45,-304.3 515.65,-299.61"/>
</g>
<!-- file:///Users/renskedewit/Documents/GitHub/cwl&#45;epitope/niaa_abstract.cwl#predictions -->
<g id="node16" class="node">
<title>file:///Users/renskedewit/Documents/GitHub/cwl&#45;epitope/niaa_abstract.cwl#predictions</title>
<polygon fill="#94ddf4" stroke="black" points="273.5,-39.5 273.5,-75.5 350.5,-75.5 350.5,-39.5 273.5,-39.5"/>
<text text-anchor="middle" x="312" y="-53.8" font-family="Times,serif" font-size="14.00">predictions</text>
</g>
<!-- file:///Users/renskedewit/Documents/GitHub/cwl&#45;epitope/niaa_abstract.cwl#opus_tass&#45;&gt;file:///Users/renskedewit/Documents/GitHub/cwl&#45;epitope/niaa_abstract.cwl#predictions -->
<g id="edge21" class="edge">
<title>file:///Users/renskedewit/Documents/GitHub/cwl&#45;epitope/niaa_abstract.cwl#opus_tass&#45;&gt;file:///Users/renskedewit/Documents/GitHub/cwl&#45;epitope/niaa_abstract.cwl#predictions</title>
<path fill="none" stroke="black" d="M312,-112.31C312,-104.29 312,-94.55 312,-85.57"/>
<polygon fill="black" stroke="black" points="315.5,-85.53 312,-75.53 308.5,-85.53 315.5,-85.53"/>
</g>
<!-- file:///Users/renskedewit/Documents/GitHub/cwl&#45;epitope/niaa_abstract.cwl#BioDL -->
<g id="node13" class="node">
<title>file:///Users/renskedewit/Documents/GitHub/cwl&#45;epitope/niaa_abstract.cwl#BioDL</title>
<polygon fill="#94ddf4" stroke="black" points="500,-407.5 500,-443.5 554,-443.5 554,-407.5 500,-407.5"/>
<text text-anchor="middle" x="527" y="-421.8" font-family="Times,serif" font-size="14.00">BioDL</text>
</g>
<!-- file:///Users/renskedewit/Documents/GitHub/cwl&#45;epitope/niaa_abstract.cwl#BioDL&#45;&gt;file:///Users/renskedewit/Documents/GitHub/cwl&#45;epitope/niaa_abstract.cwl#biodl_ss_sa_annotation -->
<g id="edge15" class="edge">
<title>file:///Users/renskedewit/Documents/GitHub/cwl&#45;epitope/niaa_abstract.cwl#BioDL&#45;&gt;file:///Users/renskedewit/Documents/GitHub/cwl&#45;epitope/niaa_abstract.cwl#biodl_ss_sa_annotation</title>
<path fill="none" stroke="black" d="M535.28,-407.4C541.41,-396.62 550.81,-383.4 563,-376 580.06,-365.65 588.79,-370.63 612.58,-367.72"/>
<polygon fill="black" stroke="black" points="613.15,-371.17 622.49,-366.17 612.07,-364.26 613.15,-371.17"/>
</g>
<!-- file:///Users/renskedewit/Documents/GitHub/cwl&#45;epitope/niaa_abstract.cwl#BioDL&#45;&gt;file:///Users/renskedewit/Documents/GitHub/cwl&#45;epitope/niaa_abstract.cwl#ppi_annotation -->
<g id="edge16" class="edge">
<title>file:///Users/renskedewit/Documents/GitHub/cwl&#45;epitope/niaa_abstract.cwl#BioDL&#45;&gt;file:///Users/renskedewit/Documents/GitHub/cwl&#45;epitope/niaa_abstract.cwl#ppi_annotation</title>
<path fill="none" stroke="black" d="M533.49,-407.34C536.89,-398.37 541.11,-387.2 544.92,-377.14"/>
<polygon fill="black" stroke="black" points="548.28,-378.16 548.54,-367.57 541.73,-375.68 548.28,-378.16"/>
</g>
<!-- file:///Users/renskedewit/Documents/GitHub/cwl&#45;epitope/niaa_abstract.cwl#SAbDab -->
<g id="node14" class="node">
<title>file:///Users/renskedewit/Documents/GitHub/cwl&#45;epitope/niaa_abstract.cwl#SAbDab</title>
<polygon fill="#94ddf4" stroke="black" points="418.5,-407.5 418.5,-443.5 481.5,-443.5 481.5,-407.5 418.5,-407.5"/>
<text text-anchor="middle" x="450" y="-421.8" font-family="Times,serif" font-size="14.00">SAbDab</text>
</g>
<!-- file:///Users/renskedewit/Documents/GitHub/cwl&#45;epitope/niaa_abstract.cwl#SAbDab&#45;&gt;file:///Users/renskedewit/Documents/GitHub/cwl&#45;epitope/niaa_abstract.cwl#extract_fasta -->
<g id="edge19" class="edge">
<title>file:///Users/renskedewit/Documents/GitHub/cwl&#45;epitope/niaa_abstract.cwl#SAbDab&#45;&gt;file:///Users/renskedewit/Documents/GitHub/cwl&#45;epitope/niaa_abstract.cwl#extract_fasta</title>
<path fill="none" stroke="black" d="M418.17,-418.04C373.64,-408.78 290.05,-390.62 209.8,-368.1"/>
<polygon fill="black" stroke="black" points="210.61,-364.69 200.03,-365.33 208.7,-371.42 210.61,-364.69"/>
</g>
<!-- file:///Users/renskedewit/Documents/GitHub/cwl&#45;epitope/niaa_abstract.cwl#SAbDab&#45;&gt;file:///Users/renskedewit/Documents/GitHub/cwl&#45;epitope/niaa_abstract.cwl#epi_ss_sa_annotation -->
<g id="edge17" class="edge">
<title>file:///Users/renskedewit/Documents/GitHub/cwl&#45;epitope/niaa_abstract.cwl#SAbDab&#45;&gt;file:///Users/renskedewit/Documents/GitHub/cwl&#45;epitope/niaa_abstract.cwl#epi_ss_sa_annotation</title>
<path fill="none" stroke="black" d="M443.51,-407.34C440.11,-398.37 435.89,-387.2 432.08,-377.14"/>
<polygon fill="black" stroke="black" points="435.27,-375.68 428.46,-367.57 428.72,-378.16 435.27,-375.68"/>
</g>
<!-- file:///Users/renskedewit/Documents/GitHub/cwl&#45;epitope/niaa_abstract.cwl#SAbDab&#45;&gt;file:///Users/renskedewit/Documents/GitHub/cwl&#45;epitope/niaa_abstract.cwl#epitope_annotation -->
<g id="edge18" class="edge">
<title>file:///Users/renskedewit/Documents/GitHub/cwl&#45;epitope/niaa_abstract.cwl#SAbDab&#45;&gt;file:///Users/renskedewit/Documents/GitHub/cwl&#45;epitope/niaa_abstract.cwl#epitope_annotation</title>
<path fill="none" stroke="black" d="M418.45,-410.93C392.9,-399.93 356.45,-384.25 327.09,-371.62"/>
<polygon fill="black" stroke="black" points="328.39,-368.37 317.82,-367.63 325.63,-374.8 328.39,-368.37"/>
</g>
<!-- file:///Users/renskedewit/Documents/GitHub/cwl&#45;epitope/niaa_abstract.cwl#pdb -->
<g id="node15" class="node">
<title>file:///Users/renskedewit/Documents/GitHub/cwl&#45;epitope/niaa_abstract.cwl#pdb</title>
<polygon fill="#94ddf4" stroke="black" points="572,-407.5 572,-443.5 626,-443.5 626,-407.5 572,-407.5"/>
<text text-anchor="middle" x="599" y="-421.8" font-family="Times,serif" font-size="14.00">pdb</text>
</g>
<!-- file:///Users/renskedewit/Documents/GitHub/cwl&#45;epitope/niaa_abstract.cwl#pdb&#45;&gt;file:///Users/renskedewit/Documents/GitHub/cwl&#45;epitope/niaa_abstract.cwl#pdb_ss_sa_annotation -->
<g id="edge20" class="edge">
<title>file:///Users/renskedewit/Documents/GitHub/cwl&#45;epitope/niaa_abstract.cwl#pdb&#45;&gt;file:///Users/renskedewit/Documents/GitHub/cwl&#45;epitope/niaa_abstract.cwl#pdb_ss_sa_annotation</title>
<path fill="none" stroke="black" d="M626.08,-416.58C663.44,-405.65 732.07,-385.58 783.92,-370.41"/>
<polygon fill="black" stroke="black" points="785.1,-373.71 793.72,-367.55 783.14,-366.99 785.1,-373.71"/>
</g>
</g>
</svg>
