<?xml version="1.0" encoding="UTF-8" standalone="no"?>
<!DOCTYPE svg PUBLIC "-//W3C//DTD SVG 1.1//EN"
 "http://www.w3.org/Graphics/SVG/1.1/DTD/svg11.dtd">
<!-- Generated by graphviz version 2.40.1 (0)
 -->
<!-- Title: G Pages: 1 -->
<svg width="1041pt" height="687pt"
 viewBox="0.00 0.00 1041.00 687.00" xmlns="http://www.w3.org/2000/svg" xmlns:xlink="http://www.w3.org/1999/xlink">
<g id="graph0" class="graph" transform="scale(1 1) rotate(0) translate(4 683)">
<title>G</title>
<polygon fill="#eeeeee" stroke="transparent" points="-4,4 -4,-683 1037,-683 1037,4 -4,4"/>
<g id="clust1" class="cluster">
<title>cluster_inputs</title>
<polygon fill="#eeeeee" stroke="#000000" stroke-dasharray="5,2" points="8,-595 8,-671 1025,-671 1025,-595 8,-595"/>
<text text-anchor="middle" x="957" y="-602.8" font-family="Times,serif" font-size="14.00" fill="#000000">Workflow Inputs</text>
</g>
<g id="clust2" class="cluster">
<title>cluster_outputs</title>
<polygon fill="#eeeeee" stroke="#000000" stroke-dasharray="5,2" points="405,-8 405,-84 553,-84 553,-8 405,-8"/>
<text text-anchor="middle" x="479" y="-15.8" font-family="Times,serif" font-size="14.00" fill="#000000">Workflow Outputs</text>
</g>
<!-- generate_psp19 -->
<g id="node1" class="node">
<title>generate_psp19</title>
<polygon fill="#fafad2" stroke="#000000" points="504.5,-258.5 504.5,-294.5 635.5,-294.5 635.5,-258.5 504.5,-258.5"/>
<text text-anchor="middle" x="570" y="-272.8" font-family="Times,serif" font-size="14.00" fill="#000000">generate_psp19</text>
</g>
<!-- combine_features -->
<g id="node2" class="node">
<title>combine_features</title>
<polygon fill="none" stroke="#000000" stroke-dasharray="5,2" points="357,-185.5 357,-221.5 501,-221.5 501,-185.5 357,-185.5"/>
<text text-anchor="middle" x="429" y="-199.8" font-family="Times,serif" font-size="14.00" fill="#000000">combine_features</text>
</g>
<!-- generate_psp19&#45;&gt;combine_features -->
<g id="edge1" class="edge">
<title>generate_psp19&#45;&gt;combine_features</title>
<path fill="none" stroke="#000000" d="M535.1461,-258.4551C516.3345,-248.7157 492.928,-236.5975 472.8852,-226.2207"/>
<polygon fill="#000000" stroke="#000000" points="474.4313,-223.0799 463.9417,-221.5904 471.2129,-229.2962 474.4313,-223.0799"/>
</g>
<!-- train_epitope_prediction_model -->
<g id="node13" class="node">
<title>train_epitope_prediction_model</title>
<polygon fill="none" stroke="#000000" stroke-dasharray="5,2" points="357,-112.5 357,-148.5 601,-148.5 601,-112.5 357,-112.5"/>
<text text-anchor="middle" x="479" y="-126.8" font-family="Times,serif" font-size="14.00" fill="#000000">train_epitope_prediction_model</text>
</g>
<!-- combine_features&#45;&gt;train_epitope_prediction_model -->
<g id="edge18" class="edge">
<title>combine_features&#45;&gt;train_epitope_prediction_model</title>
<path fill="none" stroke="#000000" d="M441.3596,-185.4551C447.2491,-176.8564 454.4087,-166.4034 460.8961,-156.9316"/>
<polygon fill="#000000" stroke="#000000" points="463.846,-158.8185 466.6093,-148.5904 458.0708,-154.8628 463.846,-158.8185"/>
</g>
<!-- generate_ppi_labels -->
<g id="node3" class="node">
<title>generate_ppi_labels</title>
<polygon fill="#fafad2" stroke="#000000" points="368,-331.5 368,-367.5 528,-367.5 528,-331.5 368,-331.5"/>
<text text-anchor="middle" x="448" y="-345.8" font-family="Times,serif" font-size="14.00" fill="#000000">generate_ppi_labels</text>
</g>
<!-- generate_ppi_labels&#45;&gt;generate_psp19 -->
<g id="edge16" class="edge">
<title>generate_ppi_labels&#45;&gt;generate_psp19</title>
<path fill="none" stroke="#000000" d="M478.1573,-331.4551C494.1407,-321.8912 513.9579,-310.0334 531.0882,-299.7833"/>
<polygon fill="#000000" stroke="#000000" points="532.9828,-302.7284 539.7668,-294.5904 529.3885,-296.7216 532.9828,-302.7284"/>
</g>
<!-- generate_ppi_labels&#45;&gt;combine_features -->
<g id="edge2" class="edge">
<title>generate_ppi_labels&#45;&gt;combine_features</title>
<path fill="none" stroke="#000000" d="M402.4886,-331.3446C387.113,-322.7593 371.6615,-310.8425 363,-295 355.1114,-280.5712 355.9916,-272.8762 363,-258 368.5969,-246.1199 378.195,-235.9472 388.3647,-227.7189"/>
<polygon fill="#000000" stroke="#000000" points="390.6899,-230.3495 396.5776,-221.5413 386.4821,-224.7554 390.6899,-230.3495"/>
</g>
<!-- generate_pc7 -->
<g id="node4" class="node">
<title>generate_pc7</title>
<polygon fill="#fafad2" stroke="#000000" points="372,-258.5 372,-294.5 486,-294.5 486,-258.5 372,-258.5"/>
<text text-anchor="middle" x="429" y="-272.8" font-family="Times,serif" font-size="14.00" fill="#000000">generate_pc7</text>
</g>
<!-- generate_ppi_labels&#45;&gt;generate_pc7 -->
<g id="edge14" class="edge">
<title>generate_ppi_labels&#45;&gt;generate_pc7</title>
<path fill="none" stroke="#000000" d="M443.3034,-331.4551C441.1795,-323.2951 438.6211,-313.4652 436.2587,-304.3887"/>
<polygon fill="#000000" stroke="#000000" points="439.6145,-303.3863 433.7084,-294.5904 432.8402,-305.1496 439.6145,-303.3863"/>
</g>
<!-- generate_hhm -->
<g id="node5" class="node">
<title>generate_hhm</title>
<polygon fill="#f3cea1" stroke="#000000" points="190.5,-258.5 190.5,-294.5 309.5,-294.5 309.5,-258.5 190.5,-258.5"/>
<text text-anchor="middle" x="250" y="-272.8" font-family="Times,serif" font-size="14.00" fill="#000000">generate_hhm</text>
</g>
<!-- generate_ppi_labels&#45;&gt;generate_hhm -->
<g id="edge13" class="edge">
<title>generate_ppi_labels&#45;&gt;generate_hhm</title>
<path fill="none" stroke="#000000" d="M399.0562,-331.4551C371.688,-321.3648 337.394,-308.721 308.6023,-298.1059"/>
<polygon fill="#000000" stroke="#000000" points="309.6604,-294.7658 299.067,-294.5904 307.2389,-301.3336 309.6604,-294.7658"/>
</g>
<!-- combine_labels -->
<g id="node6" class="node">
<title>combine_labels</title>
<polygon fill="#fafad2" stroke="#000000" points="653.5,-258.5 653.5,-294.5 780.5,-294.5 780.5,-258.5 653.5,-258.5"/>
<text text-anchor="middle" x="717" y="-272.8" font-family="Times,serif" font-size="14.00" fill="#000000">combine_labels</text>
</g>
<!-- generate_ppi_labels&#45;&gt;combine_labels -->
<g id="edge5" class="edge">
<title>generate_ppi_labels&#45;&gt;combine_labels</title>
<path fill="none" stroke="#000000" d="M514.4944,-331.4551C553.5895,-320.8456 603.0874,-307.4131 643.3602,-296.484"/>
<polygon fill="#000000" stroke="#000000" points="644.3886,-299.8316 653.1229,-293.8347 642.5552,-293.076 644.3886,-299.8316"/>
</g>
<!-- generate_pc7&#45;&gt;combine_features -->
<g id="edge3" class="edge">
<title>generate_pc7&#45;&gt;combine_features</title>
<path fill="none" stroke="#000000" d="M429,-258.4551C429,-250.3828 429,-240.6764 429,-231.6817"/>
<polygon fill="#000000" stroke="#000000" points="432.5001,-231.5903 429,-221.5904 425.5001,-231.5904 432.5001,-231.5903"/>
</g>
<!-- generate_hhm&#45;&gt;combine_features -->
<g id="edge4" class="edge">
<title>generate_hhm&#45;&gt;combine_features</title>
<path fill="none" stroke="#000000" d="M294.2472,-258.4551C318.774,-248.4525 349.4536,-235.9407 375.3411,-225.3833"/>
<polygon fill="#000000" stroke="#000000" points="376.7036,-228.6075 384.6414,-221.5904 374.0601,-222.1258 376.7036,-228.6075"/>
</g>
<!-- combine_labels&#45;&gt;train_epitope_prediction_model -->
<g id="edge17" class="edge">
<title>combine_labels&#45;&gt;train_epitope_prediction_model</title>
<path fill="none" stroke="#000000" d="M687.3384,-258.3042C644.3756,-231.9489 564.8009,-183.1342 517.4052,-154.0595"/>
<polygon fill="#000000" stroke="#000000" points="519.0148,-150.9409 508.6607,-148.6952 515.3545,-156.9076 519.0148,-150.9409"/>
</g>
<!-- generate_dssp_labels -->
<g id="node7" class="node">
<title>generate_dssp_labels</title>
<polygon fill="#fafad2" stroke="#000000" points="632,-331.5 632,-367.5 802,-367.5 802,-331.5 632,-331.5"/>
<text text-anchor="middle" x="717" y="-345.8" font-family="Times,serif" font-size="14.00" fill="#000000">generate_dssp_labels</text>
</g>
<!-- generate_dssp_labels&#45;&gt;combine_labels -->
<g id="edge6" class="edge">
<title>generate_dssp_labels&#45;&gt;combine_labels</title>
<path fill="none" stroke="#000000" d="M717,-331.4551C717,-323.3828 717,-313.6764 717,-304.6817"/>
<polygon fill="#000000" stroke="#000000" points="720.5001,-304.5903 717,-294.5904 713.5001,-304.5904 720.5001,-304.5903"/>
</g>
<!-- generate_epitope_labels -->
<g id="node8" class="node">
<title>generate_epitope_labels</title>
<polygon fill="#fafad2" stroke="#000000" points="820.5,-331.5 820.5,-367.5 1011.5,-367.5 1011.5,-331.5 820.5,-331.5"/>
<text text-anchor="middle" x="916" y="-345.8" font-family="Times,serif" font-size="14.00" fill="#000000">generate_epitope_labels</text>
</g>
<!-- generate_epitope_labels&#45;&gt;combine_labels -->
<g id="edge7" class="edge">
<title>generate_epitope_labels&#45;&gt;combine_labels</title>
<path fill="none" stroke="#000000" d="M866.809,-331.4551C839.3026,-321.3648 804.8353,-308.721 775.8982,-298.1059"/>
<polygon fill="#000000" stroke="#000000" points="776.9085,-294.7485 766.3148,-294.5904 774.4977,-301.3202 776.9085,-294.7485"/>
</g>
<!-- download_pdb_files -->
<g id="node9" class="node">
<title>download_pdb_files</title>
<polygon fill="#fafad2" stroke="#000000" points="646.5,-477.5 646.5,-513.5 803.5,-513.5 803.5,-477.5 646.5,-477.5"/>
<text text-anchor="middle" x="725" y="-491.8" font-family="Times,serif" font-size="14.00" fill="#000000">download_pdb_files</text>
</g>
<!-- decompress_pdb_files -->
<g id="node10" class="node">
<title>decompress_pdb_files</title>
<polygon fill="#fafad2" stroke="#000000" points="634.5,-404.5 634.5,-440.5 809.5,-440.5 809.5,-404.5 634.5,-404.5"/>
<text text-anchor="middle" x="722" y="-418.8" font-family="Times,serif" font-size="14.00" fill="#000000">decompress_pdb_files</text>
</g>
<!-- download_pdb_files&#45;&gt;decompress_pdb_files -->
<g id="edge8" class="edge">
<title>download_pdb_files&#45;&gt;decompress_pdb_files</title>
<path fill="none" stroke="#000000" d="M724.2584,-477.4551C723.9267,-469.3828 723.5278,-459.6764 723.1582,-450.6817"/>
<polygon fill="#000000" stroke="#000000" points="726.6512,-450.4382 722.7434,-440.5904 719.6571,-450.7257 726.6512,-450.4382"/>
</g>
<!-- decompress_pdb_files&#45;&gt;generate_ppi_labels -->
<g id="edge15" class="edge">
<title>decompress_pdb_files&#45;&gt;generate_ppi_labels</title>
<path fill="none" stroke="#000000" d="M654.2696,-404.4551C615.3263,-394.0796 566.2491,-381.0043 525.7367,-370.2109"/>
<polygon fill="#000000" stroke="#000000" points="526.4648,-366.7828 515.9008,-367.5904 524.6627,-373.5469 526.4648,-366.7828"/>
</g>
<!-- decompress_pdb_files&#45;&gt;generate_dssp_labels -->
<g id="edge10" class="edge">
<title>decompress_pdb_files&#45;&gt;generate_dssp_labels</title>
<path fill="none" stroke="#000000" d="M720.764,-404.4551C720.2112,-396.3828 719.5463,-386.6764 718.9303,-377.6817"/>
<polygon fill="#000000" stroke="#000000" points="722.4143,-377.3278 718.2391,-367.5904 715.4307,-377.8062 722.4143,-377.3278"/>
</g>
<!-- decompress_pdb_files&#45;&gt;generate_epitope_labels -->
<g id="edge12" class="edge">
<title>decompress_pdb_files&#45;&gt;generate_epitope_labels</title>
<path fill="none" stroke="#000000" d="M769.9551,-404.4551C796.6537,-394.4087 830.0795,-381.8309 858.2134,-371.2445"/>
<polygon fill="#000000" stroke="#000000" points="859.7976,-374.388 867.9242,-367.5904 857.3323,-367.8365 859.7976,-374.388"/>
</g>
<!-- run_pdb_query -->
<g id="node11" class="node">
<title>run_pdb_query</title>
<polygon fill="#fafad2" stroke="#000000" points="672.5,-550.5 672.5,-586.5 797.5,-586.5 797.5,-550.5 672.5,-550.5"/>
<text text-anchor="middle" x="735" y="-564.8" font-family="Times,serif" font-size="14.00" fill="#000000">run_pdb_query</text>
</g>
<!-- run_pdb_query&#45;&gt;download_pdb_files -->
<g id="edge9" class="edge">
<title>run_pdb_query&#45;&gt;download_pdb_files</title>
<path fill="none" stroke="#000000" d="M732.5281,-550.4551C731.4223,-542.3828 730.0927,-532.6764 728.8605,-523.6817"/>
<polygon fill="#000000" stroke="#000000" points="732.303,-523.0228 727.4781,-513.5904 725.3678,-523.9729 732.303,-523.0228"/>
</g>
<!-- preprocess_sabdab_data -->
<g id="node12" class="node">
<title>preprocess_sabdab_data</title>
<polygon fill="#fafad2" stroke="#000000" points="832,-550.5 832,-586.5 1026,-586.5 1026,-550.5 832,-550.5"/>
<text text-anchor="middle" x="929" y="-564.8" font-family="Times,serif" font-size="14.00" fill="#000000">preprocess_sabdab_data</text>
</g>
<!-- preprocess_sabdab_data&#45;&gt;generate_epitope_labels -->
<g id="edge11" class="edge">
<title>preprocess_sabdab_data&#45;&gt;generate_epitope_labels</title>
<path fill="none" stroke="#000000" d="M927.914,-550.2049C925.6429,-511.9458 920.3786,-423.2623 917.6724,-377.6742"/>
<polygon fill="#000000" stroke="#000000" points="921.1603,-377.364 917.0738,-367.589 914.1726,-377.7789 921.1603,-377.364"/>
</g>
<!-- predictions -->
<g id="node20" class="node">
<title>predictions</title>
<polygon fill="#94ddf4" stroke="#000000" points="430,-39.5 430,-75.5 528,-75.5 528,-39.5 430,-39.5"/>
<text text-anchor="middle" x="479" y="-53.8" font-family="Times,serif" font-size="14.00" fill="#000000">predictions</text>
</g>
<!-- train_epitope_prediction_model&#45;&gt;predictions -->
<g id="edge25" class="edge">
<title>train_epitope_prediction_model&#45;&gt;predictions</title>
<path fill="none" stroke="#000000" d="M479,-112.4551C479,-104.3828 479,-94.6764 479,-85.6817"/>
<polygon fill="#000000" stroke="#000000" points="482.5001,-85.5903 479,-75.5904 475.5001,-85.5904 482.5001,-85.5903"/>
</g>
<!-- hhblits_db_dir -->
<g id="node14" class="node">
<title>hhblits_db_dir</title>
<polygon fill="#94ddf4" stroke="#000000" points="16.5,-626.5 16.5,-662.5 135.5,-662.5 135.5,-626.5 16.5,-626.5"/>
<text text-anchor="middle" x="76" y="-640.8" font-family="Times,serif" font-size="14.00" fill="#000000">hhblits_db_dir</text>
</g>
<!-- hhblits_db_dir&#45;&gt;generate_hhm -->
<g id="edge19" class="edge">
<title>hhblits_db_dir&#45;&gt;generate_hhm</title>
<path fill="none" stroke="#000000" d="M87.1888,-626.4505C103.0058,-599.1645 130,-545.3012 130,-495.5 130,-495.5 130,-495.5 130,-422.5 130,-369.9511 176.9689,-326.0086 212.1368,-300.4718"/>
<polygon fill="#000000" stroke="#000000" points="214.1812,-303.3129 220.3371,-294.6899 210.1474,-297.5919 214.1812,-303.3129"/>
</g>
<!-- hhblits_db_name -->
<g id="node15" class="node">
<title>hhblits_db_name</title>
<polygon fill="#94ddf4" stroke="#000000" points="154,-626.5 154,-662.5 292,-662.5 292,-626.5 154,-626.5"/>
<text text-anchor="middle" x="223" y="-640.8" font-family="Times,serif" font-size="14.00" fill="#000000">hhblits_db_name</text>
</g>
<!-- hhblits_db_name&#45;&gt;generate_hhm -->
<g id="edge20" class="edge">
<title>hhblits_db_name&#45;&gt;generate_hhm</title>
<path fill="none" stroke="#000000" d="M223.6071,-626.1516C224.4837,-598.0329 226,-542.5894 226,-495.5 226,-495.5 226,-495.5 226,-422.5 226,-381.0911 235.5165,-333.9404 242.5645,-304.6986"/>
<polygon fill="#000000" stroke="#000000" points="246.0144,-305.3281 245.0272,-294.7794 239.2206,-303.6414 246.0144,-305.3281"/>
</g>
<!-- biodl_test_dataset -->
<g id="node16" class="node">
<title>biodl_test_dataset</title>
<polygon fill="#94ddf4" stroke="#000000" points="310,-626.5 310,-662.5 458,-662.5 458,-626.5 310,-626.5"/>
<text text-anchor="middle" x="384" y="-640.8" font-family="Times,serif" font-size="14.00" fill="#000000">biodl_test_dataset</text>
</g>
<!-- biodl_test_dataset&#45;&gt;generate_ppi_labels -->
<g id="edge21" class="edge">
<title>biodl_test_dataset&#45;&gt;generate_ppi_labels</title>
<path fill="none" stroke="#000000" d="M387.9071,-626.4905C398.6857,-576.8083 428.9003,-437.5376 441.9128,-377.5583"/>
<polygon fill="#000000" stroke="#000000" points="445.3629,-378.1634 444.0627,-367.6486 438.522,-376.6792 445.3629,-378.1634"/>
</g>
<!-- biodl_train_dataset -->
<g id="node17" class="node">
<title>biodl_train_dataset</title>
<polygon fill="#94ddf4" stroke="#000000" points="476.5,-626.5 476.5,-662.5 631.5,-662.5 631.5,-626.5 476.5,-626.5"/>
<text text-anchor="middle" x="554" y="-640.8" font-family="Times,serif" font-size="14.00" fill="#000000">biodl_train_dataset</text>
</g>
<!-- biodl_train_dataset&#45;&gt;generate_ppi_labels -->
<g id="edge22" class="edge">
<title>biodl_train_dataset&#45;&gt;generate_ppi_labels</title>
<path fill="none" stroke="#000000" d="M547.5288,-626.4905C529.6399,-576.7055 479.4265,-436.9606 457.9485,-377.1868"/>
<polygon fill="#000000" stroke="#000000" points="461.1966,-375.876 454.5212,-367.6486 454.609,-378.2431 461.1966,-375.876"/>
</g>
<!-- sabdab_summary_file -->
<g id="node18" class="node">
<title>sabdab_summary_file</title>
<polygon fill="#94ddf4" stroke="#000000" points="845,-626.5 845,-662.5 1017,-662.5 1017,-626.5 845,-626.5"/>
<text text-anchor="middle" x="931" y="-640.8" font-family="Times,serif" font-size="14.00" fill="#000000">sabdab_summary_file</text>
</g>
<!-- sabdab_summary_file&#45;&gt;preprocess_sabdab_data -->
<g id="edge23" class="edge">
<title>sabdab_summary_file&#45;&gt;preprocess_sabdab_data</title>
<path fill="none" stroke="#000000" d="M930.526,-626.4891C930.2936,-617.6566 930.0082,-606.8099 929.7473,-596.8965"/>
<polygon fill="#000000" stroke="#000000" points="933.2395,-596.5495 929.4775,-586.645 926.2419,-596.7337 933.2395,-596.5495"/>
</g>
<!-- pdb_search_api_query -->
<g id="node19" class="node">
<title>pdb_search_api_query</title>
<polygon fill="#94ddf4" stroke="#000000" points="649.5,-626.5 649.5,-662.5 826.5,-662.5 826.5,-626.5 649.5,-626.5"/>
<text text-anchor="middle" x="738" y="-640.8" font-family="Times,serif" font-size="14.00" fill="#000000">pdb_search_api_query</text>
</g>
<!-- pdb_search_api_query&#45;&gt;run_pdb_query -->
<g id="edge24" class="edge">
<title>pdb_search_api_query&#45;&gt;run_pdb_query</title>
<path fill="none" stroke="#000000" d="M737.289,-626.4891C736.9404,-617.6566 736.5122,-606.8099 736.1209,-596.8965"/>
<polygon fill="#000000" stroke="#000000" points="739.6081,-596.4992 735.7163,-586.645 732.6135,-596.7753 739.6081,-596.4992"/>
</g>
</g>
</svg>
